<svg xmlns="http://www.w3.org/2000/svg" width="553pt" height="206pt" viewBox="0 0 553 206" style="zoom:1"><path d="M137.45 139c.04-43.78-.09-87.56.07-131.34 4.95.1 9.91-.01 14.87.09-.01 27.69.1 55.38-.05 83.07 25.5.16 51.01.11 76.51.03.04-24.29.02-48.57.02-72.85.05-3.46-.37-6.97.5-10.36 4.82.13 9.64.06 14.46.03.23 4.44.11 8.89.13 13.33.01 43 .01 86 0 129 .04 3.09.09 6.19-.24 9.27-4.98-.61-10.05.44-14.95-.66.19-18.18.15-36.36.02-54.54-25.45.19-50.91.01-76.37.09 0 18.2-.09 36.4.05 54.59-4.91.89-9.94.12-14.9.46-.25-6.74-.07-13.48-.12-20.21zm-79.1-95.51c16.1-2.51 33.64 1.18 46.16 11.97 4.53 4.17 8.89 8.63 12.15 13.9 6.4 10.14 8.97 22.23 9.08 34.11-33.43-.03-66.86 0-100.29-.02-.16 12.33 4.29 25.13 13.54 33.56 3.99 4.3 9.19 7.33 14.66 9.36 12.33 4.21 26.3 2.25 37.51-4.2 7.91-4.36 13.46-11.88 17.94-19.53.85-.95 2.18-.41 3.13.04 3.24 1.66 6.41 3.45 9.62 5.15-2.32 5.34-5.61 10.27-9.35 14.72-8.78 9.2-18.19 17.78-27.09 26.87-7.55 7.75-13.38 17.09-17.32 27.16-4.31-11.25-11.16-21.46-19.87-29.78-7.54-7.79-16.13-14.61-22.65-23.35-7.23-8.73-12.61-19.22-14.26-30.51-2.89-17.13 1.46-35.56 12.55-49.06 8.23-10.96 20.85-18.67 34.49-20.39M45.24 63.25c-9.7 6-15.88 16.62-18.21 27.6 27.61.16 55.22-.02 82.82.09-1.68-7.31-4.61-14.53-9.57-20.23-13.49-15-38.08-18.58-55.04-7.46zM304.3 43.44c10.84-1.67 22.2-.35 32.27 4.04 13.89 6.37 24.78 18.55 30.28 32.74 5.87 16.13 5.29 34.8-2.58 50.17-4.88 9.01-11.63 17.18-20.28 22.79-9.69 6.37-21.51 8.9-33.01 8.48-14.45-.25-28.94-6.14-38.65-16.99-12.87-13.09-18.84-32.32-16.28-50.42 1.51-13.18 7.78-25.71 17.26-34.97 8.11-8.63 19.24-14.34 30.99-15.84m-9.24 17.71c-14.94 7.59-25.51 23.91-24.87 40.87-.58 13.59 5.23 27.44 15.75 36.15 7.43 6.39 17.28 9.72 27.04 9.73 13.78.23 27.69-6.67 35.21-18.34 11.12-16.03 11.08-39.25-.95-54.78-6.18-8.31-15.08-14.66-25.27-16.91-9.04-1.33-18.62-.93-26.91 3.28zm231.61-16.47c3.93-1.49 8.21-2.17 12.41-1.89 3.75.8 7.39 2.01 10.71 3.96-2.89 3.81-5.3 7.95-7.69 12.08-3.11-.83-6.21-2.41-9.5-1.77-9.18 1-16.65 8.23-20.1 16.49-5.67 12.28-4.86 26.11-5.53 39.29-.31 15.47.27 30.95-.29 46.41-4.98-.4-10.06.46-14.97-.65.21-37.68.04-75.36.08-113.04 5.01-.18 10.02-.05 15.03-.11.13 5.6.05 11.21.1 16.82 5.12-7.22 11.39-14.17 19.75-17.59zm-144.29.78c4.79.02 9.59 0 14.4.05.11 19.83-.04 39.66.06 59.49.6 9.62.14 20.13 5.92 28.43 6.66 10.35 19.61 15.12 31.57 14.09 12.71-.45 25.22-8.73 29.1-21.11 1.73-6.29 1.91-12.89 2.11-19.38.05-20.5-.04-41 .03-61.49 4.92-.11 9.83-.07 14.75-.06-.11 21.17.01 42.34-.06 63.51-.74 10.4-1.67 21.24-6.82 30.55-4.35 8.01-11.42 14.62-19.85 18.15-6.16 2.65-12.88 3.71-19.54 3.97-9.85.28-20.05-1.06-28.75-5.95-9.5-5.14-16.35-14.35-19.5-24.59-2.64-9.46-3.32-19.32-3.37-29.1-.12-18.85 0-37.71-.05-56.56z" fill="#5079c9"/></svg>