<svg xmlns="http://www.w3.org/2000/svg" width="584" height="167pt" viewBox="0 0 438 167" style="zoom:1"><g fill="#569abe"><path d="M266.53 20.53c13.32-16.7 40.46-17.73 56.71-4.77 14.31 11.14 17.93 34.28 5.95 48.4-2.69 4.2-9.73 7.38-9.19 12.59 21.86 3.86 27.3 34.01 12.06 48.29-12.36 10.64-23.56 22.56-32.86 35.99-13.69-6.14-28.15-13.6-43.62-12.23-3.96-.16-6.67 9.42-9.55 4.16 6.42-10.96 15.94-21.66 18.96-33.9-15.12-7.01-22.99-26.65-13.12-41.16 10.12-15.67 30.41-22.24 38.09-39.8 6.57 7.69 16.55 14.97 27.18 11.14 10.97-2.34 14.37-16.96 7.84-25.24-13.55-18.41-46.6-15.82-57.51 4.01-4.14 7.61 1.88 17.69 10.81 16.43-2.95 5.47-11.29 6.4-14.88 1.1-5.15-7.7-1.88-18.07 3.13-25.01m20.99 74.71c12.9 2.51 23.49-8.45 29.12-18.82-15.86 6.33-31.7-3.08-42.66-14.09-7.49 11.3.94 29.15 13.54 32.91m-18.21 25.9c16.18.18 31.33 6.99 44.8 15.46 7.46-11.71 1.65-31.27-11.92-35.84-14.37-3.1-27.16 8.12-32.88 20.38zM175.1 47.1c22.24-4.54 46.85 5.77 58.15 25.69 12.32 20.54 7.77 49.35-10.5 64.94-23.88 22.5-67.31 17.17-84.15-11.3-19.67-29.89.9-74.87 36.5-79.33m6 25.04c-16.32 2.25-25.11 21.78-19.42 36.4 5.14 16.88 28.84 23.18 41.28 10.42 18.44-16.36 3.32-51.76-21.86-46.82zM6.38 48.21c3.06.01 6.12.01 9.17 0 .02 3 .01 6-.05 9-3.02-.01-6.04-.01-9.05 0-.07-3-.08-6-.07-9zM20.39 48.21c3.08.01 6.17.01 9.25.01-.02 14.1.01 28.21-.01 42.31-3.08-.02-6.15-.02-9.23.01-.03-14.11 0-28.22-.01-42.33z"/><path d="M40.19 48.28c25.86 2.29 57.9-7.43 78.34 13.21 13.33 16.2 8.48 45.05-11.02 54.23-11.91 6.1-25.65 5.49-38.65 5.46.02 9.57.01 19.15.01 28.72-9.55 0-19.11-.02-28.66.01-.02-33.87.02-67.75-.02-101.63m28.75 24.03c-.2 8.74.04 17.49-.13 26.23 6.44-.05 12.98.59 19.37-.38 9.13-2.22 12.64-14.78 6.19-21.53-6.53-7.08-17.02-3.33-25.43-4.32zM344.64 48.22c29.86.01 59.72-.01 89.58.01.01 8.39.01 16.79 0 25.18-10.2.02-20.41.06-30.61-.02.04 25.48 0 50.95.02 76.43-9.66-.03-19.33-.02-28.99-.01.02-25.47-.05-50.94.04-76.4-10.02.05-20.03.01-30.04.02-.01-8.4-.01-16.81 0-25.21zM6.38 90.52c.04-10.27-.05-20.54.04-30.8 3.04.01 6.07.01 9.11 0 .06 10.27 0 20.53.03 30.8H6.38z"/></g></svg>