<?xml version="1.0" encoding="utf-8"?>
<svg viewBox="0 0 1413.157 299.707" width="1310pt" height="277.829pt" xmlns="http://www.w3.org/2000/svg">
  <g id="#124191ff">
    <path fill="#124191" opacity="1.00" d=" M 0.00 0.00 L 1310.00 0.00 L 1310.00 300.00 L 0.00 300.00 L 0.00 0.00 M 1290.00 106.00 C 1289.99 136.33 1289.99 166.66 1290.00 197.00 C 1292.50 197.00 1297.50 197.00 1300.00 197.00 C 1300.00 166.67 1300.00 136.33 1300.00 106.00 C 1297.50 106.00 1292.50 106.00 1290.00 106.00 M 499.92 130.92 C 488.71 153.67 494.73 189.60 522.39 196.77 C 536.86 199.47 551.85 197.02 566.12 194.02 C 565.97 180.02 566.01 166.02 565.99 152.02 C 556.32 151.97 546.66 151.97 537.00 152.00 C 537.04 155.01 536.92 157.96 537.00 160.98 C 543.33 161.00 549.65 161.02 556.00 161.04 C 556.01 170.01 556.01 178.97 555.96 187.94 C 542.10 188.54 525.55 192.58 514.65 181.35 C 501.15 167.18 501.26 141.10 515.23 127.18 C 527.95 115.94 546.33 118.15 561.03 124.09 C 561.98 121.07 562.99 118.07 564.09 115.10 C 542.79 104.87 511.90 108.52 499.92 130.92 M 588.60 116.59 C 576.16 127.19 581.59 149.50 596.97 154.21 C 608.00 159.38 627.59 161.76 624.08 178.82 C 617.45 196.27 594.63 188.41 580.86 185.07 C 575.89 199.39 595.27 198.06 603.87 198.11 C 618.95 200.16 637.83 188.48 634.00 171.38 C 634.30 145.13 585.72 154.75 593.13 126.60 C 600.67 106.48 628.88 134.61 632.27 115.17 C 618.98 108.39 600.70 106.64 588.60 116.59 M 786.13 116.10 C 773.89 125.79 777.50 147.72 792.05 153.17 C 801.93 159.61 820.03 159.01 821.08 174.00 C 820.75 196.74 792.12 189.21 777.84 185.06 C 777.95 187.27 778.18 191.71 778.30 193.92 C 798.21 205.81 839.00 196.78 830.58 166.99 C 824.89 151.45 805.32 150.98 793.35 142.60 C 784.64 135.00 789.35 119.18 801.39 118.97 C 810.67 115.17 827.75 131.01 829.27 115.17 C 816.15 108.47 798.34 106.75 786.13 116.10 M 684.01 111.00 C 683.99 139.67 683.99 168.33 684.00 197.00 C 687.04 197.01 689.89 196.97 692.99 197.00 C 693.01 168.33 693.01 139.67 693.00 111.00 C 690.04 111.01 686.89 110.98 684.01 111.00 M 706.00 111.00 C 706.04 114.01 705.89 116.98 706.00 119.99 C 714.99 120.00 723.98 120.00 732.99 120.01 C 733.04 145.67 732.96 171.33 733.00 197.00 C 735.50 197.00 740.50 197.00 743.00 197.00 C 743.03 171.33 742.95 145.67 743.01 120.01 C 752.00 120.00 760.99 120.00 770.00 119.99 C 770.04 117.00 769.87 113.98 770.00 111.00 C 748.66 110.98 727.33 110.99 706.00 111.00 M 849.10 110.95 C 848.88 139.64 849.03 168.32 849.00 197.00 C 852.05 197.01 854.86 196.97 858.00 197.00 C 857.90 171.48 858.39 145.96 857.46 120.45 C 867.90 145.50 877.50 171.02 886.50 196.65 C 889.55 196.76 892.48 196.79 895.57 196.85 C 904.75 171.33 915.08 146.25 924.48 120.82 C 924.61 146.21 923.48 171.60 924.00 197.01 C 926.50 197.00 931.50 197.00 934.00 197.00 C 933.96 168.32 934.12 139.65 933.89 110.97 C 930.25 111.03 922.96 111.15 919.31 111.21 C 909.99 134.83 901.11 158.62 891.74 182.21 C 882.11 158.82 873.29 135.08 864.60 111.33 C 859.42 111.18 854.26 111.06 849.10 110.95 M 989.11 110.97 C 988.86 139.64 989.05 168.32 988.99 197.00 C 991.50 196.99 996.50 196.99 999.00 196.99 C 998.95 185.69 998.96 174.39 999.25 163.09 C 1010.11 162.70 1022.14 163.73 1031.84 157.85 C 1046.97 148.85 1047.71 121.51 1030.13 114.72 C 1017.01 110.13 1002.76 111.10 989.11 110.97 M 1185.28 118.36 C 1184.42 126.34 1181.55 134.04 1172.97 136.06 C 1172.98 137.36 1173.00 138.65 1173.04 139.95 C 1176.08 139.98 1178.79 139.99 1181.95 140.03 C 1182.72 156.83 1180.06 174.04 1184.00 190.53 C 1189.68 199.97 1201.75 198.02 1210.93 197.05 C 1210.85 194.42 1210.78 191.80 1210.71 189.18 C 1181.59 196.44 1192.65 156.24 1191.02 140.01 C 1197.34 139.99 1203.64 140.00 1209.99 139.99 C 1209.99 138.25 1209.99 134.76 1209.99 133.02 C 1204.00 132.99 1198.01 132.95 1192.06 132.92 C 1192.03 129.19 1191.96 121.73 1191.93 118.00 C 1190.27 118.09 1186.94 118.27 1185.28 118.36 M 145.41 128.02 C 132.96 135.47 141.74 154.54 138.44 166.60 C 154.34 178.97 177.81 175.06 196.38 171.60 C 205.15 160.63 201.87 142.90 198.78 130.31 C 182.54 122.46 162.82 126.27 145.41 128.02 M 246.70 126.34 C 239.01 133.83 230.89 140.88 222.53 147.61 C 233.89 161.26 248.25 179.95 269.04 172.43 C 259.24 164.58 249.74 156.36 239.82 148.68 C 248.51 141.16 257.18 133.54 266.73 127.10 C 260.11 125.92 253.38 126.09 246.70 126.34 M 272.01 126.00 C 271.97 142.00 271.97 158.00 272.01 174.00 C 275.76 174.00 283.25 174.00 286.99 174.00 C 287.03 158.00 287.02 142.00 286.99 126.00 C 283.24 126.00 275.75 126.00 272.01 126.00 M 315.47 127.04 C 306.82 142.24 298.16 157.51 290.00 173.01 C 295.53 172.99 301.07 172.97 306.61 172.95 C 307.92 170.39 309.29 167.86 310.51 165.26 C 320.62 167.03 340.59 157.99 342.45 172.95 C 348.33 172.94 354.22 172.91 360.12 172.87 C 352.46 156.86 342.23 142.24 334.52 126.26 C 328.24 126.39 321.21 124.56 315.47 127.04 M 66.12 127.00 C 65.95 142.33 65.94 157.66 66.01 172.99 C 69.76 173.00 77.26 173.00 81.01 173.00 C 80.95 161.62 80.97 150.24 81.06 138.87 C 89.99 148.05 97.34 158.56 105.14 168.67 C 111.14 177.66 124.08 171.21 132.81 173.00 C 133.15 157.66 133.00 142.32 132.99 126.99 C 128.33 127.01 123.65 127.04 118.99 127.09 C 119.21 138.13 119.06 149.18 118.44 160.21 C 109.27 149.37 100.89 137.90 91.78 127.01 C 83.22 126.96 74.67 126.97 66.12 127.00 M 207.02 127.00 C 206.97 142.33 206.97 157.67 207.01 173.00 C 211.67 173.00 216.32 172.99 220.98 173.00 C 221.03 157.66 221.03 142.33 220.99 127.00 C 216.33 127.00 211.67 127.00 207.02 127.00 M 1077.93 132.56 C 1055.91 136.99 1050.61 166.29 1060.10 183.93 C 1070.42 203.89 1104.49 202.74 1111.97 180.99 C 1124.48 158.64 1105.32 123.83 1077.93 132.56 M 1141.22 144.30 C 1140.55 140.60 1140.01 136.86 1139.71 133.11 C 1137.14 133.06 1134.58 133.02 1132.05 132.99 C 1131.92 154.33 1132.02 175.66 1131.99 197.00 C 1134.50 197.00 1139.51 196.99 1142.02 196.98 C 1144.95 179.81 1133.94 154.24 1152.15 142.97 C 1158.57 139.29 1172.73 144.16 1168.79 132.02 C 1157.39 129.57 1147.62 135.48 1141.22 144.30 M 1225.47 137.28 C 1226.63 139.59 1227.79 141.90 1228.92 144.23 C 1241.64 135.94 1265.15 139.02 1260.89 158.44 C 1249.23 159.40 1235.96 157.64 1225.87 164.82 C 1217.21 170.55 1217.09 183.62 1222.23 191.71 C 1232.76 201.78 1252.32 200.21 1260.56 187.73 C 1261.12 190.76 1261.58 193.78 1262.17 196.82 C 1264.73 196.91 1267.31 197.00 1269.91 197.08 C 1268.49 178.21 1273.48 158.16 1267.10 140.03 C 1257.73 126.58 1238.10 131.61 1225.47 137.28 Z"/>
    <path fill="#124191" opacity="1.00" d=" M 999.40 119.87 C 1007.83 120.52 1017.19 118.62 1024.93 122.95 C 1035.96 127.45 1035.28 145.06 1026.18 151.20 C 1018.00 155.60 1008.27 154.80 999.31 155.10 C 998.84 143.36 998.83 131.60 999.40 119.87 Z"/>
    <path fill="#124191" opacity="1.00" d=" M 153.04 138.02 C 163.87 138.20 174.74 137.36 185.55 138.01 C 191.79 143.32 186.36 153.87 188.17 160.93 C 176.52 162.26 164.78 162.23 153.08 161.99 C 153.02 154.00 152.97 146.01 153.04 138.02 Z"/>
    <path fill="#124191" opacity="1.00" d=" M 324.23 139.28 C 329.08 142.20 329.94 150.01 333.26 154.84 C 327.43 154.85 321.62 154.86 315.80 154.85 C 318.62 149.67 321.15 144.32 324.23 139.28 Z"/>
    <path fill="#124191" opacity="1.00" d=" M 1080.04 140.37 C 1103.72 134.15 1111.48 165.90 1100.91 181.84 C 1093.12 196.00 1067.57 191.11 1066.76 174.31 C 1064.69 162.69 1065.61 143.67 1080.04 140.37 Z"/>
    <path fill="#124191" opacity="1.00" d=" M 1233.11 170.14 C 1240.95 164.95 1250.89 165.97 1259.86 166.35 C 1263.62 179.61 1251.93 193.03 1238.26 190.05 C 1228.56 190.69 1225.11 174.85 1233.11 170.14 Z"/>
    <rect x="1305.243" y="-65.689" width="245.273" height="406.075" style="fill: #124191"/>
  </g>
  <g id="#ffffffff">
    <path fill="#ffffff" opacity="1.00" d=" M 1290.00 106.00 C 1292.50 106.00 1297.50 106.00 1300.00 106.00 C 1300.00 136.33 1300.00 166.67 1300.00 197.00 C 1297.50 197.00 1292.50 197.00 1290.00 197.00 C 1289.99 166.66 1289.99 136.33 1290.00 106.00 Z"/>
    <path fill="#ffffff" opacity="1.00" d=" M 499.92 130.92 C 511.90 108.52 542.79 104.87 564.09 115.10 C 562.99 118.07 561.98 121.07 561.03 124.09 C 546.33 118.15 527.95 115.94 515.23 127.18 C 501.26 141.10 501.15 167.18 514.65 181.35 C 525.55 192.58 542.10 188.54 555.96 187.94 C 556.01 178.97 556.01 170.01 556.00 161.04 C 549.65 161.02 543.33 161.00 537.00 160.98 C 536.92 157.96 537.04 155.01 537.00 152.00 C 546.66 151.97 556.32 151.97 565.99 152.02 C 566.01 166.02 565.97 180.02 566.12 194.02 C 551.85 197.02 536.86 199.47 522.39 196.77 C 494.73 189.60 488.71 153.67 499.92 130.92 Z"/>
    <path fill="#ffffff" opacity="1.00" d=" M 588.60 116.59 C 600.70 106.64 618.98 108.39 632.27 115.17 C 628.88 134.61 600.67 106.48 593.13 126.60 C 585.72 154.75 634.30 145.13 634.00 171.38 C 637.83 188.48 618.95 200.16 603.87 198.11 C 595.27 198.06 575.89 199.39 580.86 185.07 C 594.63 188.41 617.45 196.27 624.08 178.82 C 627.59 161.76 608.00 159.38 596.97 154.21 C 581.59 149.50 576.16 127.19 588.60 116.59 Z"/>
    <path fill="#ffffff" opacity="1.00" d=" M 786.13 116.10 C 798.34 106.75 816.15 108.47 829.27 115.17 C 827.75 131.01 810.67 115.17 801.39 118.97 C 789.35 119.18 784.64 135.00 793.35 142.60 C 805.32 150.98 824.89 151.45 830.58 166.99 C 839.00 196.78 798.21 205.81 778.30 193.92 C 778.18 191.71 777.95 187.27 777.84 185.06 C 792.12 189.21 820.75 196.74 821.08 174.00 C 820.03 159.01 801.93 159.61 792.05 153.17 C 777.50 147.72 773.89 125.79 786.13 116.10 Z"/>
    <path fill="#ffffff" opacity="1.00" d=" M 684.01 111.00 C 686.89 110.98 690.04 111.01 693.00 111.00 C 693.01 139.67 693.01 168.33 692.99 197.00 C 689.89 196.97 687.04 197.01 684.00 197.00 C 683.99 168.33 683.99 139.67 684.01 111.00 Z"/>
    <path fill="#ffffff" opacity="1.00" d=" M 706.00 111.00 C 727.33 110.99 748.66 110.98 770.00 111.00 C 769.87 113.98 770.04 117.00 770.00 119.99 C 760.99 120.00 752.00 120.00 743.01 120.01 C 742.95 145.67 743.03 171.33 743.00 197.00 C 740.50 197.00 735.50 197.00 733.00 197.00 C 732.96 171.33 733.04 145.67 732.99 120.01 C 723.98 120.00 714.99 120.00 706.00 119.99 C 705.89 116.98 706.04 114.01 706.00 111.00 Z"/>
    <path fill="#ffffff" opacity="1.00" d=" M 849.10 110.95 C 854.26 111.06 859.42 111.18 864.60 111.33 C 873.29 135.08 882.11 158.82 891.74 182.21 C 901.11 158.62 909.99 134.83 919.31 111.21 C 922.96 111.15 930.25 111.03 933.89 110.97 C 934.12 139.65 933.96 168.32 934.00 197.00 C 931.50 197.00 926.50 197.00 924.00 197.01 C 923.48 171.60 924.61 146.21 924.48 120.82 C 915.08 146.25 904.75 171.33 895.57 196.85 C 892.48 196.79 889.55 196.76 886.50 196.65 C 877.50 171.02 867.90 145.50 857.46 120.45 C 858.39 145.96 857.90 171.48 858.00 197.00 C 854.86 196.97 852.05 197.01 849.00 197.00 C 849.03 168.32 848.88 139.64 849.10 110.95 Z"/>
    <path fill="#ffffff" opacity="1.00" d=" M 989.11 110.97 C 1002.76 111.10 1017.01 110.13 1030.13 114.72 C 1047.71 121.51 1046.97 148.85 1031.84 157.85 C 1022.14 163.73 1010.11 162.70 999.25 163.09 C 998.96 174.39 998.95 185.69 999.00 196.99 C 996.50 196.99 991.50 196.99 988.99 197.00 C 989.05 168.32 988.86 139.64 989.11 110.97 M 999.40 119.87 C 998.83 131.60 998.84 143.36 999.31 155.10 C 1008.27 154.80 1018.00 155.60 1026.18 151.20 C 1035.28 145.06 1035.96 127.45 1024.93 122.95 C 1017.19 118.62 1007.83 120.52 999.40 119.87 Z"/>
    <path fill="#ffffff" opacity="1.00" d=" M 1185.28 118.36 C 1186.94 118.27 1190.27 118.09 1191.93 118.00 C 1191.96 121.73 1192.03 129.19 1192.06 132.92 C 1198.01 132.95 1204.00 132.99 1209.99 133.02 C 1209.99 134.76 1209.99 138.25 1209.99 139.99 C 1203.64 140.00 1197.34 139.99 1191.02 140.01 C 1192.65 156.24 1181.59 196.44 1210.71 189.18 C 1210.78 191.80 1210.85 194.42 1210.93 197.05 C 1201.75 198.02 1189.68 199.97 1184.00 190.53 C 1180.06 174.04 1182.72 156.83 1181.95 140.03 C 1178.79 139.99 1176.08 139.98 1173.04 139.95 C 1173.00 138.65 1172.98 137.36 1172.97 136.06 C 1181.55 134.04 1184.42 126.34 1185.28 118.36 Z"/>
    <path fill="#ffffff" opacity="1.00" d=" M 145.41 128.02 C 162.82 126.27 182.54 122.46 198.78 130.31 C 201.87 142.90 205.15 160.63 196.38 171.60 C 177.81 175.06 154.34 178.97 138.44 166.60 C 141.74 154.54 132.96 135.47 145.41 128.02 M 153.04 138.02 C 152.97 146.01 153.02 154.00 153.08 161.99 C 164.78 162.23 176.52 162.26 188.17 160.93 C 186.36 153.87 191.79 143.32 185.55 138.01 C 174.74 137.36 163.87 138.20 153.04 138.02 Z"/>
    <path fill="#ffffff" opacity="1.00" d=" M 246.70 126.34 C 253.38 126.09 260.11 125.92 266.73 127.10 C 257.18 133.54 248.51 141.16 239.82 148.68 C 249.74 156.36 259.24 164.58 269.04 172.43 C 248.25 179.95 233.89 161.26 222.53 147.61 C 230.89 140.88 239.01 133.83 246.70 126.34 Z"/>
    <path fill="#ffffff" opacity="1.00" d=" M 272.01 126.00 C 275.75 126.00 283.24 126.00 286.99 126.00 C 287.02 142.00 287.03 158.00 286.99 174.00 C 283.25 174.00 275.76 174.00 272.01 174.00 C 271.97 158.00 271.97 142.00 272.01 126.00 Z"/>
    <path fill="#ffffff" opacity="1.00" d=" M 315.47 127.04 C 321.21 124.56 328.24 126.39 334.52 126.26 C 342.23 142.24 352.46 156.86 360.12 172.87 C 354.22 172.91 348.33 172.94 342.45 172.95 C 340.59 157.99 320.62 167.03 310.51 165.26 C 309.29 167.86 307.92 170.39 306.61 172.95 C 301.07 172.97 295.53 172.99 290.00 173.01 C 298.16 157.51 306.82 142.24 315.47 127.04 M 324.23 139.28 C 321.15 144.32 318.62 149.67 315.80 154.85 C 321.62 154.86 327.43 154.85 333.26 154.84 C 329.94 150.01 329.08 142.20 324.23 139.28 Z"/>
    <path fill="#ffffff" opacity="1.00" d=" M 66.12 127.00 C 74.67 126.97 83.22 126.96 91.78 127.01 C 100.89 137.90 109.27 149.37 118.44 160.21 C 119.06 149.18 119.21 138.13 118.99 127.09 C 123.65 127.04 128.33 127.01 132.99 126.99 C 133.00 142.32 133.15 157.66 132.81 173.00 C 124.08 171.21 111.14 177.66 105.14 168.67 C 97.34 158.56 89.99 148.05 81.06 138.87 C 80.97 150.24 80.95 161.62 81.01 173.00 C 77.26 173.00 69.76 173.00 66.01 172.99 C 65.94 157.66 65.95 142.33 66.12 127.00 Z"/>
    <path fill="#ffffff" opacity="1.00" d=" M 207.02 127.00 C 211.67 127.00 216.33 127.00 220.99 127.00 C 221.03 142.33 221.03 157.66 220.98 173.00 C 216.32 172.99 211.67 173.00 207.01 173.00 C 206.97 157.67 206.97 142.33 207.02 127.00 Z"/>
    <path fill="#ffffff" opacity="1.00" d=" M 1077.93 132.56 C 1105.32 123.83 1124.48 158.64 1111.97 180.99 C 1104.49 202.74 1070.42 203.89 1060.10 183.93 C 1050.61 166.29 1055.91 136.99 1077.93 132.56 M 1080.04 140.37 C 1065.61 143.67 1064.69 162.69 1066.76 174.31 C 1067.57 191.11 1093.12 196.00 1100.91 181.84 C 1111.48 165.90 1103.72 134.15 1080.04 140.37 Z"/>
    <path fill="#ffffff" opacity="1.00" d=" M 1141.22 144.30 C 1147.62 135.48 1157.39 129.57 1168.79 132.02 C 1172.73 144.16 1158.57 139.29 1152.15 142.97 C 1133.94 154.24 1144.95 179.81 1142.02 196.98 C 1139.51 196.99 1134.50 197.00 1131.99 197.00 C 1132.02 175.66 1131.92 154.33 1132.05 132.99 C 1134.58 133.02 1137.14 133.06 1139.71 133.11 C 1140.01 136.86 1140.55 140.60 1141.22 144.30 Z"/>
    <path fill="#ffffff" opacity="1.00" d=" M 1225.47 137.28 C 1238.10 131.61 1257.73 126.58 1267.10 140.03 C 1273.48 158.16 1268.49 178.21 1269.91 197.08 C 1267.31 197.00 1264.73 196.91 1262.17 196.82 C 1261.58 193.78 1261.12 190.76 1260.56 187.73 C 1252.32 200.21 1232.76 201.78 1222.23 191.71 C 1217.09 183.62 1217.21 170.55 1225.87 164.82 C 1235.96 157.64 1249.23 159.40 1260.89 158.44 C 1265.15 139.02 1241.64 135.94 1228.92 144.23 C 1227.79 141.90 1226.63 139.59 1225.47 137.28 M 1233.11 170.14 C 1225.11 174.85 1228.56 190.69 1238.26 190.05 C 1251.93 193.03 1263.62 179.61 1259.86 166.35 C 1250.89 165.97 1240.95 164.95 1233.11 170.14 Z"/>
  </g>
</svg>