<?xml version="1.0" encoding="iso-8859-1" standalone="yes"?><!-- Generator: Adobe Illustrator 19.0.0, SVG Export Plug-In . SVG Version: 6.00 Build 0)  --><svg xmlns="http://www.w3.org/2000/svg" xmlns:xlink="http://www.w3.org/1999/xlink" version="1.1" id="Layer_1" x="0px" y="0px" viewBox="0 0 1350 512.002" style="enable-background:new 0 0 512.002 512.002;zoom: 1;" xml:space="preserve" font-family="MADEDillan" font-size="25px" text-anchor="middle"><defs id="svg_document_defs"></defs><rect x="68.162003px" style="fill:#ECEDEF;" height="373.138" y="67.350998px" width="373.138" transform="matrix(-0.9151 0.4033 -0.4033 -0.9151 590.2317 383.5443)"></rect>foo







        
        


        
        






































<polygon style="fill:#D9DCDF;" points="84.054,125.244 42.926,235.936 133.577,441.596 219.238,473.423 434.955,378.34 470.863,281.697 386.673,90.696 264.999,45.487"></polygon><rect x="68.323997px" style="fill:#D8ED8C;" height="373.133" y="77.643997px" width="373.133" transform="matrix(-0.9374 -0.3483 0.3483 -0.9374 401.7976 600.6539)"></rect><polygon style="fill:#ECEDEF;" points="240.422,295.997 186.454,325.979 216.437,272.011 306.382,182.065 330.368,206.051"></polygon><polygon style="fill:#D9DCDF;" points="330.368,206.051 319.351,195.036 190.849,323.538 240.422,295.997"></polygon><polygon style="fill:#509FE8;" points="390.331,230.036 282.397,122.102 420.314,32.156 480.277,92.121" visibility="visible"></polygon><g visibility="visible"><polygon style="fill:#4D8CCF;" points="420.314,32.156 387.617,53.48 458.954,124.816 480.277,92.121" visibility="visible"></polygon><polygon style="fill:#4D8CCF;" points="282.397,122.102 390.331,230.036 412.508,196.032 316.401,99.925"></polygon></g><g><path style="fill:#509FE8;" d="M474.28,98.116l-59.964-59.964c-6.623-6.623-6.623-17.362,0-23.985l0,0 c6.623-6.623,17.362-6.623,23.985,0l59.964,59.964c6.623,6.623,6.623,17.362,0,23.985l0,0 C491.642,104.74,480.905,104.74,474.28,98.116z"></path><path style="fill:#509FE8;" d="M390.331,266.015 L246.419,122.102 l11.993,-11.993 c6.623,-6.623 17.362,-6.623 23.985,0 l119.927,119.927 c6.623,6.623 6.623,17.362 0,23.985 L390.331,266.015"></path></g><path d="M493.918,314.291 c-1.77,-4.017 -6.464,-5.838 -10.481,-4.068 c-4.019,1.771 -5.84,6.464 -4.068,10.483 l10.84,24.591 l-69.288,30.54 l37.849,-101.866 l5.648,12.812 c1.839,4.172 6.986,5.953 11.016,3.809 c3.626,-1.929 5.19,-6.467 3.534,-10.223 l-12.25,-27.789 l35.488,-95.513 c1.53,-4.116 -0.567,-8.692 -4.683,-10.222 l-34.971,-12.994 l15.732,-24.121 c2.594,0.883 5.292,1.329 7.988,1.329 c6.394,0 12.762,-2.467 17.616,-7.322 c9.713,-9.713 9.713,-25.516 0,-35.229 L443.924,8.545 c-9.713,-9.712 -25.515,-9.711 -35.229,0 c-6.902,6.902 -8.96,16.856 -5.985,25.599 l-25.068,16.349 L357.468,4.726 c-1.746,-3.958 -6.514,-5.814 -10.481,-4.068 L235.882,49.632 l-88.124,-32.743 c-4.063,-1.508 -8.714,0.629 -10.222,4.683 l-31.728,85.394 L5.557,151.155 c-3.958,1.745 -5.816,6.516 -4.068,10.483 l45.583,103.413 L7.58,371.336 c-1.509,4.062 0.629,8.715 4.683,10.222 l38.749,14.397 c4.231,1.573 9.027,-0.807 10.364,-5.106 c1.237,-3.975 -0.928,-8.351 -4.825,-9.799 l-31.297,-11.628 L149.673,34.563 l160.791,59.744 l-19.748,12.879 l-2.698,-2.698 c-9.713,-9.712 -25.516,-9.711 -35.229,0 l-11.993,11.992 c-3.061,3.062 -3.061,8.182 0,11.244 l54.342,54.342 l-84.324,84.324 c-0.523,0.523 -0.97,1.115 -1.328,1.761 l-29.982,53.968 c-1.621,2.917 -1.213,6.635 1,9.132 c2.443,2.757 6.587,3.47 9.81,1.679 l53.968,-29.982 c0.646,-0.359 1.238,-0.807 1.761,-1.328 l36.687,-36.686 l86.59,32.173 c4.231,1.573 9.027,-0.807 10.364,-5.106 c1.237,-3.975 -0.927,-8.351 -4.825,-9.799 l-79.76,-29.635 l35.27,-35.27 l54.342,54.342 c3.06,3.06 8.183,3.061 11.243,-0.001 l11.993,-11.992 c9.713,-9.713 9.713,-25.516 0,-35.229 l-2.698,-2.697 l48.399,-74.212 l30.885,11.476 L360.113,493.84 L90.474,393.655 c-4.117,-1.532 -8.692,0.567 -10.222,4.683 s0.567,8.692 4.683,10.222 l30.364,11.283 l36.685,83.227 c1.745,3.958 6.515,5.815 10.481,4.068 l85.888,-37.858 l113.674,42.235 c4.063,1.51 8.713,-0.623 10.222,-4.683 l40.951,-110.214 l90.696,-39.977 c3.958,-1.745 5.816,-6.516 4.068,-10.483 L493.918,314.291 M98.088,127.747 L55.019,243.661 l-35.775,-81.161 L98.088,127.747 M419.939,19.789 c3.512,-3.512 9.23,-3.514 12.742,0 l59.964,59.963 c3.513,3.512 3.513,9.229 0,12.743 c-3.273,3.274 -8.446,3.548 -12.033,0.637 c-0.253,-0.206 -61.102,-61.055 -61.309,-61.309 C416.391,28.236 416.664,23.063 419.939,19.789 M364.145,59.296 l-37.111,24.203 l-69.76,-25.921 l88.852,-39.166 L364.145,59.296 M275.094,250.08 l-39.507,39.508 l-28.67,15.928 l15.928,-28.671 l83.537,-83.536 l12.742,12.742 L275.094,250.08 M396.703,248.4 l-6.372,6.372 l-132.669,-132.67 l6.371,-6.371 c3.513,-3.513 9.23,-3.513 12.742,0 l68.192,68.192 c3.233,3.232 8.693,3.016 11.665,-0.456 c2.665,-3.112 2.472,-7.893 -0.423,-10.788 l-54.005,-54.005 l109.788,-71.601 l53.366,53.366 l-71.602,109.789 l-12.106,-12.106 c-3.105,-3.104 -8.139,-3.104 -11.243,0 c-3.105,3.106 -3.105,8.139 0,11.244 l26.294,26.294 C400.216,239.171 400.216,244.887 396.703,248.4 M136.08,427.563 l90.883,33.768 l-63.635,28.049 L136.08,427.563 " visibility="visible"></path><path d="M271.493,188.384 c4.231,1.573 9.027,-0.807 10.364,-5.106 c1.237,-3.975 -0.928,-8.351 -4.825,-9.799 l-101.123,-37.571 c-4.116,-1.531 -8.692,0.568 -10.222,4.683 c-1.53,4.116 0.567,8.692 4.683,10.222 L271.493,188.384 "></path><path d="M142.06,204.184 c-1.53,4.116 0.567,8.692 4.683,10.222 l55.645,20.675 c4.231,1.573 9.027,-0.807 10.364,-5.106 c1.237,-3.975 -0.928,-8.351 -4.825,-9.799 l-55.645,-20.675 C148.164,197.971 143.589,200.069 142.06,204.184 "></path><path d="M118.431,267.778 c-1.53,4.116 0.567,8.692 4.683,10.222 l55.104,20.473 c4.231,1.573 9.027,-0.807 10.364,-5.106 c1.237,-3.975 -0.928,-8.351 -4.825,-9.799 l-55.104,-20.473 C124.536,261.564 119.96,263.663 118.431,267.778 "></path><path d="M94.802,331.371 c-1.53,4.116 0.567,8.692 4.683,10.222 l222.578,82.701 c4.231,1.573 9.027,-0.807 10.364,-5.106 c1.237,-3.975 -0.928,-8.351 -4.825,-9.799 l-222.578,-82.701 C100.907,325.157 96.332,327.255 94.802,331.371 "></path><path d="M290.047,340.024 c4.231,1.573 9.027,-0.807 10.364,-5.106 c1.237,-3.975 -0.927,-8.351 -4.825,-9.799 l-23.848,-8.861 c-4.117,-1.532 -8.692,0.567 -10.222,4.683 s0.567,8.692 4.683,10.222 L290.047,340.024 "></path><path d="M345.692,360.699 c4.231,1.573 9.027,-0.807 10.364,-5.106 c1.237,-3.975 -0.927,-8.351 -4.825,-9.799 l-31.797,-11.815 c-4.118,-1.531 -8.692,0.567 -10.222,4.683 c-1.53,4.116 0.567,8.692 4.683,10.222 L345.692,360.699 "></path><g id="textToPathGroup"><path stroke="none" stroke-width="1" id="textToPath-0" d="M584.5,232.800003 C584.200012,227.5 580.799988,225 573,225 C572.5,225 547,225 546.5,225 C538.799988,225 535.200012,227.5 535,232.800003 C534.5,237.199997 536.5,240.199997 543,249.199997 C547.5,255.800003 548,264 548,281.200012 L548,346.200012 C524,306.5 486,243.5 481.799988,236.800003 C475.799988,226.800003 473,225 461,225 C456.799988,225 419,225 419,225 C411.5,225.199997 408,227.5 407.799988,232.800003 C407.200012,237.199997 409.200012,240.199997 415.799988,249.199997 C420.200012,255.800003 420.5,264 420.5,281.200012 L420.799988,281.200012 L420.799988,343.799988 C420.799988,361.200012 420.200012,369.5 415.799988,375.799988 C409.200012,384.799988 407.200012,388 407.799988,392.5 C408,397.5 411.5,400 419.200012,400 C419.799988,400 445.200012,400 445.799988,400 C453.5,400 457,397.5 457.200012,392.5 C457.799988,388 455.799988,384.799988 449.200012,375.799988 C444.799988,369.5 444.200012,361.200012 444.200012,343.799988 L444.200012,266.200012 C472,311.200012 513.200012,378.5 518.5,387.200012 C525.5,399 530.200012,400 542,400 C542,400 554.799988,400 559.799988,400 C568,400 571.5,393.5 571.5,386.200012 C571.5,382 571.5,326 571.5,281.200012 C571.5,264 572,255.800003 576.5,249.199997 C583,240.199997 584.799988,237.199997 584.5,232.800003 M663,275.5 C621.200012,275.5 594.799988,299.799988 594.799988,338.799988 C594.799988,377.799988 621.200012,402.200012 663,402.200012 C704.5,402.200012 731,377.799988 731,338.799988 C731,299.799988 704.5,275.5 663,275.5 M663,378.5 C648.5,378.5 641.200012,361.5 641.200012,338.799988 C641.200012,316 648.5,299.200012 663,299.200012 C677.200012,299.200012 684.5,316 684.5,338.799988 C684.5,361.5 677.200012,378.5 663,378.5 M831.200012,369.200012 C828.5,366 824,366.5 819.799988,368.799988 C808,375.200012 797.200012,371.799988 797.200012,358.200012 C797.200012,358.200012 797.200012,313.799988 797.200012,299.200012 L818,299.200012 C823.200012,299.200012 827.799988,295 827.799988,289.5 L827.799988,287.200012 C827.799988,282 823.200012,277.5 818,277.5 L797.200012,277.5 C797.200012,268.5 797.200012,261.200012 797.200012,259 C797.200012,251.199997 795.5,247.199997 787.200012,247.199997 C786.200012,247.199997 780.799988,247.199997 777.200012,247.199997 C759.799988,247.199997 770.200012,277.5 748.200012,277.5 L743.200012,277.5 C737.799988,277.5 733.5,282 733.5,287.200012 L733.5,289.5 C733.5,295 737.799988,299.200012 743.200012,299.200012 L751.799988,299.200012 C751.799988,311 751.799988,341.5 751.799988,360 C751.799988,392.5 772.799988,402.200012 792.5,402.200012 C820.200012,402.200012 839.799988,379.200012 831.200012,369.200012 M956,363 C935.799988,382.799988 894,377.799988 888,345.799988 C888,345.799988 937.5,345.799988 949.799988,345.799988 C965.799988,345.799988 968.799988,339.200012 967,322.5 C965,302 947.5,276.5 910.799988,275.5 C873.200012,274 840,297.5 841.200012,340.5 C842.799988,382.5 877.200012,402.200012 912,402.200012 C941.5,402.200012 958.5,387.799988 966,370.799988 C970.200012,361.5 963.200012,356 956,363 M907,295.799988 C921,294.5 925.200012,304.799988 927,312 C929,319.5 926.200012,323.799988 920.200012,323.799988 C915.799988,323.799988 897,323.799988 891,323.799988 C888.799988,323.799988 887.5,321.200012 888.200012,318.5 C890.5,308 895.799988,296.5 907,295.799988 M1046.800049,321.5 C1027.800049,314 1019.799988,309.200012 1021,302.5 C1022.200012,296 1029.199951,294.200012 1036.199951,295 C1052.5,296 1051.5,307.200012 1056.199951,315.5 C1062,325.200012 1076,325 1081.800049,318.5 C1093.800049,304.200012 1080.5,277.799988 1040.199951,275.5 C1016.5,274.200012 992.200012,278.200012 984.799988,300.5 C974,333.200012 1002,346.799988 1020,354.799988 C1039,363 1055.199951,365.799988 1053,375.200012 C1051.199951,383 1039.5,383.200012 1032,382.200012 C1022.200012,380.799988 1012.200012,379.5 1006.799988,362.799988 C1002.200012,349.200012 987.5,348.200012 980,356.200012 C964.799988,372.799988 984.799988,402.200012 1037,402.200012 C1064.800049,402.200012 1087.5,393.5 1093,371.799988 C1100.800049,340.799988 1077,333.799988 1046.800049,321.5 " fill="black" transform="translate(250 -50)"></path></g></svg>