<svg width="756" height="144" viewBox="0 0 567 108" xmlns="http://www.w3.org/2000/svg"><path fill="#0364b8" d="M59.22 10.25c11.87-5.9 26.23-6.88 38.66-2.14 15.04 5.12 26.48 18.45 30.56 33.65-12.45-.57-23.05 6.79-34.39 10.68-10.23-6.29-20.57-12.42-30.84-18.65-6.79-4.18-14.63-6.99-22.69-6.77 4.58-7.14 11.24-12.81 18.7-16.77z"/><path fill="#0078d4" d="M25.34 30.41c4.69-2.39 9.99-3.09 15.18-3.39 8.06-.22 15.9 2.59 22.69 6.77 10.27 6.23 20.61 12.36 30.84 18.65l.26.15C65.79 64.28 37.46 76.42 9 88.25c-5.29-7.61-7.8-17.14-6.75-26.36 1.46-13.53 10.29-26.4 23.09-31.48z"/><path d="M470.08 28.04c2.18-.45 4.59.89 5.39 2.97a14.8 14.8 0 0 1-.15 3.82c-1.61 3.12-6.74 3.29-8.36.11-1.27-2.7.08-6.22 3.12-6.9zm-227.61 2.53c3.4-.95 6.98-.84 10.48-.76 7.7.31 15.15 4.32 19.48 10.73 2.42 3.81 4.18 8.09 4.8 12.58 1.21 10.07.02 21.3-6.9 29.21-8.02 9.09-22.02 10.64-32.88 6.28-9-3.8-14.46-13.16-15.47-22.61-.52-7.09-.26-14.54 2.96-21.03 3.03-7.28 9.83-12.81 17.53-14.4m4.04 6.01c-5.67.86-10.66 4.53-13.59 9.4-3.99 6.89-4.63 15.41-2.52 23.02 1.19 3.88 3.08 7.66 6.21 10.34 6.23 6.09 16.58 6.37 23.87 2.09 6.84-4.27 9.78-12.65 9.64-20.41.22-6.13-1.13-12.48-4.73-17.53-4.31-5.68-11.97-8.18-18.88-6.91zm133.73-5.77c7.24-.03 14.49-.15 21.74.09 7.7.6 15.84 3.24 20.76 9.54 2.5 3.69 4.24 7.94 4.79 12.38 1.12 7.76.54 16.18-3.58 23.04-2.78 5.1-7.59 8.91-12.82 11.3-9.75 4.06-20.5 2.61-30.77 2.79-.12-19.71.12-39.43-.12-59.14m7.18 52.26c8.22.49 17.51.94 24.46-4.29 6.31-4.26 8.84-12.36 8.55-19.67.14-7.03-2.64-14.8-9.08-18.37-7.1-4.33-15.76-3.36-23.7-3.54-.42 15.28.03 30.58-.23 45.87zm-88.69-33.35c3.41-2.69 7.94-3.49 12.18-3.04 3.9.16 7.72 2.33 9.65 5.75 1.8 3.21 2.53 6.92 2.53 10.57-.02 8.99-.02 17.97-.01 26.96-2.33.04-4.66.05-6.98.02-.07-8.66.12-17.32-.09-25.98.03-4.55-2.12-10.01-7.01-11.11-6.8-2.05-13.53 4.39-13.88 11.02-.12 8.67 0 17.36-.05 26.04-2.33.05-4.66.06-6.98.05-.01-14.14.05-28.27-.04-42.4 2.35 0 4.69 0 7.04.01l-.06 6.14c1.19-1.38 2.33-2.82 3.7-4.03zm36.1 7.97c2.73-6.31 9.18-11.08 16.18-11.08 4.93-.34 10.27.93 13.63 4.79 4.74 5.11 5.05 12.55 4.87 19.14-9.87-.02-19.75-.03-29.62.01.11 4.06 1.33 8.41 4.5 11.16 2.87 2.59 6.93 3.46 10.71 3.14 4.19-.35 7.98-2.45 11.4-4.78-.02 2.32-.02 4.64.03 6.96-6.93 4.32-16.03 5.2-23.62 2.13-5.97-2.62-9.28-8.97-10.02-15.2-.61-5.45-.48-11.23 1.94-16.27m5.25 6.83c7.3.14 14.61-.04 21.91.11 1.07-5.53-3.18-11.69-8.95-12.05-6.73-.74-12.42 5.56-12.96 11.94zm111.09-16.44c2.72-1.89 6.14-1.14 9.23-1.07.11 2.58.1 5.15.07 7.72-2.39-.99-5.19-2.26-7.73-1.01-5.08 2.24-7.41 7.97-7.5 13.23-.03 7.68.04 15.37-.02 23.05-2.3 0-4.59 0-6.87-.02-.06-14.13.06-28.26-.06-42.39 2.31.01 4.63.01 6.96 0-.03 2.5-.06 5.01.09 7.52 1.47-2.7 2.81-5.76 5.83-7.03zm87.33-.74c6.4-1.66 14.26-.94 18.79 4.4 4.25 5.23 4.72 12.33 4.49 18.79-9.88.02-19.76-.05-29.64.03-.07 5.67 2.96 11.85 8.71 13.56 6.23 2.21 12.9-.37 17.95-4.12-.02 2.31-.04 4.61.07 6.92-7.11 4.61-16.76 5.39-24.49 1.88-7.45-3.9-9.89-12.95-9.58-20.8-.1-8.76 4.97-18.03 13.7-20.66m0 6.95c-3.49 2.19-5.44 6.02-6.34 9.93 4.89.79 9.9.14 14.84.35 2.55-.18 5.27.51 7.71-.51-.45-2.57-.82-5.25-2.36-7.43-2.98-4.37-9.59-5.42-13.85-2.34zm-70.92-6.72c2.3.03 4.62.03 6.93.02-.09 14.14.06 28.27-.07 42.4-2.28.01-4.54.01-6.81.01-.07-14.14.04-28.29-.05-42.43zm13.82.04c2.59-.02 5.18 0 7.77-.04 3.93 11.57 8.4 22.98 11.87 34.7 4.06-11.59 8.37-23.13 12.52-34.71 2.54.04 5.09.04 7.64.08-5.68 13.92-11.11 27.95-16.75 41.89-2.05 1.08-4.78.21-7.08.44-5.29-14.13-10.77-28.2-15.97-42.36z" fill="#212121"/><path fill="#1490df" d="M94.05 52.44c11.34-3.89 21.94-11.25 34.39-10.68 7.24.35 14.01 3.7 19.41 8.41 10.38 9.38 13.12 25.79 6.39 38.06-20.02-11.8-39.92-23.81-59.93-35.64l-.26-.15z"/><path fill="#28a8ea" d="M9 88.25c28.46-11.83 56.79-23.97 85.31-35.66 20.01 11.83 39.91 23.84 59.93 35.64-3.46 6.29-9.01 11.5-15.73 14.12-5.49 2.39-11.61 2.76-17.52 2.66-26.67-.03-53.34.01-80.02-.02-12.56 0-24.82-6.4-31.97-16.74z"/></svg>