<svg xmlns="http://www.w3.org/2000/svg" width="545pt" height="178pt" viewBox="0 0 545 178" style="zoom:1"><g fill="#03a7e1"><path d="M109.55 7.57c4.28-.93 9.38-1.63 12.61 2.16.42 2.03.86 4.06 1.29 6.08-.54 1.62-1.46 3.08-2.06 4.57-1.2.66-2.54 1.03-3.65 1.98l-5.68.09c-6.29-.41-5.86-6.39-5.61-12.01 1.32-.19 2.34-1.84 3.1-2.87zM224.38 44.98c5.31-14.3 21.79-18.07 36.18-14.56.07 1.17 1.5 2.57 3.01 2.05.6 2.31 4.39 2.88 4.03 5.68 2.36 1.85 1.52 6.29 3.1 8.88-2.05.94-1.34 3.73-1.2 5.56-1.16-.07-2.04 2.7-1.98 3.97-.85.93-3.17.44-2.89 1.95-3.03.08-5.86 1.8-8.6 2.97-6.31.1-12.69.06-18.69-1.01-2.36 2.36.8 6.61 2.09 9.13.25.49.75 1.46 1 1.94 4.94 3.13 12.35 1.46 18.59 2.02 2.16-1.31 4.49-2.35 7.07-1.89 2.34 2.69 1.2 6.72.29 9.69-12.6 5.06-29.45 4.83-38.86-4.85-.25-.52-.76-1.56-1.01-2.08-.33-.88-.61-1.76-.85-2.66-3.41-8.04-2.31-18.69-1.28-26.79m15.2.14c-2.19 1.07-.51 4.92-1.06 7.15 3.63-.66 8.9 1.84 11.43-1.01 4.53 1.36 5.54-4.06 5.45-7.4-1.42-.7-2.75-1.99-3.35-3.47-5.29-.05-10.99-.01-12.47 4.73zM21.37 34.7c6.8-7.54 23.69-7.46 29.12 1.84 8.09 6.34 5.85 19.58 5.91 29.5-2.43 7.19-7.13 13.89-14.37 17.43-8.3.47-15.18.23-20.01-4.29-.39.31-1.15.92-1.54 1.23.26 7.63.12 15.3-.12 22.95-4.74-.69-11.21 2.05-14.67-1.32.06-22.69-.01-45.37.05-68.06.61-5.09 6.63-2.84 10.31-3.3 1.25 1.04 2.64 1.63 3 3.46.77.19 1.55.37 2.32.56m-.8 9.46c.02 8.87.01 17.75.04 26.63.83.55 1.76.96 2.35 1.8 4.19-.29 8.43.13 12.64.05 5.62-3.2 6.05-10.98 6.88-17.58-1.59-2.12-.64-5.07-1.09-7.57-1.29-1.7-2.3-4.07-4.17-5.71-5.32-2.01-12.81-2.07-16.65 2.38zM91.78 30.48c2.88 0 5.77.01 8.66.02.1 4.36.14 8.72.18 13.09-5.06-.19-9.9.31-14.83 1.04-.66.78-1.58 1.18-2.75 1.21-3.03 11.98-.37 25.16-1.48 37.61-4.48-.03-8.95-.02-13.43.01l.36-.58c-2.64-15.43-.83-34.65-1.02-51.49 3.74-1.19 8.19-.88 11.98-.09.38 1.77.78 3.54 1.16 5.3.91-.01 1.83-.03 2.74-.04.56-1.74 2.63-2.3 4.01-3.25.62-2.26 3.48-1.15 4.42-2.83zM150.65 34.65c7.47-6.15 22.66-8.14 27.95-.07 1.27 0 2.53-.01 3.8 0 9.05-7.42 28.53-8.09 31.95 5.38.12 14.01.2 28.02-.01 42.02-3.74 2.29-8.24.96-12.36 1.3-.59-.31-1.76-.94-2.35-1.26-.22-12.53-.06-25.06-.15-37.59-1.58-.83-2.64-2.85-4.42-3.78-3.3-.16-6.89.03-9.52 1.79-.76.05-2.28.15-3.03.21-.98 13.19 1.01 26.86-1.14 39.74-4.37 1.68-9.57.95-13.96.22-.69-12.9 1.06-26.07-1.07-38.75-3.79-6.28-12.25-1.78-16.84-.72-.01 12.99.04 25.99-.07 38.99-4.48 1.97-9.68 1.24-14.17.5-1.49-16.3-.3-33.88-.61-50.67 3.64-1.7 8.26-2.18 11.85-.16.3.86.67 1.75 1.12 2.67l3.03.18zM107.46 31.92c3.55-2.77 9.08-.62 13.52-1.23.32.57.97 1.72 1.3 2.29.06 16.02.05 32.05.04 48.07-3.48 3.33-9.91.63-14.66 1.29-.51-16.8-.14-33.61-.2-50.42zM362.49 115.59c6.75-4.36 15-6.99 22.46-8.94 6.03-.13 12.06-.15 18.08-.07.86.87 2.02 1.32 3.04 1.97 1.27-.31 4.08-.68 4.32 1.03 1.04.11 2.07.57 3.09 1.37.87 11.85-1.07 23.98-6.9 33.99-.16 1.18-.2 2.35-.11 3.51-.49.31-1.47.93-1.97 1.24.86 2.1-2.59 2.95-2.02 4.79-2.54 2.36-5.32 3.95-7.37 6.82-.94.09-1.87.19-2.79.28.08-1.93.17-3.87.26-5.8 4.16-10.7 11.77-26.25 5.81-36.19-11.61-2.98-24.14-.32-36 .01.03-1.33.06-2.67.1-4.01z"/><path d="M136.62 113.03c.28-1.38 1.06-2.36 2.36-2.94 9.65 5.75 21.31 11.66 32.29 17.3 1.66.09 3.52.49 4.11 2.12 1.56-.3 2.73 1.63 4.65 1.11.97.54 1.74 1.17 2.3 1.88 3.69-.29 6.5 2.88 9.87 2.72 5.53 3.36 12.11 3.43 17.76 6.36 1.79-.72 2.92-.4 3.39.96 1.2-.08 4.35-.92 4.02.99 2.23-.43 4.48.15 6.72.2.39 1.66 3.19.1 3.87 1.94 1.52-.61 3.94-.46 4.98 1 4.07.28 10.18.33 13.45 1.91 28.48 2.55 57.81.82 85.68-3.95 6.22-3.68 15.04-2.76 20.47-7.22 9.26-.03 17.3-6.31 26.15-7.88.93-1.91 3.96-1.36 4.85-3.14 1.96.02 3.93.04 5.9.07.29.54.86 1.62 1.15 2.16-.06 1.15-.12 2.31-.17 3.47-3.3 3.53-5.92 6.39-9.82 9.29-23.77 12.72-50.96 25.47-80.22 28.23l.32 1.03c-24.07 1.64-48.27 1.04-71.67-4.36l-.6-.68c-7.37-1.74-14.95-3.45-21.69-6.99-1.91-.21-3.73-.83-5.02-1.99-5.52-1.85-12.09-4.64-16.13-8.18-.67.03-2 .07-2.67.1-2.94-3.17-5.87-3.45-9.3-6.08-2.92-1.55-6.51-3.54-9-6.03-9.88-6.29-20.47-14.9-28-23.4z"/></g><path d="M350.73 10.98c4.36-7.73 19.8-4.43 16.7 6.09-.24.65-.7 1.95-.94 2.6-.33.39-.99 1.16-1.33 1.55-1.24-.01-2.28.41-3.1 1.25l-6.11.03c-.82-.96-1.89-1.37-3.23-1.24-.15-1.79-1.56-2.48-2.19-4.2.06-2.03.13-4.05.2-6.08zM411.5 33.82c1.74-8.38.26-17.61.98-26.36 4.58-.05 9.16-.05 13.74-.05 1.61 24.69 1.74 50.74-.07 75.3-4.11-.9-13.06 2.55-12.53-3.32-1.59.03-4.22-.23-4.25 2.06-1.57.56-4.37.77-5.19 2.09-3.62-.43-9.86 1.47-11.65-.94-2.66.73-6.32-1.13-6.89-3.03-1.67.26-1.97-1.54-3.23-1.96-7.23-9.42-8.39-25.21-3-34.95.47-3.93 4.39-8.73 8.27-10.2.19-.7.82-1.34 1.9-1.93 1.33.15 2.45-.2 3.37-1.04 3.69-.04 7.38-.03 11.08.05 1.93 1.12 3.48 1.67 5.55 2.04-.79 1.52 1.19 1.54 1.92 2.24m-13.59 38.76c3.37.05 6.74.04 10.1-.04.8-1.03 1.91-1.45 3.32-1.24.24-.57.73-1.69.98-2.25-.33-8.77.64-18.59-.56-26.66-1.56.37-2.95-.42-3.83-1.68-3.29-.1-6.59-.13-9.88-.09-9.38 5.77-9.48 25.27-.13 31.96zM502.28 31.6c2.57.02 4.48-.96 6.68-2.04 4.7-.13 9.4-.13 14.1-.04 7.99 2.71 13.55 6.1 16.7 15.02l.68-.27c1.72 8.49 2.07 18.88-.94 27.04-4.69 10-16.9 14.99-29.54 13.12-2.24-1.09-4.45-1.64-6.67-1.93-2.65-2.51-7.69-5.24-8.65-9.16-2.65-1.3-2.39-6.03-4.03-8.31-2.32-13.01 2.28-27.31 11.67-33.43m3.34 32.49c1.79 3.16 2.68 6.84 6.38 8.61 2.68.03 5.36.03 8.04.02 7.7-3.77 6.64-14.33 6.43-22.76-1.98-5.66-4.64-9.81-11.51-9.32-10.52 1.21-9.8 14.13-9.34 23.45zM292.26 31.87c3.73-2.62 9.24-.64 13.8-1.22l2.18 1.01c-.15 2.81 1.53 4.99 1.51 7.79l.72-.2c1.51 9.68 5.71 18.42 7.28 27.95l1.72.68c2.8-10.98 6.73-20.86 9.06-31.86.74-7.88 10.15-4.84 15.99-5.39.15 1.83.11 3.67-.11 5.5-5.31 10.5-8.73 23.09-13.73 33.64-.7 10.23-8.65 17.35-19.05 12.65-3.7-9.05-7.57-18.04-10.1-27.14-3.67-6.72-6.19-15.29-9.27-23.41zM351.53 31.23c4.38-.36 10.95-1.9 14.92.65-.02 16.88.11 33.76-.05 50.64-4.95.15-9.89.13-14.83.04-.17-17.11-.11-34.22-.04-51.33zM438.53 45.65c3.12-6.65 8.91-13.38 15.44-15.1 6.01-.5 12.06-.5 18.07.06.57.22 1.71.66 2.29.89 2.09 1.59 3.8 3.63 6.19 4.79 2.45 4.13 2.42 10 2.08 15.73-1.87 2.33-2.43 4.46-5.08 5.49-.44 1.31-2.64 2.2-4.23 1.86l.21.98c-7.13 1.75-14.83 1.35-22.36.93-.58 4.47 2.02 8.46 5.1 11.02 6.59 1.52 14.6 1.94 20.59-.68.85-.03 2.54-.08 3.38-.1 2.05 3.21.65 6.64.22 9.93-7.32 2.8-15.92 3.61-24.49 2.97-5.86-1.81-10.49-4.13-14.43-8.95-5.2-8.65-4.98-20.18-2.98-29.82m17.56-4.71c-2.17 1.9-2.99 4.3-4.64 5.86-.01 1.87-.02 3.74 0 5.62 4.53.1 9.06.14 13.6.09 1.66-1.1 2.71-2 4.33-3.45.03-1.71.06-3.42.1-5.13-.27-.56-.81-1.67-1.08-2.23-3.66-2.16-8.21-1.65-12.31-.76z"/></svg>