<svg width="800pt" height="400pt" viewBox="0 0 800 400" xmlns="http://www.w3.org/2000/svg"><path fill="#0b3f61" opacity=".52" d="M631.13 153.54c19.22-8.32 40.11-13.56 61.06-14.32-2.16.33-4.28.83-6.42 1.21-28.21 3.08-54.83 13.39-80.44 25.03-5.45 2.53-11.34 5.47-12.73 11.93 1.06.34 2.11.75 3.15 1.21l-.53-.04-3.39-.24c-1.04-7.14 8.23-11.76 14.38-14.81 5.36-3.83 12.17-4.08 17.81-7.3 2.38-.84 4.77-1.68 7.11-2.67z"/><path fill="#12689f" opacity=".83" d="M692.19 139.22c11.47-.34 23.3-.29 34.56.08-9 3.65-21.44-1.18-30.42 1.89l.25.6.38.54v.4c-4.67.93-9.51 2.51-14.19.63 2.47-.67 4.97-1.24 7.48-1.83-1.5-.38-3-.76-4.48-1.1 2.14-.38 4.26-.88 6.42-1.21z"/><path fill="#041b29" opacity=".22" d="M727.85 140.97l.28-3.03c.93 1.31 1.54 2.76 1.84 4.35 2.26.29 4.53.57 6.8.9 0 .69.01 2.05.02 2.73-2.16.33-4.34.64-6.35 1.5-9.02-.5-18.04-.95-27.08-.83.12-.3.37-.91.49-1.22 10.65.21 21.32.1 31.97-.15-12.11-3.78-26-2.98-38.86-2.49v-.4c9.43-3.09 20.73-1.23 30.89-1.36z"/><path fill="#167ec1" d="M605.33 165.46c25.61-11.64 52.23-21.95 80.44-25.03 1.48.34 2.98.72 4.48 1.1-2.51.59-5.01 1.16-7.48 1.83 4.68 1.88 9.52.3 14.19-.63 12.86-.49 26.75-1.29 38.86 2.49-10.65.25-21.32.36-31.97.15-2.41-.12-4.81.18-7.12.81 1.81.5 3.63.97 5.47 1.42-3.45.42-7.02.87-9.94 2.91l-2.77.16c-1.96.06-3.83.64-5.66 1.24-5.26 1.88-10.85 2.49-16.2 4.02-.1.5-.32 1.5-.42 2 6.82-.47 13.41-2.39 20.07-3.81 3.33-.66 6.68-1.39 10.1-1.38 2.22.64 4.43 1.34 6.66 1.99-2.6.2-5.19.39-7.76.75l.02.95c.01.24.04.71.05.95 9.55 1.58 19.24 1.21 28.85 2.14-7.75 1.42-15.8-.06-23.41 2.34 3.44 1.31 7.13 1.55 10.78 1.7-4.64 1.27-9.62.41-14.13 2.15 8.39 1.41 17.09.87 25.35 3.12-1.37.36-2.73.7-4.09 1.04-.12.49-.38 1.45-.5 1.94 3.91.65 7.89.66 11.85.57 2.29.28 4.57.74 6.86 1.12-.11.48-.32 1.43-.43 1.9-9.88-1.01-19.85.04-29.75.48 2.78.44 5.59.71 8.33 1.42 5.68.35 11.38.32 17.08.45.55 1.49 1.14 2.97 1.76 4.44l.34-.32 1.08-.95.04 1.54c1.68-.03 3.39-.01 5.09 0 .01.95.01 2.84.02 3.79-1.27.07-2.52.15-3.77.23-.14.36-.42 1.08-.56 1.45-3.76.44-7.46 1.2-11.13 2.08 4.02.83 8.08 1.47 12.16 2.07-.58.43-1.72 1.31-2.29 1.75-3.17.05-6.33-.06-9.48.04-4.74 0-9.48.01-14.21.24.13.54.38 1.63.51 2.18 6.94.26 13.84 1.6 20.82.98l.15.01c2.57.19 5.15.42 7.71.81-7.04 2.87-14.69-.04-21.9 1.92l1.93.09c-1.71 4.38-10.95 2.72-15.68 3.39 4.61.92 9.32 1 14 1.26 3.48.72 6.92 1.58 10.42 2.23-1.37.76-2.73 1.5-4.1 2.23 3.6 1.61 7.56 2.06 11.48 2.12 2.47.01 4.98.4 7.01 1.91-14.43.08-28.82.2-43.2 1.39-4.21.21-8.22 1.92-12.47 1.67-.13-9.37.39-18.77-.28-28.12l.08-.49c4.98-.49 9.99-.21 14.98-.2.57-2.29.3-4.62-.21-6.89-4.99.07-9.98.08-14.97-.02.01-4.28.04-8.57-.04-12.85l-3.38-.06c-3.9 8.44-15.45 11.5-17.86 19.68 1.67.09 3.37.19 5.07.29.23 14.15-.58 28.37.46 42.48 4.27 12.95 24.83 12.94 31.47 2.09 2.39-3.13 5.76-9.73-1.07-9.05-1.69 4.35-5.47 7.98-10.45 7.53-1.31-1.28-2.65-2.53-3.78-3.96l-.02-.73c.01-2.58.05-5.16.07-7.74 9.96.56 19.91-2.06 29.98-1.51 4.18 3.07 9.73 1.1 14.54 1.66-.12 1.17-.23 2.34-.32 3.52.55.06 1.64.19 2.19.26 2.66.83 5.15 2.15 7.2 4.06-4.93 1.06-10.3-.59-14.89 1.9 5.24 1.33 10.64 1.97 16.03 2.39.82.03 2.47.08 3.29.11-4.36 1.56-8.97 1.87-13.56 1.8-6.41-.38-13.04-1.82-19.3.3 2.8 2.7 6.6 3.49 10.34 3.88-3.27.57-7.13.45-9.33 3.37-14.26.67-28.72 3.25-41.96 8.68-8.27 3.56-16.84 6.42-24.9 10.48-2.71 1.22-5.35 2.59-7.96 4.01-2.85 1.47-6.22 2.01-8.07-1.2 1.9-.99 3.78-2.04 5.51-3.31.92-.47 1.86-.92 2.81-1.37l-.06-1.07c.5.16 1.51.47 2.01.63l.03-1.49c.48.08 1.44.22 1.91.29l.14-1.27c.51.11 1.51.34 2.01.45l-.09-1.59c.47.12 1.4.36 1.86.48l.27-1.25c.5.07 1.5.22 2 .29l-.28-1.13c1.35-.1 2.67-.34 3.97-.74 2.73-.78 5.24-2.17 6.9-4.54-1.03.31-2.04.62-3.05.94-2.67.62-6.05.64-7.82 3.06l-.68.9c-1.08.09-2.15.17-3.22.24l.11 1.27c-.37-.05-1.12-.16-1.49-.21-.63.31-1.88.93-2.51 1.24l-.05 1.03-1.92-.56-.04 1.08c-1.31.48-2.6 1-3.9 1.45l-.06.67c-1.06.37-2.13.75-3.18 1.12l.1.73c-2.32.83-4.69 1.49-7.16 1.34.13-1.57-.31-3.46 1.23-4.51.03-.39.09-1.18.11-1.57-2.07.11-4.14.07-6.2-.02.09-1.06.17-2.13.24-3.19.48-4.33-4.25-7.26-3.2-11.67l2.98-.32c.08-.47.24-1.42.31-1.9 4.92 3.85 11.74 2.23 14.75-3.11.01-2.56-.01-5.11-.04-7.67-5.08-9.98-20.65-3.61-17.04 7.2.66 1.17 1.31 2.34 1.97 3.52-2.61.83-5.3 1.42-7.8-.05.49-.51 1.47-1.52 1.96-2.03-.02-.99-.07-2.97-.09-3.96-1.3.15-2.6.31-3.89.47 1.9-1.7 3.72-3.48 5.49-5.32-1.78-.21-3.55-.41-5.31-.71l-1.36-.22c.04-11.21.11-22.42-.08-33.62-1.8-6.92-7.45-12.39-14.62-13.37-1.04-.46-2.09-.87-3.15-1.21 1.39-6.46 7.28-9.4 12.73-11.93m65.56-17.59c3.43 2.42 8.02-.82 11.96-.98-2.57-3.89-8.51-.15-11.96.98m-19.98 23.6c3.81.61 7.25-1.11 10.07-3.53 1.71-2.76 1.65-6.01 1.5-9.14-1.75-2.8-4.29-4.93-7.31-6.22-.84 0-2.52.01-3.35.01-9.53 1.88-10.16 16.08-.91 18.88m1.19 8.71c-2.2.92-4.43 1.77-6.69 2.49.04.19.11.59.15.78-.64.05-1.92.16-2.56.21-.65.32-1.96.95-2.62 1.27-.42 3.11 2.47 4.78 4.28 6.75-.08 13.85.24 27.7-.18 41.55-1.3.51-2.59 1.06-3.88 1.57-.04.95-.1 2.85-.13 3.79 8.39.2 16.77.04 25.16.11-.01-1.01-.04-3.02-.06-4.02-1.08-.38-2.15-.75-3.22-1.13-1.75-18.26-.31-36.83-.74-55.22-3.31-.25-6.62.13-9.51 1.85z"/><path fill="#11669d" opacity=".82" d="M670.89 147.87c3.45-1.13 9.39-4.87 11.96-.98-3.94.16-8.53 3.4-11.96.98z"/><path fill="#11659b" opacity=".81" d="M696.73 146.18c2.31-.63 4.71-.93 7.12-.81-.12.31-.37.92-.49 1.22 9.04-.12 18.06.33 27.08.83 1.17.17 2.4.42 3.58.69-12.05 3.06-24.83-.38-36.95 2.19-1.6.12-3.22.2-4.81.21 2.92-2.04 6.49-2.49 9.94-2.91-1.84-.45-3.66-.92-5.47-1.42z"/><path opacity=".33" d="M53 154.18c7.63-1.74 14.31-9.94 22.47-6.93-.04 28.49-.62 57.04.29 85.5 4.54.09 5.67 8.19.26 6.92-7.63-.64-16.08 1.38-23.2-1 8.51-.47 17.05.27 25.54-.38 1.02-2.87-2.07-3.79-3.88-5.11-1.75-28.5-.35-57.24-.72-85.83-7.37.35-13.16 5.67-20.04 7.78.15 1.24.31 2.48.47 3.72 1.16.86 2.31 1.74 3.46 2.62.13 23.09.18 46.2-.01 69.28.28 2.79-2.39 3.88-4.68 4.17.41-1.47 1.98-1.62 3.17-2.11.74-22.59.08-45.23.34-67.83.47-2.68-1.76-4.36-3.47-5.98v-4.82z"/><path opacity=".49" d="M369.09 162.97c-11.13-9.69 9.73-15.52 17.42-16.24 3.04 10.99-1.69 25.42 2.37 36.59-.87.73-1.8 1.4-2.71 2.09-.79-12.66-.19-25.36-.32-38.04-6.8 2.49-26.48 6.32-15.54 15.06.86 23.09-.49 46.37.64 69.43 10.94 9.89 33.09 11.75 40.9-3.03 6.88-13.48 6.51-30.07.89-43.94 8.87 14.97 7.57 38.71-5.6 51.23-10.96 8.21-28.74 5.35-37.7-4.5-.58-22.85.16-45.79-.35-68.65zM231.47 199.49c-1.95-5.51-.31-17.78 7.51-16.59 8.24 6.95 5.34 21.61-7.51 16.59m.22-1.92c3.59.19 7.19.21 10.79.1-.78-4.5.34-11.39-4.43-13.82-6.52.34-5.2 9.09-6.36 13.72z"/><path opacity=".41" d="M420.36 163c-10.57-9.65 10.36-16.52 18.12-15.87-7.66.94-14.31 5.32-21.03 8.78.48 3.44 5.2 5.12 4.31 9.1-.2 22.01.35 44.05-.27 66.05-.24.27-.71.81-.95 1.09-.19-23.05.15-46.11-.18-69.15z"/><path opacity=".57" d="M487.31 146.2c1.65.19 3.32.38 4.99.58.57 28.81-.48 57.66.53 86.44 1.08.23 2.17.47 3.27.71.2.85.62 2.54.82 3.38a39.6 39.6 0 0 1 2.06-3.5l2.5-.48c-.2-16.54 2.25-34.75-2.98-49.45 7.2-1.59 13.4-6.93 21.02-6.46 1.03 18.59-1.13 37.45 1.12 55.88 1.21.35 2.47.73 3.69 1.09l-.12 4.85c-19.43.11-34.2-.17-53.65.12-.08-1.64-.15-3.29-.2-4.93 1.26-.45 2.52-.89 3.79-1.33.88-23.84-.06-47.73.48-71.58l.97 1.02c.56 22.14.12 44.33.23 66.48.69 4.12-3.93 5.68-4.99 9.17 8.21.02 16.45.34 24.65-.13.44-3.49-4.84-4.35-4.29-7.99-.33-27.58.17-55.17-.24-82.75l-.01-.47c-1.22-.08-2.43-.17-3.63-.25l-.01-.4m11.28 39.66c4.4 4.69 5.75 10.59 4.77 17.14-2.14 10.33 4.67 25.14-4.21 32.41-.06.71-.18 2.15-.25 2.86 7.85-.13 15.72.24 23.56-.16-8.29-16.57-1.77-40.09-3.94-59.54-7.04.83-13.66 4.2-19.93 7.29z"/><path d="M53.72 155.13c6.88-2.11 12.67-7.43 20.04-7.78.37 28.59-1.03 57.33.72 85.83 1.81 1.32 4.9 2.24 3.88 5.11-8.49.65-17.03-.09-25.54.38.04-.93.11-2.81.14-3.75 2.29-.29 4.96-1.38 4.68-4.17.19-23.08.14-46.19.01-69.28-1.15-.88-2.3-1.76-3.46-2.62-.16-1.24-.32-2.48-.47-3.72zM370.31 162.43c-10.94-8.74 8.74-12.57 15.54-15.06.13 12.68-.47 25.38.32 38.04.91-.69 1.84-1.36 2.71-2.09.27-.41.82-1.22 1.09-1.62.19-.1.59-.3.78-.4 6.86-4.47 15.95-3.26 21.45 2.76l.35.27.19.56c5.62 13.87 5.99 30.46-.89 43.94-7.81 14.78-29.96 12.92-40.9 3.03-1.13-23.06.22-46.34-.64-69.43m20.33 24.32c-9.03 10.03-2.94 25.84-4.69 38.24-2.37 7.88 8.79 15.09 12.36 6.03 2.17-14.24 4.95-31.95-3.7-44.36-1.33.04-2.65.06-3.97.09zM417.45 155.91c6.72-3.46 13.37-7.84 21.03-8.78-.23 12.3-.03 24.6-.11 36.9.23-.1.71-.3.95-.4l1.09-.47c5.52-5.01 13.45-5.85 20.06-2.49 2.79 1.97 4.45 5.05 5.9 8.06l.76 2.19c.32 1.38.7 2.75 1.17 4.1.71 7.32.61 14.71.05 22.04-1.74 6.92-4.18 14.28-10.17 18.72-10.64 6.38-24.09 3.88-34.36-2-.26-.13-.78-.38-1.04-.51-.33-.55-.97-1.66-1.29-2.21.62-22 .07-44.04.27-66.05.89-3.98-3.83-5.66-4.31-9.1m20.06 39.07c-.02 11.97-.04 23.94.03 35.91.33-.71.65-1.43.96-2.14-.22 2.43 1.56 4.36 3.19 5.91 3.07.25 6.11-.34 7.73-3.21.89-3.42 1.2-6.94 1.38-10.46.9-5.23.95-10.77-.03-15.99-.25-4.23-.21-8.52-1.29-12.65.02-2.38-1.56-4.17-2.96-5.9-4.98-.95-9.17 3.81-9.01 8.53zM481.31 150.24c3.02-1.56 6.09-3.45 9.65-2.92.41 27.58-.09 55.17.24 82.75-.55 3.64 4.73 4.5 4.29 7.99-8.2.47-16.44.15-24.65.13 1.06-3.49 5.68-5.05 4.99-9.17-.11-22.15.33-44.34-.23-66.48l-.97-1.02c-1.26-1.23-2.61-2.36-3.95-3.47-.01-1.03.01-2.05.03-3.08 2.18-.81 4.3-1.76 6.4-2.77 1.38-.68 2.78-1.33 4.2-1.96zM149.71 154.26c-.12-1.35-.22-2.71-.35-4.06 16.25 1.81 33.83-3.12 49.09 4.21 10.63 5.5 12.14 19.87 7.3 29.8-3.66 5.28-9.81 8.03-16 8.98.69.09 2.08.28 2.78.38-.01.55-.01 1.1-.02 1.65 1.66.26 3.28.68 4.85 1.27 2.76 2.32 5.38 4.9 7.01 8.17l.02.13c3.99 9.53.19 26.33 12.87 29.21-4.9 7.31-16.46 5.3-23.46 1.93-1.77-1.63-2.71-3.89-3.69-6.02-1.16-4.22-1.49-8.58-2.33-12.85-.39-3.95 0-8.01-1.03-11.88-.02-5.97-5.16-10.92-11.24-9.61-.14 10.8.09 21.6-.13 32.4-1.76 5.73 6.13 5.57 6.65 10.34-10.62-.09-21.36.66-31.9-.32-1.39-2.84 2.16-3.4 4.01-4.25.22-.41.67-1.24.9-1.65.16-.34.48-1.01.63-1.35 1.3-24.51 2.5-50.76-.59-74.79-.43-.4-1.29-1.19-1.72-1.59-1.22-.03-2.44-.06-3.65-.1m25.76.12c-.64 12.11-.14 24.27-.26 36.4 7.42 1.8 16.12-4.16 14.17-12.27.22-3.33.23-6.69-.02-10.01 1.89-8.14-5.88-15.33-13.89-14.12zM503.02 155.66c.86-1.27 1.87-2.68 3.38-3.18 8.24-3.92 17.62 5.82 11.57 13.42-6.5 8.3-19.9-1.01-14.95-10.24zM87.65 181.32c11.53-4.95 28.85-4.41 34.45 8.83l.36.58c.72 13.03-.39 26.13.61 39.12.58 2.14 2.88 1.71 4.57 1.93 1.5 8.22-9.29 8.43-14.92 7.73-2.37-1.66-4.37-3.8-5.67-6.41-4.67 6.78-13.73 8.43-20.95 4.92-7.14-4.81-7.05-14.82-4.03-21.98 4.45-5.96 11.37-8.95 17.9-12 1.73-.74 3.5-1.39 5.29-1.96 3.57-8.42-.01-22.62-11.77-18.46-.02 1.12-.03 2.24-.02 3.37 1.06.87 2.1 1.78 3.14 2.69.11 2.58.11 5.15.03 7.73-1.44 1.11-2.93 2.12-4.45 3.11-1.48-.01-2.95 0-4.42.01a26.726 26.726 0 0 1-5.26-3.87v-.21c-.03-3.33-.12-6.66.11-9.98 1.28-2.03 2.89-3.99 5.03-5.15m8.78 46.34c0 .34 0 1.01.01 1.34l.29.12c12.66 8.93 10.34-14.8 9.97-22.25-9.35 1.06-13.98 12.81-10.27 20.79z"/><path d="M219.64 188.76c3.16-4.36 7.16-8.15 12.19-10.22 4.42-.34 8.85-.36 13.26.03 5.05 2.3 8.9 6.34 11.27 11.33l.44 2.15c1.14 3.63 1.79 7.39 1.69 11.2-.58.27-1.75.81-2.33 1.08-8.29-.02-16.58-.08-24.86.04.1 2.56.09 5.17.85 7.65.28 1.96.51 3.93.99 5.85 1.16 3.48 2.96 6.75 5.67 9.26 5.11 5.21 12.62 1.16 16.33-3.63 5.73.93-1.13 7.5-2.34 10.69-.16.26-.47.79-.63 1.05-.25.13-.75.37-1 .5-8.36 5.23-19.34 4.71-27.34-.97-.95-.76-1.81-1.65-2.47-2.68-7.91-12.65-7.44-28.78-2.04-42.28l.32-1.05m11.83 10.73c12.85 5.02 15.75-9.64 7.51-16.59-7.82-1.19-9.46 11.08-7.51 16.59zM260.34 184.73c4.93-1.94 9.96-3.68 14.66-6.16 2.13-.18 4.28-.25 6.43-.25.01 2.18.03 4.37.06 6.56 4.57-6.54 12.59-7.49 19.91-6.29.18.63.21 1.26.08 1.9 1.28-.18 2.69.05 3.35 1.3 9.69 13.76 8.21 32.57 2.06 47.48-1.67 3.66-4.78 6.32-8.02 8.56-5.4 2.84-11.66 1.79-17.48 1.51-2.42 8.44 2.95 14.46 4 20.07-8.3-.1-16.61-.07-24.91-.01-.08-1.6-.13-3.19-.15-4.78.7-.05 2.08-.13 2.77-.18.33-.6 1-1.79 1.33-2.39.17-20.12-.01-40.23.1-60.35-1.3-1.29-2.63-2.55-4.02-3.74-.05-.81-.13-2.42-.17-3.23m22.33 5.05c-2.45 13.42-1.11 27.57-.77 41.22 3.3 7.45 13.04 1.99 11.6-5.02-.87-12.72 3.62-27.75-4.16-38.8-2.61-.24-4.81.87-6.67 2.6zM312.83 183.35c6.48-2.9 13.59-4.15 20.62-4.82.7 16.27-1.19 32.77.96 48.89.06.22.18.68.24.9.67.71 1.35 1.42 2.02 2.14 1.57 0 3.14-.01 4.72-.01 1.09-1.23 2.3-2.36 3.19-3.75.87-14.13 3.95-30.72-2.47-43.61 5.19-2.93 12.98-3.8 19.39-4.67.15 16.54-.04 33.09.07 49.63-.33 2.52 1.79 4.07 3.55 5.4.03.74.08 2.23.11 2.97-6.55.6-12.99 2.13-19.57 2.39l-.12-5.88c-.38.2-1.15.61-1.54.81l-.09.07c-2.07 2.38-4.28 5.06-7.52 5.74-5.64.51-11.56-.46-15.65-4.69-.55-.84-1.07-1.73-1.34-2.69-5.84-15.66 4.48-35.78-6.57-48.82zM498.59 185.86c6.27-3.09 12.89-6.46 19.93-7.29 2.17 19.45-4.35 42.97 3.94 59.54-7.84.4-15.71.03-23.56.16.07-.71.19-2.15.25-2.86 8.88-7.27 2.07-22.08 4.21-32.41.98-6.55-.37-12.45-4.77-17.14zM537.82 180.67c5.62-3.11 12.15-2.42 18.32-2.11 3.97 1.68 7.34 4.42 9.35 8.28.1 2.81.12 5.63.08 8.45-3.78 10.12-20.59 3.4-13.58-6.17 6.38-4.88-3.18-7.78-7.1-4.5-8.84 11.72-5.63 29.7-1.39 42.95 4.39 9.2 14.56 2.82 16.55-4.54 9.99 7.68-9.35 20.34-18.44 16.46-1.54-.27-2.96-.99-4.4-1.54-2.01-1.31-3.93-2.74-5.71-4.34l-.26-.5c-8.95-13.65-8.5-31.94-.38-45.85 1.65-2.81 4.44-4.64 6.96-6.59zM575.79 180.65c4.96-2.6 10.59-2.51 16.04-2.33l3.39.24.53.04c7.17.98 12.82 6.45 14.62 13.37.19 11.2.12 22.41.08 33.62l1.36.22-1.76.92c.5 1.71 1.03 3.41 1.58 5.11 1.29-.16 2.59-.32 3.89-.47.02.99.07 2.97.09 3.96-.49.51-1.47 1.52-1.96 2.03l-.25.26c-1.07.66-2.21 1.2-3.31 1.78-6.26 1.23-13.21.12-15.97-6.35-3.27 6.42-10.9 7.4-17.33 6.42-7.59-2.7-10.62-11.09-9.22-18.57.89-1.88 1.71-3.8 2.52-5.72 1.33-1.47 2.75-2.85 4.25-4.14 1.18-.73 2.35-1.48 3.59-2.13 5.32-1.94 10.33-4.63 15.56-6.8 1.56-7.3 1.62-21.16-9.36-19.45-6.55.17-2.77 6.66.54 8.72-.09 1.68-.14 3.37-.2 5.06-.83.98-1.65 1.97-2.44 2.98l-.74.04c-9.36 3.11-14.66-7.33-10.04-14.69l.11-.35c1.46-1.27 2.93-2.54 4.43-3.77m14.09 28.49c-1.85 1.21-3.5 2.77-4.67 4.65-4.64 4.83-4.03 19.3 4.95 17.46 7.1-5.41 2.13-16.48 3.51-24.21-1.48.31-3.12.53-3.79 2.1z"/><path opacity=".56" d="M149.36 150.2c13.45-2.76 28.87-1.86 42.8.37 14.66 2.38 23.13 22.14 13.59 33.64 4.84-9.93 3.33-24.3-7.3-29.8-15.26-7.33-32.84-2.4-49.09-4.21z"/><path opacity=".51" d="M506.4 152.48c8.1-7.76 20.64 7.77 11.76 14.68-6.97 8.83-22.68-2.81-15.14-11.5-4.95 9.23 8.45 18.54 14.95 10.24 6.05-7.6-3.33-17.34-11.57-13.42zM341.09 181.3c7.06-1.42 13.98-4.33 21.31-3.8.34 16.83-.08 33.67.2 50.51-.14 2.43 2.18 3.67 3.91 4.82l-.15 4.46c-7.52 0-22.29 7.74-22.45-3.48l.09-.07c.39-.2 1.16-.61 1.54-.81l.12 5.88c6.58-.26 13.02-1.79 19.57-2.39-.03-.74-.08-2.23-.11-2.97-1.76-1.33-3.88-2.88-3.55-5.4-.11-16.54.08-33.09-.07-49.63-6.41.87-14.2 1.74-19.39 4.67 6.42 12.89 3.34 29.48 2.47 43.61-1.03-15.2 2.37-31.63-3.49-45.4zM204.39 204.79c5.17 8.03 3.11 18.55 8.02 26.75 1.7.26 3.39.53 5.09.82-.05 1.6-.08 3.2-.12 4.8-7 3.42-17.68 4.78-23.58-1.23 7 3.37 18.56 5.38 23.46-1.93-12.68-2.88-8.88-19.68-12.87-29.21z"/><g fill="#093653"><path opacity=".43" d="M683.83 151.91c1.83-.6 3.7-1.18 5.66-1.24 11.71 2.77 26.37-4.14 36.37 2.62 1.53.48 3.45.71 3 2.9-3.42-.16-6.85-.21-10.27-.39 1.98-.28 3.94-.64 5.91-1.03-8.92-1.81-18.09-1.25-27.12-2.03-3.42-.01-6.77.72-10.1 1.38-1.34.02-2.68-.03-4-.06.14-.54.41-1.61.55-2.15zM700.77 242.39c3.12-.64 6.27-1.41 9.49-1.22.42.32 1.25.96 1.66 1.29 6.84.21 13.68-.3 20.52.13v1.82c-17.36-.7-34.53 1.69-51.21 6.45-1.4-.39-2.8-.78-4.2-1.11 5.8-2.16 11.89-3.37 18-4.32.32-.52.98-1.56 1.3-2.08.44-.09 1.32-.26 1.76-.34 1.96 1.33 4.42 1.5 6.59.52-1.24-.57-2.55-1.05-3.91-1.14z"/></g><g fill="#021018"><path opacity=".13" d="M606.21 163.51c5.21-6.27 16.2-12.37 24.92-9.97-2.34.99-4.73 1.83-7.11 2.67-5.64 3.22-12.45 3.47-17.81 7.3zM673.15 248.68c7.84-1.31 15.29-4.28 23.18-5.33-.32.52-.98 1.56-1.3 2.08-6.11.95-12.2 2.16-18 4.32-13.26 4.22-26.35 11.61-38.75 16.02-1.3-1.38 1.29-1.79 2.01-2.6 2.61-1.42 5.25-2.79 7.96-4.01 8.06-4.06 16.63-6.92 24.9-10.48z"/></g><path fill="#0d4e78" opacity=".62" d="M667.63 155.93c5.35-1.53 10.94-2.14 16.2-4.02-.14.54-.41 1.61-.55 2.15 1.32.03 2.66.08 4 .06-6.66 1.42-13.25 3.34-20.07 3.81.1-.5.32-1.5.42-2z"/><g fill="#fff"><path d="M650.91 171.47c-9.25-2.8-8.62-17 .91-18.88.83 0 2.51-.01 3.35-.01 3.02 1.29 5.56 3.42 7.31 6.22.15 3.13.21 6.38-1.5 9.14-2.82 2.42-6.26 4.14-10.07 3.53zM667.19 187.35c2.41-8.18 13.96-11.24 17.86-19.68l3.38.06c.08 4.28.05 8.57.04 12.85 4.99.1 9.98.09 14.97.02.51 2.27.78 4.6.21 6.89-4.99-.01-10-.29-14.98.2l-.08.49c-.53 12.77-.71 25.86.3 38.55 1.13 1.43 2.47 2.68 3.78 3.96 4.98.45 8.76-3.18 10.45-7.53 6.83-.68 3.46 5.92 1.07 9.05-6.64 10.85-27.2 10.86-31.47-2.09-1.04-14.11-.23-28.33-.46-42.48-1.7-.1-3.4-.2-5.07-.29zM652.1 180.18c2.89-1.72 6.2-2.1 9.51-1.85.43 18.39-1.01 36.96.74 55.22 1.07.38 2.14.75 3.22 1.13.02 1 .05 3.01.06 4.02-8.39-.07-16.77.09-25.16-.11.03-.94.09-2.84.13-3.79 1.29-.51 2.58-1.06 3.88-1.57.42-13.85.1-27.7.18-41.55-1.81-1.97-4.7-3.64-4.28-6.75.66-.32 1.97-.95 2.62-1.27.64-.05 1.92-.16 2.56-.21-.04-.19-.11-.59-.15-.78 2.26-.72 4.49-1.57 6.69-2.49zM619.48 233.89c-3.61-10.81 11.96-17.18 17.04-7.2.03 2.56.05 5.11.04 7.67-3.01 5.34-9.83 6.96-14.75 3.11l-.36-.06c-.66-1.18-1.31-2.35-1.97-3.52z"/></g><path fill="#1371ad" opacity=".9" d="M697.38 152.74c9.03.78 18.2.22 27.12 2.03-1.97.39-3.93.75-5.91 1.03-4.4.61-8.82.18-13.23.06-3.03.02-6.05.32-9.06.57l-.02-.95c2.57-.36 5.16-.55 7.76-.75-2.23-.65-4.44-1.35-6.66-1.99z"/><path opacity=".45" d="M175.47 154.38c8.01-1.21 15.78 5.98 13.89 14.12-.94-7.05-5.24-14.41-13.55-12.29.28 11.18-.52 22.42.39 33.57 7.34 1.03 12.31-4.4 13.18-11.27 1.95 8.11-6.75 14.07-14.17 12.27.12-12.13-.38-24.29.26-36.4z"/><path opacity=".43" d="M155.08 155.95c3.09 24.03 1.89 50.28.59 74.79-.77-24.91.4-49.88-.59-74.79zM390.64 186.75c1.32-.03 2.64-.05 3.97-.09 8.65 12.41 5.87 30.12 3.7 44.36-3.57 9.06-14.73 1.85-12.36-6.03 1.75-12.4-4.34-28.21 4.69-38.24m.51 1.52c-7.88 9.93-1.79 25.55-3.71 37.72-2.15 6.2 6.6 11.33 9.57 5 2.85-11.68 1.73-24.08.7-35.97-.42-3.17-2.47-8.87-6.56-6.75z"/><g fill="#0e517c"><path opacity=".64" d="M696.3 156.43c3.01-.25 6.03-.55 9.06-.57 8.12 4.24 18.96.28 27.99 3.33.96.17 1.93.34 2.91.51.04.44.1 1.31.13 1.75-.1-.05-.29-.14-.39-.19l-1.1-.52c-7.46-.5-14.91.62-22.38.37 1 1.02 2.01 2.03 3.03 3.04-2.25.53-4.49 1.07-6.72 1.64 1.52.14 3.06.27 4.61.36 6.18.11 12.28.94 18.41 1.6.32.65.65 1.3.99 1.95-2.64.49-5.3.73-7.97.7 2.11.43 4.26.92 6.18 1.98-3.96.09-7.94.08-11.85-.57.12-.49.38-1.45.5-1.94 1.36-.34 2.72-.68 4.09-1.04-8.26-2.25-16.96-1.71-25.35-3.12 4.51-1.74 9.49-.88 14.13-2.15-3.65-.15-7.34-.39-10.78-1.7 7.61-2.4 15.66-.92 23.41-2.34-9.61-.93-19.3-.56-28.85-2.14-.01-.24-.04-.71-.05-.95zM734.16 236.11c.19.02.58.07.77.09 1.37.54 2.71 1.17 4.05 1.81-.55-.59-1.09-1.18-1.62-1.76.36.06 1.1.17 1.46.23.59.22 1.77.66 2.35.88-.62.3-1.23.61-1.82.94-6.46.97-13.33-1.1-19.32 2.29 3.43-4.51 9.63-2.1 14.13-4.48z"/></g><g fill="#03141f"><path opacity=".16" d="M705.36 155.86c4.41.12 8.83.55 13.23-.06 3.42.18 6.85.23 10.27.39 1.8.44 3.23 1.69 4.49 3-9.03-3.05-19.87.91-27.99-3.33zM743.29 218.55c2.33-.65 4.48.33 6.44 1.5-.73 1.21-1.48 2.42-2.19 3.64-3.7-.82-7.46-1.23-11.23-1.44l-.26-2.1c2.51-.17 5.02-.25 7.54-.45-.08-.29-.22-.87-.3-1.15z"/></g><path fill="#052031" opacity=".26" d="M712.52 161.11c7.47.25 14.92-.87 22.38-.37l1.1.52c-6.67 1.12-13.49-.23-20.14 1.16 2.48.41 4.97.75 7.46 1.17-3.28.91-6.59 1.7-9.88 2.56-1.55-.09-3.09-.22-4.61-.36 2.23-.57 4.47-1.11 6.72-1.64-1.02-1.01-2.03-2.02-3.03-3.04z"/><path fill="#041a28" opacity=".21" d="M731.85 167.75c3.44-.35 6.92-.27 10.38-.11.13.47.39 1.4.52 1.86-2.88.56-6.41-.13-8.6 2.21 4.66 2.02 10.94-.95 14.75 2.36-4.33 2.28-9.56 1.38-14.28 2.14.32 1.81 2.08 3.93.62 5.66l-.34.32c-.62-1.47-1.21-2.95-1.76-4.44-5.7-.13-11.4-.1-17.08-.45-2.74-.71-5.55-.98-8.33-1.42 9.9-.44 19.87-1.49 29.75-.48.11-.47.32-1.42.43-1.9-2.29-.38-4.57-.84-6.86-1.12-1.92-1.06-4.07-1.55-6.18-1.98 2.67.03 5.33-.21 7.97-.7-.34-.65-.67-1.3-.99-1.95z"/><path opacity=".47" d="M87.65 181.32c10.02-7.45 31.37-5.4 34.45 8.83-5.6-13.24-22.92-13.78-34.45-8.83zM82.51 196.45c-2.59-2.85-2.45-7.17.11-9.98-.23 3.32-.14 6.65-.11 9.98z"/><path opacity=".55" d="M315.82 188.22c-10.45-9.59 12.2-10.17 18.61-10.71.25 16.63.31 33.28-.02 49.91-2.15-16.12-.26-32.62-.96-48.89-7.03.67-14.14 1.92-20.62 4.82 11.05 13.04.73 33.16 6.57 48.82-5.78-13.55.36-29.84-3.58-43.95z"/><path opacity=".48" d="M390.75 181.3c5.19-6.54 17.97-4.95 21.45 2.76-5.5-6.02-14.59-7.23-21.45-2.76zM423.82 233.78c10.27 5.88 23.72 8.38 34.36 2-8.97 8.52-25.71 5.82-34.36-2z"/><path opacity=".5" d="M439.32 183.63c4.44-6.55 15.4-8.88 21.15-2.96-6.61-3.36-14.54-2.52-20.06 2.49l-1.09.47zM320.74 234.86c4.09 4.23 10.01 5.2 15.65 4.69-4.95 3.35-13.12.73-15.65-4.69z"/><path opacity=".45" d="M304.83 181.79c11.4 11.76 10.28 34.32 2.06 47.48 6.15-14.91 7.63-33.72-2.06-47.48z"/><path fill="#000203" opacity=".49" d="M584.67 191.38c-3.31-2.06-7.09-8.55-.54-8.72 10.98-1.71 10.92 12.15 9.36 19.45-5.23 2.17-10.24 4.86-15.56 6.8 4.04-3.94 9.84-5.18 14.73-7.79.48-6.6 1.54-19.22-8.76-17.19-5.74.44.78 4.63.77 7.45z"/><path fill="#051c2b" opacity=".23" d="M741.99 184.26c2.49.87 5.12 1.17 7.75 1.23-.09.5-.28 1.49-.37 1.99-3.84.07-7.65.47-11.48.44l-.75.01c.14-.37.42-1.09.56-1.45 1.25-.08 2.5-.16 3.77-.23l.52-1.99z"/><path opacity=".54" d="M543.5 227.57c-4.24-13.25-7.45-31.23 1.39-42.95-5.72 12.96-4.58 28.77-.58 42.1 3.71 8.04 13.68 2.47 14.51-4.57 1.85.36 3.65.92 5.42 1.57.29.58.87 1.75 1.16 2.33-2.84 9.66-13.79 18.56-23.79 13.44 9.09 3.88 28.43-8.78 18.44-16.46-1.99 7.36-12.16 13.74-16.55 4.54z"/><path opacity=".49" d="M580.05 201.3c-9 2.16-15.87-10.47-8.8-16.53-4.62 7.36.68 17.8 10.04 14.69l-1.24 1.84z"/><path opacity=".6" d="M437.51 194.98c-.16-4.72 4.03-9.48 9.01-8.53 1.4 1.73 2.98 3.52 2.96 5.9-1.56-5.13-8.32-6.52-9.95-.7-2.12 12.17-.18 24.76-1.03 37.1-.31.71-.63 1.43-.96 2.14-.07-11.97-.05-23.94-.03-35.91z"/><path opacity=".52" d="M531.24 233.11c-11.27-12.39-9.96-34.27-.01-47.19l-.37 1.34c-8.12 13.91-8.57 32.2.38 45.85z"/><path fill="#0b4469" opacity=".55" d="M688.89 226.73c-1.01-12.69-.83-25.78-.3-38.55.67 9.35.15 18.75.28 28.12 4.25.25 8.26-1.46 12.47-1.67 4.73 3.66 10.95.82 16.37 1.36.3.19.91.57 1.21.76-10.07-.55-20.02 2.07-29.98 1.51-.02 2.58-.06 5.16-.07 7.74l.02.73z"/><path fill="#0d4e77" opacity=".62" d="M726.01 190.01c3.67-.88 7.37-1.64 11.13-2.08l.75-.01c-.52.63-1.58 1.87-2.1 2.5 1.92.02 3.91-.38 5.85-.12l-.22.25c-1.11.72-1.01 2.11-1.13 3.26-1.48.01-2.95.02-4.41.02.57-.44 1.71-1.32 2.29-1.75-4.08-.6-8.14-1.24-12.16-2.07z"/><path opacity=".54" d="M221.36 232.09c-9.69-10.97-9.57-30.19-2.04-42.28-5.4 13.5-5.87 29.63 2.04 42.28z"/><path fill="#07283d" opacity=".32" d="M741.64 190.3c1.35-.54 3.2.41 4.72.4l-.08 1.26c-3.66 2.31-7.89 3.03-12.14 3.16.17.5.51 1.51.67 2.01l-1.14.15-.15-.01c-3.17-.68-6.38-1.12-9.59-1.42.81-.67 1.63-1.33 2.47-1.98 3.15-.1 6.31.01 9.48-.04 1.46 0 2.93-.01 4.41-.02.12-1.15.02-2.54 1.13-3.26l.22-.25z"/><path fill="#0d4f79" opacity=".63" d="M712.19 194.11c4.73-.23 9.47-.24 14.21-.24-.84.65-1.66 1.31-2.47 1.98 3.21.3 6.42.74 9.59 1.42-6.98.62-13.88-.72-20.82-.98-.13-.55-.38-1.64-.51-2.18z"/><g fill="#020f18"><path opacity=".13" d="M733.67 197.28l1.14-.15c14.9-2.96 4.28 10.08-4.99 5.48 1.05-.8 2.11-1.59 3.17-2.38-3.86-.3-7.73-.32-11.58-.13l-1.93-.09c7.21-1.96 14.86.95 21.9-1.92-2.56-.39-5.14-.62-7.71-.81zM741.17 237.36c2.62-.42 5.29-.09 7.92.06-1.61 4-7.06 1.61-10.37 2.21l.63-1.33c.59-.33 1.2-.64 1.82-.94z"/></g><g><path fill="#072a41" opacity=".34" d="M721.41 200.1c3.85-.19 7.72-.17 11.58.13-1.06.79-2.12 1.58-3.17 2.38-2.57-.14-5.43-.52-7.22 1.82-.96.11-1.92.23-2.87.32-4.68-.26-9.39-.34-14-1.26 4.73-.67 13.97.99 15.68-3.39z"/></g><g><path fill="#0d507a" opacity=".64" d="M719.73 204.75c.95-.09 1.91-.21 2.87-.32 3.53.04 7.04.52 10.5 1.21 1.06.35 2.13.7 3.21 1.03.4 1.55.8 3.1 1.22 4.66-3.92-.06-7.88-.51-11.48-2.12 1.37-.73 2.73-1.47 4.1-2.23-3.5-.65-6.94-1.51-10.42-2.23z"/></g><g><path fill="#06263a" opacity=".3" d="M736.04 205.65c3.91.08 7.52 1.64 11.07 3.11-2.79-.14-5.57-.36-8.35-.45 3.13 4.31 9.91 1.94 14.54 3.35 1.19.97 2.4 1.94 3.62 2.9-7.81-2.53-15.51 1.19-23.47.74.01.78.01 2.33.01 3.11-4.81-.56-10.36 1.41-14.54-1.66-.3-.19-.91-.57-1.21-.76-5.42-.54-11.64 2.3-16.37-1.36 14.38-1.19 28.77-1.31 43.2-1.39-2.03-1.51-4.54-1.9-7.01-1.91-.42-1.56-.82-3.11-1.22-4.66l-.27-1.02z"/></g><g><path opacity=".57" d="M96.43 227.66c-3.71-7.98.92-19.73 10.27-20.79.37 7.45 2.69 31.18-9.97 22.25 12.97 5.24 7.83-14.18 8.74-21.31-8.09 3.19-10.12 12.01-9.04 19.85z"/></g><g><path opacity=".42" d="M589.88 209.14c.67-1.57 2.31-1.79 3.79-2.1-1.38 7.73 3.59 18.8-3.51 24.21-8.98 1.84-9.59-12.63-4.95-17.46-.5 5.12-3.88 17.66 4.78 16.26 5.7-5.28 1.38-14.69 2.88-21.63-.74.18-2.24.54-2.99.72z"/></g><g><path fill="#0c4970" opacity=".58" d="M733.46 218.41l.08-.92c3.25.33 6.49.79 9.75 1.06.08.28.22.86.3 1.15-2.52.2-5.03.28-7.54.45l.26 2.1-.98-.06c-.55-.07-1.64-.2-2.19-.26.09-1.18.2-2.35.32-3.52z"/></g><g><path opacity=".53" d="M238.81 227.13c6.27 3.17 12.97.04 16.26-5.73 7.21 2.12 1.61 10.12-2.27 12.79 1.21-3.19 8.07-9.76 2.34-10.69-3.71 4.79-11.22 8.84-16.33 3.63z"/></g><g><path fill="#0c476d" opacity=".57" d="M735.33 222.19l.98.06c3.77.21 7.53.62 11.23 1.44 2.02.46 4.09.64 6.17.73l.07.21c-3.57-.27-7 .77-10.37 1.81l.18 2.39.08 1.71c-5.39-.42-10.79-1.06-16.03-2.39 4.59-2.49 9.96-.84 14.89-1.9-2.05-1.91-4.54-3.23-7.2-4.06z"/></g><g><path fill="#1168a0" opacity=".87" d="M611.81 225.81c1.76.3 3.53.5 5.31.71-1.77 1.84-3.59 3.62-5.49 5.32-.55-1.7-1.08-3.4-1.58-5.11l1.76-.92z"/></g><g><path opacity=".47" d="M175.38 227.97c.75 3.74 3.78 5.84 7.37 6.44-.07 1.67-.15 3.34-.24 5.01-10.5.12-21.01.1-31.51.04-2.92.15-1.71-3.74-1.46-5.52 1.85-.57 3.68-1.2 5.5-1.85-.23.41-.68 1.24-.9 1.65-1.85.85-5.4 1.41-4.01 4.25 10.54.98 21.28.23 31.9.32-.52-4.77-8.41-4.61-6.65-10.34z"/></g><g><path fill="#072a41" opacity=".34" d="M743.59 228.83c2.45-.94 5.11-.16 7.64-.02-1.01 1.61-2.03 3.21-3.01 4.84-5.54.31-11.53-1.54-16.7 1 2.86.46 5.75.74 8.63 1.18l-1.33.65c-.36-.06-1.1-.17-1.46-.23.53.58 1.07 1.17 1.62 1.76-1.34-.64-2.68-1.27-4.05-1.81-.19-.02-.58-.07-.77-.09-5.56-.65-11.1-1.33-16.63-2.06 4.68-2.87 10.68.73 15.87-1.6 4.59.07 9.2-.24 13.56-1.8-.82-.03-2.47-.08-3.29-.11l-.08-1.71z"/></g><g><path fill="#1269a1" opacity=".84" d="M714.1 232.75c6.26-2.12 12.89-.68 19.3-.3-5.19 2.33-11.19-1.27-15.87 1.6 5.53.73 11.07 1.41 16.63 2.06-4.5 2.38-10.7-.03-14.13 4.48-1.87.03-3.74.06-5.59.07l.67-.66c2.2-2.92 6.06-2.8 9.33-3.37-3.74-.39-7.54-1.18-10.34-3.88z"/></g><g><path opacity=".48" d="M223.83 234.77c8 5.68 18.98 6.2 27.34.97-6.78 7.34-20.98 6.68-27.34-.97z"/></g><g><path fill="#0f5c8d" opacity=".73" d="M613.65 237.36c2.5 1.47 5.19.88 7.8.05l.36.06c-.07.48-.23 1.43-.31 1.9l-2.98.32c-1.05 4.41 3.68 7.34 3.2 11.67-1.16-1.17-2.64-1.82-4.2-2.19-.02-1.29-.01-2.58.02-3.86l-1.28.18c.12-1.64.24-3.28.39-4.92-1.12-.93-3.84-.82-3.25-2.95l.25-.26z"/></g><g><path fill="#0d517c" opacity=".65" d="M673.15 248.68c13.24-5.43 27.7-8.01 41.96-8.68l-.67.66c-1.24.66-2.63.84-4.18.51-3.22-.19-6.37.58-9.49 1.22-.67.16-2.01.47-2.68.62-.44.08-1.32.25-1.76.34-7.89 1.05-15.34 4.02-23.18 5.33z"/></g><g><path fill="#03111a" opacity=".14" d="M698.09 243.01c.67-.15 2.01-.46 2.68-.62 1.36.09 2.67.57 3.91 1.14-2.17.98-4.63.81-6.59-.52z"/></g><g><path fill="#0c466b" opacity=".56" d="M658.16 247.29c1.01-.32 2.02-.63 3.05-.94-1.66 2.37-4.17 3.76-6.9 4.54-1.32-.2-2.66-.37-3.97-.54 1.77-2.42 5.15-2.44 7.82-3.06z"/></g><g><path fill="#0d4b73" opacity=".6" d="M638.28 265.77c12.4-4.41 25.49-11.8 38.75-16.02 1.4.33 2.8.72 4.2 1.11l.63.17c-9.46 1.84-17.94 6.63-26.99 9.71-4.68 2.34-9.41 4.56-13.98 7.1-1.96 1.24-4.14 2.04-6.45 2.29 1.16-.78 1.58-1.74 1.29-2.88-1.18-1.01-2.39-1.97-3.57-2.95-1.28.53-2.55 1.06-3.83 1.57-.02-.6-.05-1.79-.07-2.38 1.17-.65 2.35-1.3 3.53-1.95l.43.43c1.85 3.21 5.22 2.67 8.07 1.2-.72.81-3.31 1.22-2.01 2.6z"/></g></svg>