<svg width="1296" height="344pt" viewBox="0 0 972 344" xmlns="http://www.w3.org/2000/svg"><g fill="olive"><path d="M638.28 7.43C650.11 5.85 662.04 4.74 674 5c12.5-.28 24.97.81 37.34 2.53 17.69 3.09 35.63 7.51 50.96 17.23 8.32 5.4 16.22 13.68 16.41 24.19-.46 10.63-.01 21.27-.3 31.9 14.24-7.21 29.92-10.93 45.59-13.53 11.6-1.5 23.29-2.58 35-2.32 12.5-.28 24.97.81 37.33 2.53 17.42 3.03 35.04 7.38 50.24 16.75 7.19 4.67 14.19 10.97 16.4 19.57 1.29 4.29.44 8.77.53 13.15.01 42-.01 84 .01 126-.01 4.65.32 9.5-1.6 13.87-3.25 7.86-10.11 13.53-17.25 17.76-17.07 9.92-36.74 14.07-56.1 16.69.07 4.57-.57 9.26-2.94 13.25-5.2 9.17-14.62 14.81-23.87 19.22-17.86 8.05-37.39 11.61-56.8 13.35-28.45 2.15-57.53.22-84.86-8.36-11.16-3.75-22.37-8.6-31-16.83-5.23-4.91-8.82-11.77-8.68-19.06-23.69.48-47.65-1.94-70.31-9.1-10.09-3.37-20.09-7.69-28.38-14.47-6.09-4.98-11.21-12.1-11.2-20.25-.05-64.36-.01-128.72-.02-193.08-.03-4.05-.68-8.2.52-12.15 2.22-8.59 9.21-14.91 16.4-19.56 15.38-9.48 33.23-13.83 50.86-16.85m25.07 6.04c-13.87.57-27.69 2.45-41.18 5.75-10.68 2.73-21.24 6.45-30.61 12.33-5.13 3.4-10.24 7.65-12.31 13.65-.93 3.69-.71 7.86 1.46 11.09 4.24 6.81 11.41 11.04 18.43 14.52 15 7.11 31.42 10.59 47.81 12.61a247 247 0 0 0 55.1-.01c16.64-2.05 33.33-5.6 48.5-12.95 6.57-3.31 13.2-7.34 17.36-13.58 3.08-4.35 3.15-10.55.27-15.01-4.22-6.9-11.52-11.1-18.56-14.62-16.43-7.82-34.57-11.11-52.53-13.05-11.23-.81-22.5-1.47-33.74-.73m-84.93 52.79c.5 4.41-1.18 9.63 2.08 13.29 3.67 4.72 8.66 8.21 13.87 11.04 7.69 4.35 16.11 7.16 24.57 9.57 18.25 4.93 37.21 6.73 56.07 6.83 22.76-.22 45.79-2.87 67.27-10.75 7.13-2.72 14.11-6.08 20.19-10.74 2.96-2.45 5.96-5.12 7.65-8.64.74-3.47.23-7.07.45-10.6-8.11 8.13-18.82 13-29.5 16.78-21.22 7.17-43.74 9.75-66.06 9.95-22.66-.11-45.53-2.68-67.09-9.94-10.68-3.79-21.39-8.65-29.5-16.79m269.92 7.21c-20.63 1.02-41.47 4.19-60.62 12.22-7.84 3.58-15.93 7.76-21.1 14.89-3.57 4.61-3.97 11.53-.53 16.32 4.31 6.46 11.23 10.53 18.05 13.91 14.99 7.11 31.41 10.59 47.8 12.6 18.3 2.06 36.81 2.06 55.11 0 16.64-2.05 33.33-5.6 48.5-12.95 6.57-3.31 13.19-7.33 17.36-13.58 3.08-4.34 3.15-10.55.27-15.01-4.22-6.9-11.52-11.1-18.56-14.62-16.43-7.82-34.58-11.11-52.54-13.05-11.23-.81-22.49-1.47-33.74-.73M578.4 83.28c.2 3.9-.02 7.81.15 11.71-.04 1.98 1.18 3.61 2.36 5.08 3.64 4.46 8.44 7.8 13.47 10.52 7.68 4.35 16.11 7.16 24.57 9.57 18.24 4.93 37.2 6.73 56.06 6.83 18.82-.18 37.73-2.03 55.91-7.08 8.35-2.44 16.71-5.22 24.22-9.69.12-5.88 2.15-11.66 5.95-16.17 2.99-4.14 8.2-6.28 10.35-11.06-4.35 3.86-8.71 7.77-13.85 10.52-13.4 7.54-28.43 11.56-43.47 14.23-21.72 3.59-43.93 4.16-65.81 1.83-14.7-1.6-29.36-4.47-43.23-9.68-9.74-3.9-19.65-8.57-26.68-16.61m.02 20.08c.65 5.22-1.46 11.44 2.39 15.79 5.32 6.65 12.92 10.97 20.6 14.36 16.42 7.05 34.17 10.41 51.9 12.05 19.89 1.68 40.01 1.09 59.71-2.23 14.67-2.53 29.31-6.52 42.42-13.72.1-5 .02-10 .08-14.99-12.86 6.86-27.12 10.57-41.4 13.12-21.72 3.59-43.93 4.16-65.82 1.83-14.42-1.56-28.78-4.38-42.42-9.38-10.02-3.91-20.17-8.67-27.46-16.83m.02 20.74c.52 4.99-1.34 10.91 2.37 15.05 5.32 6.65 12.91 10.97 20.59 14.36 16.43 7.05 34.18 10.41 51.91 12.05 19.89 1.68 40.01 1.09 59.71-2.23 14.67-2.53 29.31-6.52 42.42-13.72.09-4.82.02-9.64.1-14.45-10.77 5.76-22.61 9.22-34.51 11.77-22.77 4.66-46.22 5.55-69.34 3.53-17.23-1.77-34.52-4.93-50.56-11.64-8.31-3.56-16.55-7.93-22.69-14.72m184.98 2.16c.5 4.41-1.18 9.64 2.08 13.3 3.68 4.71 8.66 8.2 13.88 11.03 7.68 4.35 16.11 7.16 24.57 9.57 18.24 4.93 37.2 6.73 56.06 6.83 21.22-.22 42.64-2.51 62.86-9.22 8.3-2.71 16.38-6.35 23.51-11.43 3.39-2.63 6.81-5.56 8.74-9.47.75-3.48.23-7.08.45-10.61-8.11 8.13-18.82 13-29.49 16.78-21.23 7.17-43.75 9.75-66.07 9.95-22.66-.11-45.54-2.68-67.09-9.94-10.68-3.79-21.39-8.65-29.5-16.79M578.44 144.1c.52 5-1.34 10.92 2.37 15.06 4.99 6.26 12.05 10.44 19.23 13.75 11.84 5.27 24.48 8.58 37.25 10.64 21.74 3.5 43.97 3.8 65.83 1.24 3.91-.34 7.38-2.27 10.99-3.63 8.64-3.34 17.66-5.59 26.74-7.35 4.95-1.03 10.24-1.33 14.61-4.17.06-4.83 0-9.66.08-14.48-10.78 5.77-22.61 9.22-34.51 11.77-22.77 4.66-46.22 5.55-69.34 3.53-17.23-1.77-34.52-4.93-50.57-11.64-8.3-3.56-16.54-7.93-22.68-14.72m184.96-.82c.37 4.51-.37 9.12.47 13.59 1.92 3.91 5.34 6.85 8.74 9.48 2.5 1.71 5.05 4.11 8.34 3.68 13.75-.36 27.5.59 41.09 2.62 14.6 2.59 29.26 6.05 42.57 12.8 1.34.59 2.7 1.48 4.26 1.32 19.82-.77 39.73-3.68 58.41-10.53 6.93-2.63 13.69-5.9 19.66-10.32 3.16-2.54 6.37-5.34 8.18-9.05.86-4.47.08-9.09.48-13.61-5.63 6.47-13.25 10.78-20.99 14.25-11 4.98-22.81 7.9-34.65 10.08-21.99 3.73-44.49 4.34-66.66 1.98-14.7-1.6-29.35-4.47-43.22-9.68-9.74-3.9-19.65-8.57-26.68-16.61M578.44 164.1c.52 4.99-1.34 10.91 2.36 15.05 4.84 6.07 11.62 10.18 18.56 13.44 8.44 3.87 17.35 6.62 26.39 8.74 18.3 4.06 37.13 5.57 55.86 5.03 3.02-6.56 8.07-12.02 14.15-15.87-14.64 1.43-29.43 1.22-44.07-.03-17.23-1.77-34.51-4.93-50.55-11.64-8.31-3.56-16.56-7.93-22.7-14.72m362.85 10.12c-9.89 5.35-20.65 8.9-31.58 11.38-11.98 2.7-24.2 4.45-36.47 4.84 5.54 3.69 10.42 8.52 13.44 14.51 15.94-1.88 31.84-5.28 46.59-11.74 7.01-3.16 13.88-7.12 19.01-12.96 1.49-1.8 3.08-3.8 3.15-6.25.19-3.55 0-7.11.15-10.65-4.03 4.49-8.99 8.04-14.29 10.87m-167.94 4.25c-20.39 1-40.97 4.12-59.94 11.92-7.09 3.13-14.18 6.8-19.6 12.47-2.78 3.05-5.23 6.87-5.06 11.16-.32 4.34 2.16 8.2 4.98 11.25 4.68 4.96 10.73 8.34 16.85 11.22 14.62 6.64 30.49 9.98 46.36 11.93a247.09 247.09 0 0 0 55.11-.01c16.64-2.05 33.33-5.6 48.5-12.95 6.57-3.31 13.2-7.34 17.37-13.59 3.07-4.34 3.14-10.55.26-15-4.22-6.9-11.51-11.1-18.56-14.62-16.43-7.82-34.57-11.11-52.54-13.05-11.22-.81-22.49-1.47-33.73-.73m-194.91 5.63c.52 5-1.34 10.92 2.37 15.06 4.83 6.06 11.61 10.17 18.54 13.43 8.44 3.86 17.36 6.62 26.39 8.74 17.95 3.98 36.4 5.51 54.76 5.06.08-5-.21-10-.19-15-16.86.43-33.77-.85-50.34-4.06-12.75-2.57-25.41-6.21-36.94-12.35-5.41-2.8-10.47-6.36-14.59-10.88m354.43 14.72c-14.17 5.96-29.35 9.04-44.54 10.99.7 4.96.06 9.96.14 14.94 15.58-1.98 31.1-5.42 45.49-11.85 6.76-3.12 13.36-7 18.32-12.66 1.49-1.79 3.08-3.8 3.15-6.25.18-3.3.02-6.6.13-9.9-6.15 6.78-14.38 11.17-22.69 14.73m-354.43 5.28c.54 4.79-1.25 10.36 1.94 14.49 4.67 6.18 11.42 10.37 18.31 13.69 8.64 4.04 17.79 6.87 27.05 9.05 17.95 3.98 36.39 5.51 54.75 5.06.01-5 .01-10 0-14.99-12.6.24-25.25-.23-37.74-1.99-14.21-1.92-28.37-5.03-41.62-10.59-8.31-3.56-16.55-7.93-22.69-14.72m360.55 11.89c-15.73 7.87-33.16 11.51-50.48 13.83-.01 4.97-.01 9.95-.01 14.93 15.56-1.99 31.08-5.42 45.46-11.85 6.76-3.12 13.36-7.01 18.32-12.66 1.49-1.8 3.08-3.81 3.15-6.25.18-3.3.02-6.6.13-9.9-4.63 5.07-10.44 8.89-16.57 11.9m-360.55 8.11c.52 5-1.34 10.92 2.37 15.06 4.83 6.06 11.61 10.17 18.53 13.43 8.45 3.87 17.37 6.62 26.4 8.74 17.95 3.98 36.39 5.51 54.75 5.06.01-5 .01-10 0-14.99-12.61.24-25.26-.23-37.75-2-14.21-1.91-28.36-5.02-41.61-10.58-8.31-3.56-16.55-7.93-22.69-14.72M938.98 236c-15.73 7.86-33.16 11.5-50.47 13.82-.01 4.97-.01 9.95-.01 14.93 15.56-1.99 31.08-5.42 45.46-11.85 6.76-3.12 13.36-7 18.32-12.65 1.49-1.8 3.08-3.81 3.15-6.25.18-3.3.02-6.61.13-9.91-4.63 5.08-10.45 8.89-16.58 11.91m-250.56-4.74c.5 4.41-1.18 9.63 2.08 13.29 3.67 4.72 8.66 8.21 13.88 11.04 7.68 4.35 16.11 7.16 24.57 9.57 18.24 4.93 37.2 6.73 56.06 6.83 21.22-.22 42.64-2.51 62.86-9.22 8.3-2.71 16.38-6.35 23.51-11.43 3.39-2.63 6.81-5.56 8.74-9.47.75-3.48.23-7.08.45-10.61-8.11 8.13-18.82 13-29.5 16.79-21.22 7.16-43.74 9.74-66.06 9.94-22.66-.11-45.53-2.68-67.09-9.94-10.68-3.79-21.39-8.65-29.5-16.79M578.4 244.09c.07 2.29.01 4.59.31 6.87.46 3.34 2.37 6.27 4.54 8.78 4.35 4.86 10.07 8.22 15.88 11.06 7.63 3.67 15.72 6.28 23.91 8.36 18.77 4.54 38.17 6.16 57.45 5.73.01-4.5 0-8.99 0-13.49-12.6.24-25.25-.23-37.75-1.99-17.37-2.38-34.83-6.44-50.38-14.79-5.18-2.73-9.97-6.23-13.96-10.53m362.57 10.88c-16.22 8.58-34.42 12.43-52.46 14.85-.01 4.48-.01 8.96 0 13.44 16.59-2.21 33.26-5.83 48.29-13.43 6.52-3.42 13.12-7.65 16.85-14.19 2.11-3.47 1.83-7.67 1.96-11.56-4.19 4.48-9.21 8.09-14.64 10.89m-252.57-6.69c.19 3.9-.02 7.81.15 11.71-.04 1.98 1.18 3.61 2.36 5.08 3.64 4.46 8.44 7.8 13.47 10.52 7.69 4.35 16.11 7.16 24.57 9.57 18.25 4.93 37.2 6.73 56.06 6.83 22.76-.23 45.78-2.87 67.26-10.75 7.14-2.72 14.12-6.08 20.2-10.74 2.96-2.45 5.96-5.12 7.65-8.64.86-4.47.08-9.08.48-13.6-5.63 6.48-13.26 10.78-21 14.25-11 4.99-22.8 7.9-34.64 10.08-21.99 3.73-44.49 4.34-66.66 1.98-14.69-1.6-29.35-4.47-43.21-9.68-9.75-3.9-19.66-8.57-26.69-16.61m.02 20.08c.65 5.21-1.46 11.44 2.39 15.79 5.67 7.06 13.85 11.51 22.06 14.98 16.53 6.83 34.31 10.05 52.05 11.57 22.83 1.76 45.96.58 68.34-4.37 8.78-2.07 17.46-4.73 25.71-8.43 6.75-3.12 13.35-7.01 18.31-12.65 1.49-1.8 3.08-3.8 3.15-6.25.19-3.55 0-7.11.15-10.65-5.69 6.38-13.25 10.71-20.98 14.16-11 4.99-22.81 7.9-34.65 10.08-21.98 3.73-44.48 4.34-66.65 1.98-14.42-1.56-28.78-4.38-42.42-9.38-10.02-3.92-20.17-8.67-27.46-16.83m-.02 20.73c.11 3.89-.19 8.09 1.93 11.55 3.99 6.97 11.14 11.3 18.12 14.83 15.16 7.35 31.86 10.89 48.49 12.95a247.09 247.09 0 0 0 55.11-.01c16.87-2.08 33.8-5.69 49.13-13.26 6.74-3.47 13.61-7.76 17.47-14.51 2.11-3.47 1.83-7.66 1.96-11.56-4.01 4.28-8.79 7.8-13.97 10.53-12.32 6.68-25.95 10.5-39.64 13.11a240.812 240.812 0 0 1-85 0c-13.7-2.61-27.33-6.43-39.65-13.11-5.18-2.73-9.96-6.22-13.95-10.52z"/><path d="M651.93 31.87c1.65-.69 3.37-1.76 5.24-1.26 9.61 1.88 19.18 3.95 28.77 5.94-1.4.86-2.8 1.72-4.19 2.57-6.57-1.44-13.18-2.64-19.74-4.12-2.04-.29-4.25-1.24-6.23-.23-3.46 1.42-6.78 3.14-10.21 4.62 6.93-.02 14.1.54 20.44 3.56 1.59.83 3.55 2.02 3.6 4.05-.12 1.97-1.92 3.21-3.41 4.2-4.38 2.66-9.5 3.74-14.53 4.35-8.25.85-16.75.05-24.57-2.78-2.28-.9-5.03-2.1-5.54-4.79.58-1.11 1.28-2.15 1.98-3.2 2.36.53 4.74 1.01 7.13 1.44-.22.97-.44 1.93-.66 2.89 3.31 2.86 7.77 3.51 11.98 3.9 5.22.41 10.72-.07 15.44-2.52 1.56-.92 3.52-2.17 3.42-4.24-.66-1.08-1.67-1.88-2.82-2.34-5.06-2.04-10.63-2.49-16.02-1.93-3.18.35-6.3-.43-9.36-1.13 6.37-3.11 12.89-5.9 19.28-8.98zm45.34 10.49c7.31-1.24 14.97-.86 22.07 1.31 2.28.87 5.15 1.73 6.07 4.26.42 2.29-1.3 4.2-2.86 5.61-12.14 10.09-29.14 14.28-44.47 10.17-2.55-.74-5.41-1.5-7.05-3.76-1.01-1.37-.47-3.24.47-4.49 1.97-2.71 4.9-4.5 7.7-6.25 5.53-3.39 11.7-5.69 18.07-6.85m8.08 2.09c-7.66.27-14.79 3.67-21.09 7.8-2.19 1.57-4.64 3.18-5.71 5.76-.58 2.57 2.63 3.34 4.49 3.9 11.05 2.68 22.23-2.46 30.94-8.96 1.52-1.38 4.23-3.43 2.83-5.73-3.1-2.66-7.57-2.74-11.46-2.77zm131.58 47.42c1.65-.69 3.37-1.76 5.23-1.26 9.61 1.87 19.19 3.95 28.78 5.94-1.4.86-2.8 1.72-4.19 2.57-6.57-1.44-13.18-2.64-19.73-4.12-2.05-.29-4.25-1.24-6.23-.23-3.46 1.42-6.79 3.14-10.22 4.62 6.92-.02 14.1.53 20.44 3.55 1.59.84 3.55 2.02 3.6 4.06-.13 1.97-1.93 3.21-3.41 4.2-4.38 2.66-9.5 3.74-14.52 4.35-8.26.85-16.76.05-24.59-2.78-2.27-.9-5.02-2.1-5.53-4.79.57-1.11 1.28-2.15 1.98-3.2 2.36.53 4.74 1.01 7.13 1.44-.23.97-.45 1.93-.66 2.89 3.31 2.86 7.77 3.51 11.97 3.9 5.23.41 10.73-.07 15.46-2.52 1.56-.92 3.51-2.18 3.41-4.25-.66-1.07-1.68-1.87-2.82-2.33-5.06-2.04-10.63-2.49-16.02-1.93-3.18.35-6.3-.43-9.36-1.13 6.37-3.11 12.89-5.9 19.28-8.98zm45.34 10.49c7.31-1.24 14.96-.86 22.07 1.31 2.27.87 5.14 1.73 6.07 4.26.42 2.29-1.3 4.19-2.86 5.61-12.13 10.09-29.14 14.28-44.47 10.17-2.55-.74-5.41-1.5-7.05-3.76-1.01-1.36-.47-3.24.47-4.49 1.97-2.71 4.89-4.5 7.7-6.24 5.52-3.4 11.69-5.7 18.07-6.86m8.08 2.09c-7.66.27-14.79 3.67-21.09 7.8-2.18 1.57-4.65 3.16-5.7 5.75-.67 2.21 2.03 3.14 3.65 3.68 11.26 3.18 22.86-2.06 31.77-8.73 1.52-1.38 4.23-3.43 2.83-5.73-3.1-2.67-7.57-2.74-11.46-2.77zm-128.42 92.42c1.65-.69 3.37-1.76 5.24-1.26 9.61 1.88 19.18 3.95 28.77 5.94-1.4.86-2.8 1.72-4.19 2.57-6.56-1.44-13.18-2.64-19.73-4.12-2.05-.29-4.25-1.24-6.24-.23-3.46 1.42-6.78 3.14-10.21 4.62 6.93-.02 14.1.53 20.44 3.56 1.59.83 3.55 2.02 3.6 4.05-.13 1.97-1.93 3.21-3.41 4.2-4.38 2.66-9.5 3.74-14.52 4.35-8.26.85-16.77.05-24.59-2.78-2.28-.91-5.02-2.11-5.54-4.79.59-1.11 1.3-2.15 1.99-3.2 2.36.53 4.74 1.01 7.13 1.44-.23.97-.44 1.93-.66 2.9 3.31 2.85 7.77 3.5 11.98 3.89 5.22.41 10.72-.07 15.44-2.52 1.57-.92 3.52-2.18 3.42-4.25-.66-1.07-1.67-1.87-2.82-2.33-5.06-2.04-10.63-2.49-16.02-1.93-3.18.35-6.3-.43-9.36-1.13 6.37-3.11 12.89-5.9 19.28-8.98zm45.34 10.49c7.31-1.24 14.97-.86 22.07 1.31 2.28.87 5.14 1.73 6.07 4.26.42 2.29-1.3 4.2-2.87 5.62-12.13 10.08-29.13 14.27-44.46 10.16-2.55-.75-5.41-1.5-7.05-3.76-1.01-1.37-.47-3.24.47-4.49 1.97-2.71 4.89-4.5 7.7-6.25 5.52-3.39 11.69-5.69 18.07-6.85m8.08 2.09c-7.66.27-14.79 3.67-21.09 7.8-2.19 1.57-4.64 3.18-5.71 5.76-.58 2.56 2.63 3.34 4.48 3.89 11.06 2.69 22.24-2.44 30.95-8.95 1.53-1.39 4.23-3.43 2.83-5.74-3.11-2.65-7.57-2.73-11.46-2.76z"/></g><path d="M663.35 13.47c11.24-.74 22.51-.08 33.74.73 17.96 1.94 36.1 5.23 52.53 13.05 7.04 3.52 14.34 7.72 18.56 14.62 2.88 4.46 2.81 10.66-.27 15.01-4.16 6.24-10.79 10.27-17.36 13.58-15.17 7.35-31.86 10.9-48.5 12.95a247 247 0 0 1-55.1.01c-16.39-2.02-32.81-5.5-47.81-12.61-7.02-3.48-14.19-7.71-18.43-14.52-2.17-3.23-2.39-7.4-1.46-11.09 2.07-6 7.18-10.25 12.31-13.65 9.37-5.88 19.93-9.6 30.61-12.33 13.49-3.3 27.31-5.18 41.18-5.75m-2.02 5.98c-14.48.98-29.02 3.12-42.72 8.07-6.48 2.38-12.85 5.42-18.06 10.02-3.49 3.13-6.46 7.52-6 12.41.46 5.21 4.28 9.27 8.24 12.3 6.91 5.12 15.09 8.18 23.27 10.61 15.58 4.34 31.8 6 47.93 6.13 16.47-.06 33.04-1.7 48.94-6.13 8.42-2.49 16.84-5.68 23.86-11.08 3.96-3.13 7.69-7.46 7.7-12.78-.02-5.31-3.71-9.67-7.65-12.81-8.61-6.61-19.16-9.96-29.55-12.57-18.32-4.13-37.24-5.29-55.96-4.17zm187.01 54.02c11.25-.74 22.51-.08 33.74.73 17.96 1.94 36.11 5.23 52.54 13.05 7.04 3.52 14.34 7.72 18.56 14.62 2.88 4.46 2.81 10.67-.27 15.01-4.17 6.25-10.79 10.27-17.36 13.58-15.17 7.35-31.86 10.9-48.5 12.95-18.3 2.06-36.81 2.06-55.11 0-16.39-2.01-32.81-5.49-47.8-12.6-6.82-3.38-13.74-7.45-18.05-13.91-3.44-4.79-3.04-11.71.53-16.32 5.17-7.13 13.26-11.31 21.1-14.89 19.15-8.03 39.99-11.2 60.62-12.22m-2.02 5.98c-14.48.98-29.02 3.12-42.72 8.07-6.47 2.38-12.85 5.42-18.05 10.02-3.49 3.13-6.46 7.52-6 12.42.46 5.21 4.28 9.27 8.25 12.29 6.91 5.12 15.08 8.18 23.26 10.61 15.58 4.34 31.79 6 47.93 6.13 16.47-.06 33.04-1.7 48.94-6.13 8.42-2.49 16.84-5.67 23.85-11.08 3.96-3.13 7.69-7.46 7.71-12.78-.02-5.31-3.71-9.67-7.65-12.81-8.61-6.61-19.16-9.96-29.55-12.57-18.32-4.13-37.24-5.29-55.97-4.17zm-72.97 99.02c11.24-.74 22.51-.08 33.73.73 17.97 1.94 36.11 5.23 52.54 13.05 7.05 3.52 14.34 7.72 18.56 14.62 2.88 4.45 2.81 10.66-.26 15-4.17 6.25-10.8 10.28-17.37 13.59-15.17 7.35-31.86 10.9-48.5 12.95a247.09 247.09 0 0 1-55.11.01c-15.87-1.95-31.74-5.29-46.36-11.93-6.12-2.88-12.17-6.26-16.85-11.22-2.82-3.05-5.3-6.91-4.98-11.25-.17-4.29 2.28-8.11 5.06-11.16 5.42-5.67 12.51-9.34 19.6-12.47 18.97-7.8 39.55-10.92 59.94-11.92m-2.02 5.98c-15.01 1.02-30.11 3.27-44.24 8.63-6.36 2.5-12.65 5.63-17.57 10.45-3.26 3.19-5.74 7.75-4.84 12.43.83 4.77 4.41 8.44 8.11 11.29 6.91 5.12 15.09 8.18 23.28 10.61 15.58 4.34 31.79 6 47.93 6.13 16.47-.06 33.03-1.7 48.93-6.13 8.42-2.49 16.84-5.67 23.86-11.08 3.95-3.13 7.68-7.46 7.7-12.78-.02-5.31-3.7-9.67-7.65-12.8-8.61-6.62-19.15-9.97-29.55-12.58-18.32-4.13-37.24-5.29-55.96-4.17z" fill="#ffff5d"/><g fill="#dada00"><path d="M661.33 19.45c18.72-1.12 37.64.04 55.96 4.17 10.39 2.61 20.94 5.96 29.55 12.57 3.94 3.14 7.63 7.5 7.65 12.81-.01 5.32-3.74 9.65-7.7 12.78-7.02 5.4-15.44 8.59-23.86 11.08-15.9 4.43-32.47 6.07-48.94 6.13-16.13-.13-32.35-1.79-47.93-6.13-8.18-2.43-16.36-5.49-23.27-10.61-3.96-3.03-7.78-7.09-8.24-12.3-.46-4.89 2.51-9.28 6-12.41 5.21-4.6 11.58-7.64 18.06-10.02 13.7-4.95 28.24-7.09 42.72-8.07m-9.4 12.42c-6.39 3.08-12.91 5.87-19.28 8.98 3.06.7 6.18 1.48 9.36 1.13 5.39-.56 10.96-.11 16.02 1.93 1.15.46 2.16 1.26 2.82 2.34.1 2.07-1.86 3.32-3.42 4.24-4.72 2.45-10.22 2.93-15.44 2.52-4.21-.39-8.67-1.04-11.98-3.9.22-.96.44-1.92.66-2.89-2.39-.43-4.77-.91-7.13-1.44-.7 1.05-1.4 2.09-1.98 3.2.51 2.69 3.26 3.89 5.54 4.79 7.82 2.83 16.32 3.63 24.57 2.78 5.03-.61 10.15-1.69 14.53-4.35 1.49-.99 3.29-2.23 3.41-4.2-.05-2.03-2.01-3.22-3.6-4.05-6.34-3.02-13.51-3.58-20.44-3.56 3.43-1.48 6.75-3.2 10.21-4.62 1.98-1.01 4.19-.06 6.23.23 6.56 1.48 13.17 2.68 19.74 4.12 1.39-.85 2.79-1.71 4.19-2.57-9.59-1.99-19.16-4.06-28.77-5.94-1.87-.5-3.59.57-5.24 1.26m45.34 10.49c-6.37 1.16-12.54 3.46-18.07 6.85-2.8 1.75-5.73 3.54-7.7 6.25-.94 1.25-1.48 3.12-.47 4.49 1.64 2.26 4.5 3.02 7.05 3.76 15.33 4.11 32.33-.08 44.47-10.17 1.56-1.41 3.28-3.32 2.86-5.61-.92-2.53-3.79-3.39-6.07-4.26-7.1-2.17-14.76-2.55-22.07-1.31z"/><path d="M705.35 44.45c3.89.03 8.36.11 11.46 2.77 1.4 2.3-1.31 4.35-2.83 5.73-8.71 6.5-19.89 11.64-30.94 8.96-1.86-.56-5.07-1.33-4.49-3.9 1.07-2.58 3.52-4.19 5.71-5.76 6.3-4.13 13.43-7.53 21.09-7.8zm140.97 35c18.73-1.12 37.65.04 55.97 4.17 10.39 2.61 20.94 5.96 29.55 12.57 3.94 3.14 7.63 7.5 7.65 12.81-.02 5.32-3.75 9.65-7.71 12.78-7.01 5.41-15.43 8.59-23.85 11.08-15.9 4.43-32.47 6.07-48.94 6.13-16.14-.13-32.35-1.79-47.93-6.13-8.18-2.43-16.35-5.49-23.26-10.61-3.97-3.02-7.79-7.08-8.25-12.29-.46-4.9 2.51-9.29 6-12.42 5.2-4.6 11.58-7.64 18.05-10.02 13.7-4.95 28.24-7.09 42.72-8.07m-9.39 12.42c-6.39 3.08-12.91 5.87-19.28 8.98 3.06.7 6.18 1.48 9.36 1.13 5.39-.56 10.96-.11 16.02 1.93 1.14.46 2.16 1.26 2.82 2.33.1 2.07-1.85 3.33-3.41 4.25-4.73 2.45-10.23 2.93-15.46 2.52-4.2-.39-8.66-1.04-11.97-3.9.21-.96.43-1.92.66-2.89-2.39-.43-4.77-.91-7.13-1.44-.7 1.05-1.41 2.09-1.98 3.2.51 2.69 3.26 3.89 5.53 4.79 7.83 2.83 16.33 3.63 24.59 2.78 5.02-.61 10.14-1.69 14.52-4.35 1.48-.99 3.28-2.23 3.41-4.2-.05-2.04-2.01-3.22-3.6-4.06-6.34-3.02-13.52-3.57-20.44-3.55 3.43-1.48 6.76-3.2 10.22-4.62 1.98-1.01 4.18-.06 6.23.23 6.55 1.48 13.16 2.68 19.73 4.12 1.39-.85 2.79-1.71 4.19-2.57-9.59-1.99-19.17-4.07-28.78-5.94-1.86-.5-3.58.57-5.23 1.26m45.34 10.49c-6.38 1.16-12.55 3.46-18.07 6.86-2.81 1.74-5.73 3.53-7.7 6.24-.94 1.25-1.48 3.13-.47 4.49 1.64 2.26 4.5 3.02 7.05 3.76 15.33 4.11 32.34-.08 44.47-10.17 1.56-1.42 3.28-3.32 2.86-5.61-.93-2.53-3.8-3.39-6.07-4.26-7.11-2.17-14.76-2.55-22.07-1.31z"/><path d="M890.35 104.45c3.89.03 8.36.1 11.46 2.77 1.4 2.3-1.31 4.35-2.83 5.73-8.91 6.67-20.51 11.91-31.77 8.73-1.62-.54-4.32-1.47-3.65-3.68 1.05-2.59 3.52-4.18 5.7-5.75 6.3-4.13 13.43-7.53 21.09-7.8zm-119.02 80c18.72-1.12 37.64.04 55.96 4.17 10.4 2.61 20.94 5.96 29.55 12.58 3.95 3.13 7.63 7.49 7.65 12.8-.02 5.32-3.75 9.65-7.7 12.78-7.02 5.41-15.44 8.59-23.86 11.08-15.9 4.43-32.46 6.07-48.93 6.13-16.14-.13-32.35-1.79-47.93-6.13-8.19-2.43-16.37-5.49-23.28-10.61-3.7-2.85-7.28-6.52-8.11-11.29-.9-4.68 1.58-9.24 4.84-12.43 4.92-4.82 11.21-7.95 17.57-10.45 14.13-5.36 29.23-7.61 44.24-8.63m-9.4 12.42c-6.39 3.08-12.91 5.87-19.28 8.98 3.06.7 6.18 1.48 9.36 1.13 5.39-.56 10.96-.11 16.02 1.93 1.15.46 2.16 1.26 2.82 2.33.1 2.07-1.85 3.33-3.42 4.25-4.72 2.45-10.22 2.93-15.44 2.52-4.21-.39-8.67-1.04-11.98-3.89.22-.97.43-1.93.66-2.9-2.39-.43-4.77-.91-7.13-1.44-.69 1.05-1.4 2.09-1.99 3.2.52 2.68 3.26 3.88 5.54 4.79 7.82 2.83 16.33 3.63 24.59 2.78 5.02-.61 10.14-1.69 14.52-4.35 1.48-.99 3.28-2.23 3.41-4.2-.05-2.03-2.01-3.22-3.6-4.05-6.34-3.03-13.51-3.58-20.44-3.56 3.43-1.48 6.75-3.2 10.21-4.62 1.99-1.01 4.19-.06 6.24.23 6.55 1.48 13.17 2.68 19.73 4.12 1.39-.85 2.79-1.71 4.19-2.57-9.59-1.99-19.16-4.06-28.77-5.94-1.87-.5-3.59.57-5.24 1.26m45.34 10.49c-6.38 1.16-12.55 3.46-18.07 6.85-2.81 1.75-5.73 3.54-7.7 6.25-.94 1.25-1.48 3.12-.47 4.49 1.64 2.26 4.5 3.01 7.05 3.76 15.33 4.11 32.33-.08 44.46-10.16 1.57-1.42 3.29-3.33 2.87-5.62-.93-2.53-3.79-3.39-6.07-4.26-7.1-2.17-14.76-2.55-22.07-1.31z"/><path d="M815.35 209.45c3.89.03 8.35.11 11.46 2.76 1.4 2.31-1.3 4.35-2.83 5.74-8.71 6.51-19.89 11.64-30.95 8.95-1.85-.55-5.06-1.33-4.48-3.89 1.07-2.58 3.52-4.19 5.71-5.76 6.3-4.13 13.43-7.53 21.09-7.8z"/></g><g fill="#ff0"><path d="M578.42 66.26c8.11 8.14 18.82 13 29.5 16.79 21.56 7.26 44.43 9.83 67.09 9.94 22.32-.2 44.84-2.78 66.06-9.95 10.68-3.78 21.39-8.65 29.5-16.78-.22 3.53.29 7.13-.45 10.6-1.69 3.52-4.69 6.19-7.65 8.64-6.08 4.66-13.06 8.02-20.19 10.74-21.48 7.88-44.51 10.53-67.27 10.75-18.86-.1-37.82-1.9-56.07-6.83-8.46-2.41-16.88-5.22-24.57-9.57-5.21-2.83-10.2-6.32-13.87-11.04-3.26-3.66-1.58-8.88-2.08-13.29z"/><path d="M578.4 83.28c7.03 8.04 16.94 12.71 26.68 16.61 13.87 5.21 28.53 8.08 43.23 9.68 21.88 2.33 44.09 1.76 65.81-1.83 15.04-2.67 30.07-6.69 43.47-14.23 5.14-2.75 9.5-6.66 13.85-10.52-2.15 4.78-7.36 6.92-10.35 11.06-3.8 4.51-5.83 10.29-5.95 16.17-7.51 4.47-15.87 7.25-24.22 9.69-18.18 5.05-37.09 6.9-55.91 7.08-18.86-.1-37.82-1.9-56.06-6.83-8.46-2.41-16.89-5.22-24.57-9.57-5.03-2.72-9.83-6.06-13.47-10.52-1.18-1.47-2.4-3.1-2.36-5.08-.17-3.9.05-7.81-.15-11.71z"/><path d="M578.42 103.36c7.29 8.16 17.44 12.92 27.46 16.83 13.64 5 28 7.82 42.42 9.38 21.89 2.33 44.1 1.76 65.82-1.83 14.28-2.55 28.54-6.26 41.4-13.12-.06 4.99.02 9.99-.08 14.99-13.11 7.2-27.75 11.19-42.42 13.72-19.7 3.32-39.82 3.91-59.71 2.23-17.73-1.64-35.48-5-51.9-12.05-7.68-3.39-15.28-7.71-20.6-14.36-3.85-4.35-1.74-10.57-2.39-15.79z"/><path d="M578.44 124.1c6.14 6.79 14.38 11.16 22.69 14.72 16.04 6.71 33.33 9.87 50.56 11.64 23.12 2.02 46.57 1.13 69.34-3.53 11.9-2.55 23.74-6.01 34.51-11.77-.08 4.81-.01 9.63-.1 14.45-13.11 7.2-27.75 11.19-42.42 13.72-19.7 3.32-39.82 3.91-59.71 2.23-17.73-1.64-35.48-5-51.91-12.05-7.68-3.39-15.27-7.71-20.59-14.36-3.71-4.14-1.85-10.06-2.37-15.05zm184.98 2.16c8.11 8.14 18.82 13 29.5 16.79 21.55 7.26 44.43 9.83 67.09 9.94 22.32-.2 44.84-2.78 66.07-9.95 10.67-3.78 21.38-8.65 29.49-16.78-.22 3.53.3 7.13-.45 10.61-1.93 3.91-5.35 6.84-8.74 9.47-7.13 5.08-15.21 8.72-23.51 11.43-20.22 6.71-41.64 9-62.86 9.22-18.86-.1-37.82-1.9-56.06-6.83-8.46-2.41-16.89-5.22-24.57-9.57-5.22-2.83-10.2-6.32-13.88-11.03-3.26-3.66-1.58-8.89-2.08-13.3z"/><path d="M578.44 144.1c6.14 6.79 14.38 11.16 22.68 14.72 16.05 6.71 33.34 9.87 50.57 11.64 23.12 2.02 46.57 1.13 69.34-3.53 11.9-2.55 23.73-6 34.51-11.77-.08 4.82-.02 9.65-.08 14.48-4.37 2.84-9.66 3.14-14.61 4.17-9.08 1.76-18.1 4.01-26.74 7.35-3.61 1.36-7.08 3.29-10.99 3.63-21.86 2.56-44.09 2.26-65.83-1.24-12.77-2.06-25.41-5.37-37.25-10.64-7.18-3.31-14.24-7.49-19.23-13.75-3.71-4.14-1.85-10.06-2.37-15.06zm184.96-.82c7.03 8.04 16.94 12.71 26.68 16.61 13.87 5.21 28.52 8.08 43.22 9.68 22.17 2.36 44.67 1.75 66.66-1.98 11.84-2.18 23.65-5.1 34.65-10.08 7.74-3.47 15.36-7.78 20.99-14.25-.4 4.52.38 9.14-.48 13.61-1.81 3.71-5.02 6.51-8.18 9.05-5.97 4.42-12.73 7.69-19.66 10.32-18.68 6.85-38.59 9.76-58.41 10.53-1.56.16-2.92-.73-4.26-1.32-13.31-6.75-27.97-10.21-42.57-12.8-13.59-2.03-27.34-2.98-41.09-2.62-3.29.43-5.84-1.97-8.34-3.68-3.4-2.63-6.82-5.57-8.74-9.48-.84-4.47-.1-9.08-.47-13.59z"/><path d="M578.44 164.1c6.14 6.79 14.39 11.16 22.7 14.72 16.04 6.71 33.32 9.87 50.55 11.64 14.64 1.25 29.43 1.46 44.07.03-6.08 3.85-11.13 9.31-14.15 15.87-18.73.54-37.56-.97-55.86-5.03-9.04-2.12-17.95-4.87-26.39-8.74-6.94-3.26-13.72-7.37-18.56-13.44-3.7-4.14-1.84-10.06-2.36-15.05zm362.85 10.12c5.3-2.83 10.26-6.38 14.29-10.87-.15 3.54.04 7.1-.15 10.65-.07 2.45-1.66 4.45-3.15 6.25-5.13 5.84-12 9.8-19.01 12.96-14.75 6.46-30.65 9.86-46.59 11.74-3.02-5.99-7.9-10.82-13.44-14.51 12.27-.39 24.49-2.14 36.47-4.84 10.93-2.48 21.69-6.03 31.58-11.38z"/><path d="M578.44 184.1c4.12 4.52 9.18 8.08 14.59 10.88 11.53 6.14 24.19 9.78 36.94 12.35 16.57 3.21 33.48 4.49 50.34 4.06-.02 5 .27 10 .19 15-18.36.45-36.81-1.08-54.76-5.06-9.03-2.12-17.95-4.88-26.39-8.74-6.93-3.26-13.71-7.37-18.54-13.43-3.71-4.14-1.85-10.06-2.37-15.06zm354.43 14.72c8.31-3.56 16.54-7.95 22.69-14.73-.11 3.3.05 6.6-.13 9.9-.07 2.45-1.66 4.46-3.15 6.25-4.96 5.66-11.56 9.54-18.32 12.66-14.39 6.43-29.91 9.87-45.49 11.85-.08-4.98.56-9.98-.14-14.94 15.19-1.95 30.37-5.03 44.54-10.99z"/><path d="M578.44 204.1c6.14 6.79 14.38 11.16 22.69 14.72 13.25 5.56 27.41 8.67 41.62 10.59 12.49 1.76 25.14 2.23 37.74 1.99.01 4.99.01 9.99 0 14.99-18.36.45-36.8-1.08-54.75-5.06-9.26-2.18-18.41-5.01-27.05-9.05-6.89-3.32-13.64-7.51-18.31-13.69-3.19-4.13-1.4-9.7-1.94-14.49zm360.55 11.89c6.13-3.01 11.94-6.83 16.57-11.9-.11 3.3.05 6.6-.13 9.9-.07 2.44-1.66 4.45-3.15 6.25-4.96 5.65-11.56 9.54-18.32 12.66-14.38 6.43-29.9 9.86-45.46 11.85 0-4.98 0-9.96.01-14.93 17.32-2.32 34.75-5.96 50.48-13.83z"/><path d="M578.44 224.1c6.14 6.79 14.38 11.16 22.69 14.72 13.25 5.56 27.4 8.67 41.61 10.58 12.49 1.77 25.14 2.24 37.75 2 .01 4.99.01 9.99 0 14.99-18.36.45-36.8-1.08-54.75-5.06-9.03-2.12-17.95-4.87-26.4-8.74-6.92-3.26-13.7-7.37-18.53-13.43-3.71-4.14-1.85-10.06-2.37-15.06zM938.98 236c6.13-3.02 11.95-6.83 16.58-11.91-.11 3.3.05 6.61-.13 9.91-.07 2.44-1.66 4.45-3.15 6.25-4.96 5.65-11.56 9.53-18.32 12.65-14.38 6.43-29.9 9.86-45.46 11.85 0-4.98 0-9.96.01-14.93 17.31-2.32 34.74-5.96 50.47-13.82zm-250.56-4.74c8.11 8.14 18.82 13 29.5 16.79 21.56 7.26 44.43 9.83 67.09 9.94 22.32-.2 44.84-2.78 66.06-9.94 10.68-3.79 21.39-8.66 29.5-16.79-.22 3.53.3 7.13-.45 10.61-1.93 3.91-5.35 6.84-8.74 9.47-7.13 5.08-15.21 8.72-23.51 11.43-20.22 6.71-41.64 9-62.86 9.22-18.86-.1-37.82-1.9-56.06-6.83-8.46-2.41-16.89-5.22-24.57-9.57-5.22-2.83-10.21-6.32-13.88-11.04-3.26-3.66-1.58-8.88-2.08-13.29z"/><path d="M578.4 244.09c3.99 4.3 8.78 7.8 13.96 10.53 15.55 8.35 33.01 12.41 50.38 14.79 12.5 1.76 25.15 2.23 37.75 1.99 0 4.5.01 8.99 0 13.49-19.28.43-38.68-1.19-57.45-5.73-8.19-2.08-16.28-4.69-23.91-8.36-5.81-2.84-11.53-6.2-15.88-11.06-2.17-2.51-4.08-5.44-4.54-8.78-.3-2.28-.24-4.58-.31-6.87zm362.57 10.88c5.43-2.8 10.45-6.41 14.64-10.89-.13 3.89.15 8.09-1.96 11.56-3.73 6.54-10.33 10.77-16.85 14.19-15.03 7.6-31.7 11.22-48.29 13.43-.01-4.48-.01-8.96 0-13.44 18.04-2.42 36.24-6.27 52.46-14.85zm-252.57-6.69c7.03 8.04 16.94 12.71 26.69 16.61 13.86 5.21 28.52 8.08 43.21 9.68 22.17 2.36 44.67 1.75 66.66-1.98 11.84-2.18 23.64-5.09 34.64-10.08 7.74-3.47 15.37-7.77 21-14.25-.4 4.52.38 9.13-.48 13.6-1.69 3.52-4.69 6.19-7.65 8.64-6.08 4.66-13.06 8.02-20.2 10.74-21.48 7.88-44.5 10.52-67.26 10.75-18.86-.1-37.81-1.9-56.06-6.83-8.46-2.41-16.88-5.22-24.57-9.57-5.03-2.72-9.83-6.06-13.47-10.52-1.18-1.47-2.4-3.1-2.36-5.08-.17-3.9.04-7.81-.15-11.71z"/><path d="M688.42 268.36c7.29 8.16 17.44 12.91 27.46 16.83 13.64 5 28 7.82 42.42 9.38 22.17 2.36 44.67 1.75 66.65-1.98 11.84-2.18 23.65-5.09 34.65-10.08 7.73-3.45 15.29-7.78 20.98-14.16-.15 3.54.04 7.1-.15 10.65-.07 2.45-1.66 4.45-3.15 6.25-4.96 5.64-11.56 9.53-18.31 12.65-8.25 3.7-16.93 6.36-25.71 8.43-22.38 4.95-45.51 6.13-68.34 4.37-17.74-1.52-35.52-4.74-52.05-11.57-8.21-3.47-16.39-7.92-22.06-14.98-3.85-4.35-1.74-10.58-2.39-15.79z"/><path d="M688.4 289.09c3.99 4.3 8.77 7.79 13.95 10.52 12.32 6.68 25.95 10.5 39.65 13.11 28.02 5.04 56.97 5.04 85 0 13.69-2.61 27.32-6.43 39.64-13.11 5.18-2.73 9.96-6.25 13.97-10.53-.13 3.9.15 8.09-1.96 11.56-3.86 6.75-10.73 11.04-17.47 14.51-15.33 7.57-32.26 11.18-49.13 13.26a247.09 247.09 0 0 1-55.11.01c-16.63-2.06-33.33-5.6-48.49-12.95-6.98-3.53-14.13-7.86-18.12-14.83-2.12-3.46-1.82-7.66-1.93-11.55z"/></g><g fill="#2e5c02"><path d="M49.68 92.63c1.61-1.24 3.25-2.46 4.91-3.65 153.27.03 306.55.03 459.82 0 1.65 1.19 3.29 2.41 4.91 3.66 12.73 44.58 25.47 89.15 38.21 133.72.74 2.81 1.94 5.56 1.96 8.52.11 9.04-.19 18.08.24 27.12-.38 10.66-.32 21.34.04 32-.47 11.66-.2 23.33-.27 35H9.5c-.07-11.67.2-23.34-.27-35 .36-10.67.42-21.34.04-32 .43-9.04.13-18.08.24-27.12 0-2.95 1.22-5.7 1.96-8.51 12.74-44.58 25.48-89.16 38.21-133.74M58.25 99c-12.37 43.34-24.76 86.66-37.13 130h526.76c-12.38-43.34-24.77-86.66-37.14-130H58.25M19.51 239.01c-.01 6.66-.01 13.32 0 19.98 176.66.02 353.32.02 529.98 0 .01-6.66.01-13.32 0-19.98-176.66-.02-353.32-.02-529.98 0m0 30c-.01 6.66-.01 13.32 0 19.98 176.66.02 353.32.02 529.98 0 .01-6.66.01-13.32 0-19.98-176.66-.02-353.32-.02-529.98 0m0 30c-.01 6.66-.01 13.32 0 19.98 176.66.02 353.32.02 529.98 0 .01-6.66.01-13.32 0-19.98-176.66-.02-353.32-.02-529.98 0z"/><path d="M278.5 147.89v-4.36h8.5c-.01 1.45 0 2.91 0 4.37 7.03.04 14.04.73 20.99 1.72-1.33 1.25-2.65 2.49-3.98 3.73-5.62-1.01-11.31-1.58-17-1.79-.02 3.4-.01 6.8 0 10.21 6.16.95 12.45 1.74 18.29 4.05 2.38.94 5.01 3.3 3.95 6.14-1.13 2.39-3.79 3.46-6.12 4.3-5.22 1.63-10.71 2.02-16.13 2.51 0 1.88-.01 3.75 0 5.63h-8.49c-.01-1.82-.02-3.63-.02-5.44-7.69-.08-15.41-.34-22.99-1.77 0-1.36-.01-2.72-.01-4.08 7.61 1.23 15.29 2.08 23 2.13.01-3.51.01-7.02.01-10.53-5.68-.8-11.46-1.4-16.89-3.35-2.64-.96-5.54-3.17-5.07-6.34.75-1.98 2.68-3.11 4.51-3.96 5.48-2.42 11.57-2.69 17.45-3.17m-11.08 8.18c2.01 3.95 7.35 3.58 11.07 4.52.01-3.02.01-6.03 0-9.05-3.65.87-9.71.05-11.07 4.53m19.59 9.95c-.01 3.01-.01 6.02-.01 9.03 3.15-.38 6.43-.46 9.38-1.77a3.461 3.461 0 0 0 2.17-3.25c-2.77-3.38-7.62-3.16-11.54-4.01z"/></g><g fill="#adfa66"><path d="M58.25 99h452.49c12.37 43.34 24.76 86.66 37.14 130H21.12c12.37-43.34 24.76-86.66 37.13-130m82.07 28.41c-16.34 5.41-33.73 6.76-50.85 6.61-4.97 20.01-10 40.01-14.97 60.03 16.79-.01 33.83 1.94 49.62 7.88 6.69 2.58 13.31 6.15 17.63 12.05 95.16.03 190.32.03 285.48 0 4.65-6.33 11.9-9.95 19.09-12.61 14.16-5.03 29.22-6.91 44.17-7.34-3.98-20.01-7.99-40.01-11.97-60.01-17.6.11-35.51-1.44-52.18-7.41-7.18-2.68-14.44-6.26-19.09-12.59-81.83-.03-163.67-.03-245.5 0-5.19 6.98-13.43 10.67-21.43 13.39z"/><path d="M264.3 132.43c25.24-2.12 51.16-.8 75.43 6.91 7.3 2.41 14.47 5.59 20.53 10.39 3.78 3.04 7.19 7.22 7.51 12.25.34 4.94-2.62 9.44-6.19 12.59-6.81 5.93-15.31 9.46-23.84 12.13-8.73 2.64-17.67 4.6-26.73 5.64a215.127 215.127 0 0 1-60.02-.97c-7.68-1.34-15.3-3.14-22.69-5.63-7.71-2.61-15.31-6.11-21.39-11.63-3.09-2.88-5.64-6.77-5.7-11.11-.13-4.4 2.31-8.42 5.38-11.38 4.61-4.39 10.32-7.42 16.14-9.88 13.24-5.34 27.41-7.95 41.57-9.31m14.2 15.46c-5.88.48-11.97.75-17.45 3.17-1.83.85-3.76 1.98-4.51 3.96-.47 3.17 2.43 5.38 5.07 6.34 5.43 1.95 11.21 2.55 16.89 3.35 0 3.51 0 7.02-.01 10.53-7.71-.05-15.39-.9-23-2.13 0 1.36.01 2.72.01 4.08 7.58 1.43 15.3 1.69 22.99 1.77 0 1.81.01 3.62.02 5.44H287c-.01-1.88 0-3.75 0-5.63 5.42-.49 10.91-.88 16.13-2.51 2.33-.84 4.99-1.91 6.12-4.3 1.06-2.84-1.57-5.2-3.95-6.14-5.84-2.31-12.13-3.1-18.29-4.05-.01-3.41-.02-6.81 0-10.21 5.69.21 11.38.78 17 1.79 1.33-1.24 2.65-2.48 3.98-3.73-6.95-.99-13.96-1.68-20.99-1.72 0-1.46-.01-2.92 0-4.37h-8.5v4.36z"/><path d="M267.42 156.07c1.36-4.48 7.42-3.66 11.07-4.53.01 3.02.01 6.03 0 9.05-3.72-.94-9.06-.57-11.07-4.52zm19.59 9.95c3.92.85 8.77.63 11.54 4.01 0 1.46-.84 2.7-2.17 3.25-2.95 1.31-6.23 1.39-9.38 1.77 0-3.01 0-6.02.01-9.03z"/></g><path d="M140.32 127.41c8-2.72 16.24-6.41 21.43-13.39 81.83-.03 163.67-.03 245.5 0 4.65 6.33 11.91 9.91 19.09 12.59 16.67 5.97 34.58 7.52 52.18 7.41 3.98 20 7.99 40 11.97 60.01-14.95.43-30.01 2.31-44.17 7.34-7.19 2.66-14.44 6.28-19.09 12.61-95.16.03-190.32.03-285.48 0-4.32-5.9-10.94-9.47-17.63-12.05-15.79-5.94-32.83-7.89-49.62-7.88 4.97-20.02 10-40.02 14.97-60.03 17.12.15 34.51-1.2 50.85-6.61m123.98 5.02c-14.16 1.36-28.33 3.97-41.57 9.31-5.82 2.46-11.53 5.49-16.14 9.88-3.07 2.96-5.51 6.98-5.38 11.38.06 4.34 2.61 8.23 5.7 11.11 6.08 5.52 13.68 9.02 21.39 11.63 7.39 2.49 15.01 4.29 22.69 5.63 19.83 3.12 40.1 3.46 60.02.97 9.06-1.04 18-3 26.73-5.64 8.53-2.67 17.03-6.2 23.84-12.13 3.57-3.15 6.53-7.65 6.19-12.59-.32-5.03-3.73-9.21-7.51-12.25-6.06-4.8-13.23-7.98-20.53-10.39-24.27-7.71-50.19-9.03-75.43-6.91zM19.51 239.01c176.66-.02 353.32-.02 529.98 0 .01 6.66.01 13.32 0 19.98-176.66.02-353.32.02-529.98 0-.01-6.66-.01-13.32 0-19.98zm0 30c176.66-.02 353.32-.02 529.98 0 .01 6.66.01 13.32 0 19.98-176.66.02-353.32.02-529.98 0-.01-6.66-.01-13.32 0-19.98zm0 30c176.66-.02 353.32-.02 529.98 0 .01 6.66.01 13.32 0 19.98-176.66.02-353.32.02-529.98 0-.01-6.66-.01-13.32 0-19.98z" fill="#57ae06"/></svg>