<?xml version="1.0" encoding="utf-8"?>
<svg viewBox="37.23 38.463 843.648 222.916" width="883pt" height="233.314pt" xmlns="http://www.w3.org/2000/svg">
  <g id="#000000ff">
    <path fill="#000000" opacity="1.00" d=" M 91.87 123.52 C 116.94 122.88 142.09 122.91 167.17 123.51 C 142.08 123.96 116.95 123.94 91.87 123.52 Z"/>
    <path fill="#000000" opacity="1.00" d=" M 226.89 180.30 C 232.54 177.34 230.57 184.07 226.89 180.30 Z"/>
    <path fill="#000000" opacity="1.00" d=" M 158.82 242.54 C 162.27 241.81 165.85 241.77 169.31 242.48 C 165.83 242.97 162.30 242.93 158.82 242.54 Z"/>
    <path fill="#000000" opacity="1.00" d=" M 237.61 255.10 C 240.94 252.75 238.33 259.12 237.61 255.10 Z"/>
  </g>
  <g id="#f9f9faff">
    <path opacity="1.00" d=" M 568.70 47.98 C 570.84 48.00 572.99 48.00 575.14 48.04 C 575.10 61.55 575.29 75.05 575.03 88.55 C 584.33 68.10 623.98 65.37 624.51 92.61 C 624.92 108.73 624.56 124.87 624.68 141.00 C 622.51 141.00 620.35 141.00 618.20 141.01 C 618.06 126.00 618.43 110.98 618.01 95.97 C 617.81 89.42 615.27 81.32 607.99 79.76 C 592.77 75.64 576.69 88.74 575.53 104.05 C 574.69 116.34 575.37 128.68 575.15 141.00 C 573.00 141.00 570.85 141.00 568.70 141.00 C 568.70 110.00 568.70 78.99 568.70 47.98 Z" style=""/>
    <path opacity="1.00" d=" M 373.24 56.06 C 375.44 56.01 377.65 55.99 379.87 55.98 C 379.86 62.19 379.88 68.40 379.88 74.61 C 385.64 74.51 391.40 74.53 397.16 74.59 C 397.13 76.61 397.15 78.64 397.11 80.66 C 391.36 80.67 385.61 80.67 379.87 80.66 C 380.17 94.47 379.28 108.34 380.34 122.11 C 381.04 131.11 389.91 137.15 398.61 135.53 C 398.65 137.57 398.67 139.62 398.68 141.67 C 387.65 143.62 375.46 136.81 373.99 125.14 C 372.27 110.41 373.61 95.47 373.20 80.66 C 370.26 80.67 367.32 80.67 364.38 80.67 C 364.40 78.70 364.41 76.73 364.45 74.76 C 367.34 74.51 370.26 74.66 373.16 74.55 C 373.21 68.39 373.15 62.22 373.24 56.06 Z" style=""/>
    <path opacity="1.00" d=" M 514.44 77.45 C 524.81 69.95 541.00 71.12 550.14 80.08 C 549.17 82.01 547.76 83.64 546.48 85.34 C 539.42 79.50 528.79 76.50 520.43 81.38 C 514.63 84.34 513.46 93.22 518.32 97.57 C 526.80 104.97 539.49 105.26 547.42 113.49 C 554.70 121.06 551.99 134.95 542.72 139.66 C 530.57 146.10 514.60 142.48 505.11 132.91 C 506.52 131.22 507.95 129.53 509.37 127.84 C 518.10 136.95 539.06 141.71 544.35 126.96 C 545.73 112.54 527.03 111.97 518.01 105.98 C 506.85 101.30 504.99 84.75 514.44 77.45 Z" style=""/>
    <path opacity="1.00" d=" M 667.41 73.63 C 692.91 65.90 718.51 93.45 709.10 118.35 C 702.81 142.79 668.32 151.21 651.35 132.64 C 632.47 114.95 641.44 78.65 667.41 73.63 M 673.23 79.11 C 649.42 80.54 639.66 113.59 657.17 128.83 C 668.39 140.19 689.15 138.22 698.11 125.02 C 712.97 106.80 697.13 75.73 673.23 79.11 Z" style=""/>
    <path opacity="1.00" d=" M 836.43 77.45 C 846.80 69.95 863.01 71.11 872.14 80.09 C 871.17 82.01 869.76 83.64 868.48 85.34 C 861.42 79.50 850.79 76.50 842.43 81.38 C 836.63 84.34 835.46 93.22 840.32 97.57 C 848.80 104.97 861.50 105.26 869.42 113.49 C 876.70 121.07 873.99 134.95 864.71 139.66 C 852.56 146.10 836.60 142.48 827.11 132.91 C 828.52 131.22 829.94 129.53 831.37 127.84 C 840.10 136.95 861.04 141.71 866.35 126.97 C 867.74 112.55 849.04 111.97 840.01 105.98 C 828.85 101.30 826.99 84.76 836.43 77.45 Z" style=""/>
    <path opacity="1.00" d=" M 403.14 74.27 C 405.54 74.21 407.94 74.18 410.35 74.18 C 417.58 93.37 425.72 112.22 432.50 131.57 C 439.25 113.12 446.81 94.97 453.83 76.62 C 454.50 72.73 459.11 74.54 461.84 74.23 C 453.27 96.54 444.43 118.73 435.75 140.99 C 433.62 141.01 431.49 141.01 429.37 140.98 C 420.66 118.73 411.80 96.54 403.14 74.27 Z" style=""/>
    <path opacity="1.00" d=" M 718.84 74.28 C 721.20 74.21 723.57 74.17 725.95 74.16 C 732.53 93.43 739.53 112.57 745.80 131.95 C 752.20 112.69 759.20 93.64 765.83 74.47 C 768.18 74.43 770.53 74.41 772.90 74.39 C 779.60 93.52 786.56 112.58 792.92 131.83 C 799.10 113.38 805.67 95.07 811.95 76.65 C 812.56 72.65 817.17 74.56 819.94 74.25 C 812.32 96.56 804.27 118.71 796.58 140.99 C 794.19 141.01 791.81 141.00 789.44 140.98 C 782.95 121.92 775.54 103.17 769.41 84.00 C 762.93 103.10 755.97 122.03 749.24 141.04 C 746.90 141.01 744.56 141.00 742.24 140.95 C 734.47 118.72 726.52 96.54 718.84 74.28 Z" style=""/>
    <path opacity="1.00" d=" M 687.34 185.30 C 702.18 170.93 727.54 171.55 743.31 184.09 C 741.36 187.14 739.31 190.12 737.26 193.10 C 726.66 184.75 710.74 182.34 699.23 190.19 C 682.47 201.58 683.77 230.57 701.60 240.31 C 712.72 246.67 726.98 243.36 735.89 234.72 C 735.99 231.15 736.04 227.59 736.08 224.03 C 731.95 223.98 727.82 224.01 723.70 224.00 C 723.70 220.66 723.70 217.33 723.70 214.00 C 731.42 214.00 739.14 213.99 746.86 214.01 C 746.86 226.99 746.92 239.98 746.83 252.97 C 743.34 253.02 739.86 253.00 736.39 253.00 C 736.40 250.67 736.42 248.35 736.50 246.03 C 723.75 257.22 703.41 257.23 690.24 246.78 C 671.44 232.57 670.20 201.29 687.34 185.30 Z" style=""/>
    <path opacity="1.00" d=" M 373.61 176.09 C 377.71 176.03 381.82 176.03 385.93 176.06 C 392.79 192.95 400.71 209.45 406.80 226.64 C 412.87 209.57 420.76 193.20 427.52 176.39 L 428.06 176.01 C 432.02 176.05 435.99 176.02 439.95 176.10 C 442.07 201.71 444.05 227.34 446.19 252.95 C 442.27 253.02 438.36 252.99 434.44 253.01 C 433.30 234.01 430.83 215.07 430.53 196.04 C 425.88 209.96 418.97 223.00 413.34 236.54 C 411.99 241.81 405.54 238.85 401.62 239.53 C 395.55 224.94 388.22 210.85 383.17 195.87 C 382.81 214.95 380.36 233.93 379.34 252.99 C 375.38 253.03 371.42 252.98 367.46 253.01 C 369.47 227.37 371.68 201.74 373.61 176.09 Z" style=""/>
    <path opacity="1.00" d=" M 481.34 176.05 C 485.43 176.03 489.53 176.03 493.62 176.07 C 502.71 201.73 512.10 227.28 521.18 252.94 C 517.08 253.04 512.97 252.99 508.86 253.02 C 506.28 245.74 503.78 238.43 501.17 231.16 C 491.92 231.44 482.66 231.24 473.41 231.28 C 471.00 238.54 468.42 245.73 466.00 252.98 C 461.91 253.01 457.82 253.02 453.74 252.96 C 462.82 227.28 472.17 201.70 481.34 176.05 M 476.61 221.38 C 483.77 221.39 490.94 221.39 498.11 221.37 C 494.48 210.53 489.98 199.93 487.51 188.74 C 484.67 199.87 480.31 210.53 476.61 221.38 Z" style=""/>
    <path opacity="1.00" d=" M 531.19 176.04 C 535.04 176.05 538.89 176.03 542.74 176.06 C 555.72 195.86 570.28 214.67 582.18 235.15 C 580.48 215.51 581.85 195.73 581.40 176.04 C 585.32 176.03 589.24 176.04 593.16 176.05 C 593.14 201.69 593.15 227.33 593.16 252.97 C 588.49 252.35 581.66 255.25 579.29 249.65 C 567.23 230.96 553.10 213.53 542.32 194.06 C 543.53 213.67 542.56 233.36 542.87 253.00 C 538.98 253.00 535.08 253.00 531.19 253.00 C 531.19 227.35 531.19 201.69 531.19 176.04 Z" style=""/>
    <path opacity="1.00" d=" M 630.81 176.65 C 634.29 175.17 639.05 176.41 643.01 176.03 C 652.30 201.65 661.57 227.28 670.66 252.97 C 666.55 253.01 662.44 253.02 658.33 252.98 C 655.83 245.73 653.21 238.53 650.78 231.26 C 641.53 231.26 632.27 231.42 623.02 231.16 C 620.52 238.43 617.94 245.67 615.53 252.96 C 611.43 253.03 607.32 253.00 603.23 252.99 C 612.38 227.53 621.31 201.96 630.81 176.65 M 636.91 189.14 C 634.10 200.15 629.72 210.65 626.13 221.40 C 633.27 221.37 640.42 221.38 647.58 221.39 C 644.01 210.64 639.74 200.12 636.91 189.14 Z" style=""/>
    <path opacity="1.00" d=" M 762.40 176.04 C 777.48 176.06 792.56 175.97 807.65 176.09 C 807.68 179.44 807.68 182.79 807.69 186.14 C 796.50 186.24 785.30 186.23 774.11 186.15 C 774.19 193.81 774.15 201.47 774.13 209.13 C 783.23 209.11 792.32 209.13 801.42 209.11 C 801.41 212.55 801.41 215.98 801.41 219.42 C 792.31 219.46 783.22 219.49 774.13 219.40 C 774.17 227.27 774.14 235.14 774.15 243.01 C 786.00 243.04 797.84 243.01 809.69 243.02 C 809.68 246.34 809.68 249.65 809.65 252.97 C 793.90 253.04 778.15 252.98 762.40 253.00 C 762.41 227.35 762.41 201.69 762.40 176.04 Z" style=""/>
    <path opacity="1.00" d=" M 824.40 176.04 C 839.61 177.88 858.77 170.89 870.74 183.30 C 880.02 194.45 876.68 214.24 862.71 219.95 C 868.96 230.84 874.93 241.90 880.85 252.97 C 876.35 253.01 871.86 253.04 867.37 252.95 C 862.25 242.87 856.70 233.02 851.61 222.93 C 846.45 222.86 841.29 222.87 836.13 222.87 C 836.17 232.91 836.14 242.96 836.15 253.00 C 832.23 253.00 828.31 253.00 824.40 253.00 C 824.42 227.35 824.41 201.69 824.40 176.04 M 836.11 186.16 C 836.19 194.96 836.14 203.76 836.14 212.57 C 842.49 212.30 848.93 213.14 855.22 211.98 C 865.49 209.32 867.01 193.11 858.12 187.95 C 851.16 185.10 843.42 186.59 836.11 186.16 Z" style=""/>
  </g>
  <g id="#353535ff">
    <path fill="#353535" opacity="1.00" d="M 201.88 44.77 C 207.401 35.907 220.791 45.029 215.98 53.83 C 198.36 72.42 179.66 89.97 161.88 108.42 C 186.88 108.91 211.92 107.94 236.89 108.89 C 249.12 110.31 258.54 121.72 258.14 133.95 C 258.28 167.29 258.44 200.67 258.06 234.01 C 258.33 247.77 245.33 258.71 232 258.21 C 178 258.32 123.99 258.21 69.99 258.26 C 63.32 258.38 56.69 256.52 51.08 252.89 C 46.17 248.23 42.17 242.04 42.3 235.02 C 42.21 200.7 42.27 166.37 42.27 132.05 C 42.21 120.9 51.23 110.93 62.07 109.02 C 87.38 107.8 112.83 109.01 138.19 108.42 C 129.04 98.44 118.66 89.56 109.83 79.33 C 104.75 72.4 114.73 63.32 121.29 68.56 C 131.31 77.47 140.28 87.55 150.01 96.8 C 167.36 79.52 184.8 62.32 201.88 44.77 Z M 91.87 123.52 C 116.95 123.94 142.08 123.96 167.17 123.51 C 142.09 122.91 116.94 122.88 91.87 123.52 Z M 61.46 147.29 C 57.22 167.19 58.07 187.87 59.48 208.05 C 60.25 219.57 64.54 232.97 76.47 237.22 C 98.13 244 121.35 240.74 143.71 241.45 C 158.92 241.01 176.2 242.78 189.06 233.04 C 199.73 222.7 199.29 206.3 199.69 192.52 C 199.33 176.28 201.14 159.47 196 143.77 C 191.77 129.83 175.82 126 162.99 125.6 C 139.35 125.23 115.63 124.68 92.02 125.98 C 78.84 126.45 64.12 133.03 61.46 147.29 Z M 223.64 150.44 C 213.39 154.72 213.79 171.58 224.62 174.81 C 234.51 178.91 246.09 167.03 241.45 157.33 C 238.7 150.51 230.27 147.3 223.64 150.44 Z M 218.21 188.22 C 212.53 195.31 217.08 207.15 225.99 208.65 C 235.37 210.75 244.76 200.9 241.55 191.74 C 238.62 181.87 224.01 179.93 218.21 188.22 Z M 158.82 242.54 C 162.3 242.93 165.83 242.97 169.31 242.48 C 165.85 241.77 162.27 241.81 158.82 242.54 Z"/>
    <path fill="#353535" opacity="1.00" d="M 221.5 164.98 C 218.08 154.91 233.538 146.599 237.95 160.17 C 240.01 170.31 224.36 175.38 221.5 164.98 Z"/>
    <path fill="#353535" opacity="1.00" d=" M 225.11 204.38 C 213.11 194.81 230.21 179.59 237.97 192.92 C 238.86 200.44 232.57 206.27 225.11 204.38 Z"/>
  </g>
  <g id="#de4253ff">
    <path fill="#de4253" opacity="1.00" d=" M 96.47 156.47 C 104.74 145.03 119.16 150.49 129.05 156.21 C 140.42 149.52 157.65 144.98 165.07 159.84 C 172.22 183.06 155.56 204.77 135.92 215.12 C 126.85 222.21 118.35 211.13 110.78 206.95 C 96.64 195.35 85.86 173.56 96.47 156.47 Z"/>
  </g>
</svg>