<?xml version="1.0" encoding="utf-8"?>
<svg viewBox="-204.379 66.855 1674.373 571.171" width="1674.373px" height="571.171px" xmlns="http://www.w3.org/2000/svg">
  <g fill="#fff">
    <path d="M131.71 96.71c5.96-5.6 14.12-8.59 22.27-8.53 139.34-.04 278.68.01 418.02-.02 5.39-.08 10.93.07 16.02 2.05 10.6 3.81 18.68 13.64 20.41 24.76.09 35.51-.07 71.02.07 106.53-9.82-1.58-19.8-.57-29.69-.8-.18-3.89-.27-7.79-.2-11.69.08-32.23-.08-64.45.08-96.67h-.51c-143.05-.02-286.11.01-429.16-.02-.04 82.1-.01 164.2-.02 246.3-.66-1.21-1.29-2.44-2.2-3.47-3.02-3-9.05-2.14-10.74 1.9-.43 1.96.1 3.98.23 5.97-4.93-.04-9.86-.03-14.79.01v-90.36c5.56-.02 11.12.04 16.68-.05-.04-17.21 0-34.41-.01-51.62H121.5v-14.5c5.49.01 10.97-.03 16.46.02.09-17.23.01-34.46.04-51.69-5.5 0-11 0-16.5.01-.01-11.62.01-23.23-.01-34.85-.04-8.73 3.77-17.39 10.22-23.28z"/>
    <path d="M275.17 174.17h182.66c0 52.94 0 105.88.01 158.83H275.16c.01-52.95.01-105.89.01-158.83m20.2 21.15c-1.31 1.29-.2 3.68 1.6 3.49 19.34.08 38.69-.03 58.03.05 1.35-.13 3.03.35 4.02-.89 1.07-1.39-.29-3.62-2.01-3.27-19-.09-38 .01-57.01-.05-1.5.24-3.45-.51-4.63.67m79.88-.11c-1.07 1.39-.27 3.88 1.71 3.59 19.69.08 39.38 0 59.07.04 1.2.06 3.35-.1 3.19-1.84.34-2-1.65-2.54-3.21-2.34-18.67 0-37.34.03-56.02-.01-1.57.14-3.34-.33-4.74.56m-79.02 9.1c-2.49.76-1.37 4.59 1.13 4.14 19.53.12 39.06.01 58.59.05 1.64.14 3.66-.44 3.45-2.51-.39-2.15-2.82-1.8-4.4-1.84-19.58.13-39.19-.19-58.77.16m79.97-.02c-2.53.8-1.38 4.68 1.16 4.17 19.53.1 39.06.01 58.59.04 1.59.15 3.58-.52 3.29-2.51-.2-2.17-2.73-1.79-4.23-1.84-19.6.12-39.22-.16-58.81.14M303 232v58.17h46.33v34.5c24.89.01 49.77-.02 74.65.01.02-19.4.06-38.8-.02-58.2-15.43.05-30.86.01-46.29.02 0-11.5-.02-22.99.01-34.48-24.89-.04-49.79-.01-74.68-.02zm170.84-46c5.61.01 11.23-.03 16.85.03-.04 4.31-.04 8.63 0 12.94-5.62.06-11.24.02-16.85.03-.01-4.34-.01-8.67 0-13zm24.62.06c5.62-.11 11.25-.05 16.87-.06v13c-5.62-.02-11.24.05-16.86-.05.04-4.3.04-8.6-.01-12.89zm-24.62 18.61c5.59-.01 11.18.01 16.78-.03.07 4.34.05 8.68.04 13.02-5.58.01-11.17-.02-16.75.03-.12-4.34-.09-8.68-.07-13.02zm24.65 12.99c.01-4.34 0-8.67.02-13 5.61.01 11.21 0 16.82.01 0 4.31-.01 8.63.03 12.95-5.63.09-11.25.04-16.87.04zm22.49 13.4c3.88-1.24 8.01-.84 12.02-.9 101 .01 202 .01 303 0 3.64.06 7.37-.3 10.93.69 7.02 1.75 12.95 7.28 15.23 14.15 1.53 4.16 1.14 8.65 1.17 13 0 62.91.01 125.83 0 188.74-8.11-.14-16.22-.05-24.33-.07-111.04.01-222.08-.03-333.11.02-.12-2.23-.23-4.46-.26-6.68.06-64.01-.03-128.01.04-192.01 1.44-7.91 7.57-14.74 15.31-16.94m4.19 16.61c0 61.27 0 122.55-.01 183.83h316.17V247.67H525.17z"/>
    <path d="M629.32 290.02c38.23-.04 76.45-.01 114.68-.02-.03 41.84.05 83.68-.04 125.53-38.21-.06-76.42-.01-114.63-.03-.01-41.83.02-83.66-.01-125.48m71.35 7.65c0 6.16-.01 12.33 0 18.5 3.44-.01 6.88 0 10.33-.01 0 3.23-.01 6.45 0 9.68 6.39-.01 12.78-.01 19.17-.01 0-6.15-.03-12.3.01-18.45-3.45-.06-6.9-.06-10.35-.05v-9.66h-19.16m-58.39 8.77c-1.93 1.28-.24 3.64 1.64 3.21 11.36.07 22.72-.03 34.08.04 1.37-.03 2.84.11 4.09-.63 0-.55-.01-1.67-.01-2.23-1.59-.75-3.4-.45-5.08-.52-11.58.13-23.16-.15-34.72.13m-.29 7.54c-.14.49-.42 1.46-.55 1.94.8 1.78 3.03 1.07 4.56 1.27 10.67-.04 21.34-.04 32 0 1.28-.29 3.83.61 4.14-1.23.63-2.09-1.73-2.25-3.13-2.14-12.34.12-24.69-.19-37.02.16m37.22 19.4c-10.71 1.72-20.63 8.28-26.04 17.74-6.28 10.62-6.06 24.71.55 35.14 4.76 7.75 12.58 13.41 21.29 15.89 12.78 3.69 27.49.27 36.96-9.18 7.15-6.79 11.13-16.76 10.52-26.61-.45-9.69-5.37-18.95-12.88-25.02-8.34-6.89-19.76-9.78-30.4-7.96zm75.13-33.89c3.48.01 6.95.01 10.44-.03.06 3.4.06 6.81.05 10.21-3.5-.01-7-.01-10.49-.01-.01-3.39-.01-6.78 0-10.17zm15.48.07c3.55-.08 7.11-.08 10.68-.05 0 3.38 0 6.76.01 10.15-3.54 0-7.07 0-10.6.03-.09-3.38-.1-6.76-.09-10.13zm-15.49 14.61c3.5-.01 7-.01 10.5 0 0 3.38 0 6.77.01 10.16-3.49 0-6.98 0-10.46.03-.06-3.4-.06-6.8-.05-10.19zm15.51 0c3.56-.02 7.13-.02 10.7.06-.05 3.36-.05 6.73-.05 10.11-3.56-.01-7.11-.01-10.65-.01-.01-3.39-.01-6.78 0-10.16zm397.8 19.88c1.95-.01 1.34 2.58 3.06 2.54l-.16.6c.47.94 1.06 1.81 1.75 2.62 3.05 4.11 5.64 8.55 8.55 12.77-4.31.98-8.6 2.06-12.93 2.9-1.16-1.73-2.78-1.12-3.79.33-.44.37-1.34 1.1-1.79 1.47 1.18-6.04 3.18-11.9 4.27-17.94l.84.4c-.02-1.9.06-3.8.2-5.69zm-402.58 9.41c5.14.06 10.29.03 15.44.04 0 3.38 0 6.77.01 10.16-5.17.02-10.32-.01-15.48.03-.05-3.41-.05-6.82.03-10.23zm-593.37 19.07c100.48.05 200.96.02 301.44.01.11 21.68-.04 43.37.08 65.05-3.74-.16-7.48-.08-11.21-.09-92.5 0-184.99.01-277.49 0-4.2-21.67-8.42-43.34-12.82-64.97m188.54 18.84c-5.26 1.76-9.16 7.04-9.09 12.62-.15 4.86 2.57 9.7 6.86 12.02 4.65 2.64 10.87 2.22 15.06-1.12 4.76-3.58 6.45-10.47 4.16-15.92-2.51-6.51-10.46-10.02-16.99-7.6zm404.83-12.9c5.14.05 10.29.02 15.44.03 0 3.38 0 6.77.01 10.16-5.17.02-10.32-.02-15.48.03-.05-3.41-.05-6.82.03-10.22zM909 398c21.15-.11 42.31.22 63.46-.17l-.14.57c-.41 1.5-.37 3.08-.38 4.63.19 11.99-.08 23.98.08 35.97-.04 5.44-.21 10.91.41 16.34-21.14-.2-42.29-.28-63.43-.34v-57m5.15 4.41c-.04.4-.11 1.2-.15 1.6l.38.52c17.49.31 35.01.07 52.52.12.01-.58.03-1.73.03-2.3-17.59.02-35.19-.12-52.78.06zm-772.61.18c6.88-.03 13.76-.26 20.64-.29 4.58 26.79 9.21 53.57 13.76 80.36-38.29.02-76.58-.01-114.87.02-4.86-25.66-9.64-51.34-14.47-77.01 30.8-.04 61.59.05 92.39-.04 1.77.24 2.1-1.84 2.55-3.04M85.85 438c.76 4.22 1.51 8.45 2.26 12.67 6.27-.02 12.54 0 18.81-.01-.93-4.22-1.87-8.44-2.81-12.66H85.85zm894.27-28.83c2.31.02 4.62-.21 6.94-.09 3.18 1.09 3.63 4.97 3.73 7.87.07 6.7.09 13.41-.02 20.11 0 1.83-.75 4.04-2.68 4.62-2.62.62-5.32.03-7.97.15.03-1.45.04-2.89.06-4.33 3.28.58 6.74-1.97 6.62-5.42.05-4.71.12-9.42-.05-14.12-.1-2.05-2.04-3.16-3.37-4.41-.8.07-2.39.2-3.19.26-.02-1.55-.04-3.1-.07-4.64zm134.02 10.82c2.71.01 5.42.01 8.15.01 3.27 9 2.68 18.84.43 28h-8.07c2.24-9.16 2.92-19.04-.51-28.01zm67.43.01c2.71 0 5.43 0 8.16-.02 3.22 8.96 2.67 18.74.46 27.86-2.71-.01-5.4-.01-8.09 0 2.26-9.12 2.87-18.92-.53-27.84zm-73.58 34.83h10.02c2.09 6.14 4.17 12.87 2.24 19.32-.37 2.5-.34 5.2-1.67 7.42-3.15 1.02-6.67.27-9.94.86 1.22-5.07 2.46-10.23 2.17-15.48-.07-4.2-1.39-8.23-2.82-12.12zm83.28-.01c3.33.02 6.66.01 10.01.01 3.91 8.7 3.15 18.57.67 27.55-3.35-.42-6.72-.39-10.03.09 2.7-8.99 3.41-18.94-.65-27.65zm-715.74 6.7c54.75-.08 109.51.05 164.26-.07.59 3.99 1.59 8.26 4.67 11.1 2.23 2.22 5.41 3.21 8.52 3.12 20.34.01 40.69-.02 61.03.01 3.62.28 6.75-2.11 9.14-4.57 2.51-2.56 3.32-6.17 3.69-9.62 54.72 0 109.45.03 164.17-.01-.02 6.93-3.29 13.61-8.76 17.87-3.42-.14-6.83-.21-10.24-.19-129.32.07-258.64-.08-387.96.07-5.25-4.34-8.54-10.86-8.52-17.71z"/>
  </g>
  <path d="M505.23 255c-.03-2.34.09-4.69.44-7-.07 64 .02 128-.04 192.01.03 2.22.14 4.45.26 6.68 111.03-.05 222.07-.01 333.11-.02 8.11.02 16.22-.07 24.33.07.01 3.34 0 6.68-.04 10.03-119.32-.05-238.64-.01-357.96-.02-.19-67.25 0-134.5-.1-201.75zm-21.18 224.23c129.32-.15 258.64 0 387.96-.07 3.41-.02 6.82.05 10.24.19-2.27 1.42-4.6 2.83-7.2 3.53-3.91 1.16-8.04.71-12.05.79-122-.01-244 0-366.01-.01-4.69.08-9.1-1.88-12.94-4.43z" fill="#d2d4e7"/>
  <g fill="#202985">
    <path d="M139.31 85.25c4.73-1.59 9.67-2.61 14.68-2.58 140.67-.01 281.34 0 422.01 0 10.62-.24 21.25 4.1 28.43 11.98a44.92 44.92 0 0 1 4.32 5.58c1.46 2.48 2.71 5.1 3.67 7.82.42 1.44.83 2.88 1.16 4.35 1.04 5.13.72 10.39.75 15.6.01 32.45-.01 64.89.01 97.34 75.55-.02 151.11.01 226.66-.02 6.8-.17 13.64 2.38 18.61 7.04 5.45 4.95 8.62 12.27 8.56 19.63-.01 68.23 0 136.45 0 204.68 9.23 0 18.46-.01 27.7 0-.03 4.83.06 9.81-1.71 14.4-1.54 4.48-4.56 8.25-7.94 11.49 7.61-.11 15.22-.08 22.84-.02-3.22-3.79-5.74-8.43-5.56-13.54v-76.5H978c-.01 3.67-.01 7.34 0 11.01 3.2.02 6.4-.16 9.61.07 3.49.4 6.29 3.22 7.51 6.4 1.45 3.82 1.18 8 1.23 12.02-.11 5.3.14 10.6-.1 15.9-.11 3.61-2.1 7.29-5.54 8.71-4.05 1.53-8.46.64-12.67 1.01-.15 7.48.09 14.96-.1 22.44-.1 4.76-2.53 9.06-5.65 12.51 11.12-.18 22.25.04 33.38-.12 3.18-6.23 5.6-13.5 3.52-20.47-1.29-5.06-5.08-8.83-8.38-12.65 9.78 0 19.57 0 29.36.01 3.3-6.88 5.38-14.75 3.61-22.35-.97-4.74-3.99-8.64-6.72-12.49H1147c4.36.02 8.74-.1 13.1.15-2.11-1.64-4.44-3.67-4.23-6.63.03-4.98-.41-10.04.29-14.98 1.11-4.08 5.71-5.07 9.39-4.86-2.24-10.38-4.88-20.68-6.86-31.1 2.3-11.1 5.28-22.07 7.91-33.1 5.46 8.32 10.87 16.68 16.33 25.01 1.85 2.73 1.98 6.12 2.68 9.25 1.7 8.47 3.15 16.99 5.05 25.42.6-4.53.27-9.1.34-13.65.04-17.37-.07-34.75.05-52.11-.11-2.88 2.4-5.4 5.24-5.47 6.89-.28 13.8.01 20.7-.12 2.63.03 5.84-.24 7.69 2.08 1.44 1.49 1.27 3.7 1.34 5.61-.04 20.73-.02 41.46-.01 62.19 5.45-8.91 10.9-17.82 16.25-26.79-.48-3.2-.82-6.58.48-9.63 1.37-3.7 4.62-6.17 7.69-8.42 7.02-5.03 14.6-9.21 22.2-13.3-.24 8.89-.66 17.81-2.12 26.6-.67 3.72-1.62 7.69-4.45 10.41-2.52 2.62-6.11 3.7-9.58 4.35-4.31 7.64-8.68 15.26-13.01 22.89 2.15.01 4.32-.06 6.49.12 3.25.22 6.02 3.21 5.99 6.47.11 4.4.1 8.8.01 13.2.05 3.05-2.28 5.91-5.26 6.51-2.05.35-4.13.22-6.18.28-.06 18.38 0 36.75-.02 55.12.14 4.75-2.34 8.99-5.28 12.52 5.48-.05 10.96-.01 16.45-.02 0 12.16-.01 24.33 0 36.5-77 .01-154 0-231 0 0 31.33-.01 62.66 0 93.99-.02 3.67.09 7.34-.16 11.01h-6.34c0-29-.01-58.01 0-87.01 0-6 .01-11.99-.01-17.98-9.11-.02-18.22-.02-27.32 0-.02 5.99-.01 11.98-.01 17.98 0 24.67.01 49.34 0 74.01-.03 4.33.29 8.7-.42 13h-6.07c-.02-35 0-70-.01-105-101.46.04-202.92-.09-304.38.06-44.33-.15-88.66-.02-132.99-.06H276.83c0 31.33 0 62.66.01 94-.02 3.66.1 7.34-.19 11h-6.25c-.16-29-.02-58.01-.07-87.01 0-6 .01-11.99-.01-17.98-9.11-.02-18.21-.01-27.31-.01-.02 5.99-.01 11.98-.01 17.97V612c-.04 3.99.36 8.05-.51 12h-5.95c-.08-34.99-.03-69.99-.03-104.98-77.67-.05-155.35.01-233.02-.04.03-12.16 0-24.32.01-36.48h11.8c6.11-35.61 12.22-71.22 18.29-106.84 6.41.02 12.83-.01 19.24.02.34-2.33.41-4.91 2.06-6.78 2.8-3.59 8.67-3.89 11.89-.69 2.1 1.9 2.33 4.87 3.02 7.44 15.4.04 30.8 0 46.2.02v-103H81.33c0-17.22.01-34.45 0-51.67 11.56-.01 23.11 0 34.67 0v-14.5c-11.61 0-23.21-.01-34.82.01-.03-17.23 0-34.45-.01-51.68 11.61 0 23.22 0 34.83.01-.02-7.93.06-15.86-.05-23.78.15-7.44-.65-15.11 1.72-22.3 3.26-10.54 11.47-19.32 21.64-23.51m-7.6 11.46c-6.45 5.89-10.26 14.55-10.22 23.28.02 11.62 0 23.23.01 34.85 5.5-.01 11-.01 16.5-.01-.03 17.23.05 34.46-.04 51.69-5.49-.05-10.97-.01-16.46-.02V221h16.67c.01 17.21-.03 34.41.01 51.62-5.56.09-11.12.03-16.68.05v90.36c0 4.2 0 8.4-.02 12.6 2.01.02 4.03.03 6.04.06.21-2.22.17-4.68 1.67-6.49 2.62-3.73 8.5-4.29 11.85-1.23 2.3 1.87 2.65 5.01 3.27 7.71 6.3-.03 12.6-.01 18.91-.01 2.98 17.27 5.91 34.55 8.88 51.83h12.41c92.5.01 184.99 0 277.49 0 3.73.01 7.47-.07 11.21.09 9.09.29 18.19.05 27.29.12v-65.54c-10.5-.06-21 .13-31.5-.17H149.07c0-1.13-.02-2.26-.07-3.38.01-82.1-.02-164.2.02-246.3 143.05.03 286.11 0 429.16.02.06 33.55 0 67.1.03 100.66a182 182 0 0 0 .21 12.36c10.13-.06 20.25 0 30.38-.03.09-2.44.19-4.88.2-7.32.01-32.34-.01-64.68.01-97.01-.02-2.03-.26-4.04-.58-6.03-1.73-11.12-9.81-20.95-20.41-24.76-5.09-1.98-10.63-2.13-16.02-2.05-139.34.03-278.68-.02-418.02.02-8.15-.06-16.31 2.93-22.27 8.53M155.67 119c-.01 78.82.01 157.64-.01 236.46 4.11.22 8.22.19 12.34.18 100.66-.02 201.33 0 302-.01 10.16-.23 20.33-.08 30.49-.13.02-5.16-.02-10.32.06-15.48-9.12-.42-18.25-.08-27.38-.19h-277c0-68.27.01-136.55-.01-204.82 111-.02 222-.01 333-.01.14 29.92-.26 59.85.22 89.76 14.05-.16 28.1.01 42.15-.08.32-35.22.02-70.43.16-105.64-138.67-.09-277.35-.02-416.02-.04m47.34 22.86c-.03 8.48-.01 16.96-.01 25.44 106.44.05 212.87.07 319.3-.01.06-8.47.07-16.95-.01-25.43-106.42-.04-212.85-.03-319.28 0M86.65 160.4c.04 13.53 0 27.07.02 40.6 11.13 0 22.27.01 33.4-.01 4.16.02 8.31.04 12.47-.05-.08-13.53-.02-27.06-.03-40.59-15.29 0-30.58-.31-45.86.05m116.39 13.74c-.09 52.95-.02 105.9-.03 158.85 21.76.01 43.53.01 65.29 0 .08-47 .01-93.99.04-140.99-.04-5.95.1-11.9-.1-17.85-21.74.02-43.47.03-65.2-.01m72.13.03c0 52.94 0 105.88-.01 158.83h182.68c-.01-52.95-.01-105.89-.01-158.83H275.17m189.59-.02c-.21 16.63-.07 33.27-.08 49.91-.52 2.14 2.14 1.47 3.31 1.65 17.8-.36 35.61-.3 53.42-.16.62-3.15 1.04-6.34.96-9.55-.13-13.95.11-27.9-.13-41.85-19.16.02-38.32.02-57.48 0M86.82 226.56c.03 13.53 0 27.07.02 40.6 11.07.01 22.14.01 33.21 0 4.21.02 8.43.05 12.65-.08-.08-13.53.01-27.06-.05-40.59-15.27.05-30.56-.32-45.83.07m434.16 4.5c-7.74 2.2-13.87 9.03-15.31 16.94-.35 2.31-.47 4.66-.44 7 .1 67.25-.09 134.5.1 201.75 119.32.01 238.64-.03 357.96.02.04-3.35.05-6.69.04-10.03.01-62.91 0-125.83 0-188.74-.03-4.35.36-8.84-1.17-13-2.28-6.87-8.21-12.4-15.23-14.15-3.56-.99-7.29-.63-10.93-.69-101 .01-202 .01-303 0-4.01.06-8.14-.34-12.02.9m-56.58 3.02c.13 8.28.13 16.55 0 24.83 12.06.16 24.12.2 36.18-.07.17-3.33.19-6.66.06-9.99.24-2.11.92-4.12 1.37-6.18 1.5-2.98 3.09-5.93 5.05-8.64-14.22.01-28.44-.16-42.66.05m.32 32.94c-.56 7.95-.03 15.92-.32 23.89 12.05.17 24.12.2 36.17-.07.39-7.8.25-15.61-.11-23.4-11.91-.21-23.83-.01-35.74-.42m0 32.01c-.36 11.32-.16 22.66-.11 33.99 11.92-.01 23.84-.01 35.76-.04.51-11.16.42-22.32.01-33.48-11.89-.19-23.78-.02-35.66-.47m731.26 18.49c.02 4.1.01 8.21.03 12.32 4.89 0 9.79-.08 14.68.09-.01 1.34-.02 2.68 0 4.03-4.91.07-9.82.03-14.72.04.02 1.85.05 3.7.11 5.55 2.49-.04 4.99-.06 7.51-.09.02 1.4.05 2.8.1 4.2-2.57 0-5.14 0-7.69.01-.01 1.88-.01 3.77 0 5.66 4.89.01 9.79 0 14.69.01-.05 1.39-.08 2.79-.09 4.19-4.85-.05-9.69-.01-14.52-.07-.06 1.84-.09 3.68-.11 5.53 2.56 0 5.13.02 7.71.05-.01 1.34 0 2.68.02 4.03-2.57.07-5.14.1-7.69.11-.02 2.33-.02 4.65-.01 6.99 4.9 0 9.81-.02 14.73.01-.08 1.39-.14 2.79-.18 4.19-4.84-.06-9.68-.02-14.51-.06-.04 2.28-.05 4.56-.05 6.85 2.56 0 5.13.01 7.71.02-.03 1.45-.05 2.9-.05 4.36-2.51-.06-4.99-.09-7.47-.15 0 .72.01 2.18.02 2.9 8.18-.04 16.37-.04 24.57 0 .52-23.58.07-47.18.25-70.77-8.34-.31-16.7-.31-25.04 0m55.73 25.19c-2.08 1.6-4.19 3.56-4.69 6.25-.91 3.75.9 7.9 4.22 9.85 3.45 2.28 8.36 1.58 11.23-1.34 1.93-1.88 2.45-4.64 3-7.16 1.04-5.81 1.47-11.7 1.83-17.57-5.35 3.07-10.68 6.23-15.59 9.97m-84.07-8.66c-.14 1.89-.22 3.79-.2 5.69l-.84-.4c-1.09 6.04-3.09 11.9-4.27 17.94l-.28.34c2.44 10.24 4.29 20.66 7.46 30.7l2.18.05c-.39-3.36-1.66-6.61-1.34-10.03.91.11 1.82.23 2.75.36.79 3.18 1.62 6.35 2.39 9.53 4.09.05 8.18.01 12.28.08-1.94-11.97-4.46-23.86-6.93-35.73-2.91-4.22-5.5-8.66-8.55-12.77-.69-.81-1.28-1.68-1.75-2.62l.16-.6c-1.72.04-1.11-2.55-3.06-2.54m77.31 27.04c-.59 2.66-2.25 4.85-3.71 7.08-1.19 1.13-2.31 2.34-3.11 3.78-3.14 5.42-6.64 10.64-9.38 16.27 2.84.04 5.7.05 8.56.1 2.83-4.52 5.69-9.04 8.08-13.81.99-3.18 2.63-6.07 4.3-8.93.35-.21 1.06-.63 1.41-.84-1.44-.43-2.83-.91-4.22-1.41-.56-.85-1.16-1.61-1.93-2.24M135.38 371.47c-1.15.26-2.35 1.22-2.2 2.53.45 3.67 1.15 7.31 2.05 10.89.81 2.55 4.82 1.84 4.87-.76-.53-3.73-1.13-7.47-2.14-11.1-.25-1.09-1.58-1.56-2.58-1.56m-76.11.79c-1.26 1.36-.33 3.26-.19 4.84.57 2.64.85 5.36 1.69 7.94.95 2.48 4.96 1.54 4.78-1.04-.42-3.59-1.21-7.14-2-10.66-.39-1.89-3-2.47-4.28-1.08m-17.25 8.97c1.24 6.64 2.5 13.29 3.74 19.94 29.41-.02 58.83.02 88.24-.02 2.56.12 5.54-.6 7.54 1.44-.45 1.2-.78 3.28-2.55 3.04-30.8.09-61.59 0-92.39.04 4.83 25.67 9.61 51.35 14.47 77.01 38.29-.03 76.58 0 114.87-.02-4.55-26.79-9.18-53.57-13.76-80.36-1.21-7.04-2.42-14.08-3.62-21.13-4.37-.01-8.75.01-13.13-.02.34 2.67.4 5.65-1.52 7.8-2.72 3.68-8.56 4.08-11.84.94-2.54-2.14-2.65-5.71-3.3-8.72-19.28-.02-38.56.01-57.85-.01.26 2.53.37 5.32-1.28 7.46-2.5 3.8-8.32 4.52-11.76 1.59-2.83-2.12-2.96-5.89-3.66-9.05-4.07 0-8.13.04-12.2.07m-6.98 18.74c-4.72 27.62-9.47 55.24-14.17 82.87 11.54-.01 23.08.27 34.62.16-6.03-31.82-11.84-63.68-18-95.47-1.27 4.04-1.67 8.28-2.45 12.44m1127.3-6.51c-.29.16-.87.47-1.16.63-.68 4.89-.45 9.94-.12 14.86 2.56 1.84 6 .38 8.93.6 22.67-.12 45.34.01 68.02-.07 2.99-.04 5.99.2 9 .33 1.28-.01 2.87.25 3.79-.95.36-4.62.3-9.29.07-13.92-.04-1.95-2.58-1.55-3.86-1.64-28.22.16-56.46-.15-84.67.16M909 398v57c.06 5.02-.15 10.05.08 15.07.36 6.44 6.49 11.81 12.88 11.7 12.35.06 24.71.03 37.06.02 6.73.37 13.21-5.42 13.44-12.18.18-4.87-.09-9.74.08-14.61.64-7.99.12-16 .42-24-.29-10.91.15-21.86-.32-32.74l-.32.14.14-.57c-21.15.39-42.31.06-63.46.17m71.12 11.17c.03 1.54.05 3.09.07 4.64.8-.06 2.39-.19 3.19-.26 1.33 1.25 3.27 2.36 3.37 4.41.17 4.7.1 9.41.05 14.12.12 3.45-3.34 6-6.62 5.42-.02 1.44-.03 2.88-.06 4.33 2.65-.12 5.35.47 7.97-.15 1.93-.58 2.68-2.79 2.68-4.62.11-6.7.09-13.41.02-20.11-.1-2.9-.55-6.78-3.73-7.87-2.32-.12-4.63.11-6.94.09m218.26 5.26c4.35 11.01 5.47 23.62 1.65 34.94 3.8.01 7.61-.01 11.43-.02 4.81 9.94 6.63 21.76 2.94 32.37 4.86.09 9.75.34 14.62-.08 5.68-.65 10.49-5.88 10.46-11.65.02-18.5.24-37.01.05-55.52-13.72-.12-27.44-.04-41.15-.04M1037.27 420c3.98 8.87 3.12 19.13-.4 28 20.42-.01 40.84.02 61.26-.02 1.6 0 3.21.01 4.84.02 3.32-8.99 2.88-18.96-.29-27.92-4.92-.14-9.85-.09-14.77-.05-16.88-.08-33.76 0-50.64-.03m70.72.01c2.83 9.05 3.17 18.89.32 27.99 2.1-.01 4.22 0 6.34 0h8.07c19.79-.03 39.59.11 59.38-.16 2.69-.01 5.38-.01 8.09 0l4.59-.03c3.33-8.92 2.51-18.76-.17-27.73-1.64-.05-3.27-.08-4.88-.1-2.73.02-5.45.02-8.16.02h-59.28c-2.73 0-5.44 0-8.15-.01-2.06 0-4.11.01-6.15.02M173.05 433c2.83 16.5 5.65 33 8.49 49.5h124.5c1.49.23 2.41-1.41 3.89-1.29 4.18-.31 8.41-1.09 12.07-3.22 5.87-3.27 9.53-9.39 11.48-15.65 2.87-9.48 2.82-19.58 1.74-29.34H173.05m167.76 0c1.15 12.49 1.05 25.72-4.52 37.25-1.98 4.26-5.16 7.8-8.65 10.89 25.03.07 50.06.02 75.1.03-3.63-3.14-6.89-6.79-8.88-11.2-5.41-11.42-5.55-24.48-4.39-36.83-16.22.1-32.44-.28-48.66-.14m54.29 0c-1.21 10.46-1.19 21.36 2.39 31.38 2.39 6.65 7.25 12.79 14.1 15.15 3.24 1.3 6.75 1.37 10.16 1.85.23.28.69.85.92 1.13 19.2 0 38.4-.04 57.59.02-3.67-3.48-6.8-7.66-8.25-12.56-1.5-4.27-1.18-8.86-1.17-13.3 9.89-.01 19.78.01 29.67-.01-.02-7.89-.01-15.78-.01-23.66H395.1m617.22 21.81c2.46 4.95 3.72 10.57 2.93 16.1-.33 3.68-1.71 7.14-2.85 10.63l-.31-.52c-.05.5-.16 1.5-.22 2 27.49-.58 55 .12 82.49-.43 4.04-8.76 3.61-19.1-.48-27.76-6.12.06-12.24-.15-18.34.14l-.22-.18c-21 .08-42 .05-63 .02m87.53.01c3.12 7.52 3.6 15.96 1.76 23.85-.56 1.22-1.07 2.73-.37 4.02 7.85.69 15.84-.09 23.75-.03 22.34.05 44.67-.06 67 .06 5.33.47 10.65-.23 15.99-.04 4.29-8.72 3.32-19.01-.1-27.85h-6.6c-3.35 0-6.68.01-10.01-.01-24.42.02-48.84.01-73.26.01h-10.02c-2.72 0-5.44 0-8.14-.01m-624.32 6.7c-.02 6.85 3.27 13.37 8.52 17.71 3.84 2.55 8.25 4.51 12.94 4.43 122.01.01 244.01 0 366.01.01 4.01-.08 8.14.37 12.05-.79 2.6-.7 4.93-2.11 7.2-3.53 5.47-4.26 8.74-10.94 8.76-17.87-54.72.04-109.45.01-164.17.01-.37 3.45-1.18 7.06-3.69 9.62-2.39 2.46-5.52 4.85-9.14 4.57-20.34-.03-40.69 0-61.03-.01-3.11.09-6.29-.9-8.52-3.12-3.08-2.84-4.08-7.11-4.67-11.1-54.75.12-109.51-.01-164.26.07m169.63-.17c.78 2.51 1.23 5.37 3.22 7.29 1.46 1.48 3.68 1.46 5.62 1.54 19.67-.01 39.34-.02 59.01.01 4.77.32 7.96-4.43 8.46-8.7-18.48-.36-36.98-.06-55.47-.16-6.95.18-13.9-.48-20.84.02M10 489c.03 7.85-.08 15.7.07 23.54 22.31-.09 44.62-.01 66.93-.04 390.67.03 781.35-.05 1172.03.04.3-7.84.06-15.69.13-23.54H10z"/>
    <path d="M295.37 195.32c1.18-1.18 3.13-.43 4.63-.67 19.01.06 38.01-.04 57.01.05 1.72-.35 3.08 1.88 2.01 3.27-.99 1.24-2.67.76-4.02.89-19.34-.08-38.69.03-58.03-.05-1.8.19-2.91-2.2-1.6-3.49zm79.88-.11c1.4-.89 3.17-.42 4.74-.56 18.68.04 37.35.01 56.02.01 1.56-.2 3.55.34 3.21 2.34.16 1.74-1.99 1.9-3.19 1.84-19.69-.04-39.38.04-59.07-.04-1.98.29-2.78-2.2-1.71-3.59zm-79.02 9.1c19.58-.35 39.19-.03 58.77-.16 1.58.04 4.01-.31 4.4 1.84.21 2.07-1.81 2.65-3.45 2.51-19.53-.04-39.06.07-58.59-.05-2.5.45-3.62-3.38-1.13-4.14zm79.97-.02c19.59-.3 39.21-.02 58.81-.14 1.5.05 4.03-.33 4.23 1.84.29 1.99-1.7 2.66-3.29 2.51-19.53-.03-39.06.06-58.59-.04-2.54.51-3.69-3.37-1.16-4.17zM303 232c24.89.01 49.79-.02 74.68.02-.03 11.49-.01 22.98-.01 34.48 15.43-.01 30.86.03 46.29-.02.08 19.4.04 38.8.02 58.2-24.88-.03-49.76 0-74.65-.01v-34.5H303V232m5.54 5.54c-.12 15.65.05 31.31-.09 46.96 7.18.35 14.37.08 21.55.16 6.47-.09 12.94.22 19.39-.19-.07-5.99-.12-11.99.02-17.98 7.58-.01 15.15.07 22.73-.04.04-9.63.03-19.27 0-28.9-21.2-.09-42.4-.07-63.6-.01M354.83 272v47.17h63.67V272h-63.67zm170.34-24.33h316.16V431.5H525.16c.01-61.28.01-122.56.01-183.83m4.9 4.79c-.14 58.08-.08 116.16-.03 174.23 102.15-.06 204.31.01 306.46-.03 0-58.05.01-116.11 0-174.16-102.14-.03-204.29.05-306.43-.04z"/>
    <path d="M579.16 259.68c70.11-.03 140.22-.01 210.33-.01.01 53.55.01 107.11 0 160.66-70.11 0-140.22.02-210.33-.01.01-53.55.01-107.09 0-160.64m4.83 4.86c.02 6.87-.01 13.73.02 20.6 61 .05 122 .01 182.99.02 5.9-.06 11.81.17 17.71-.17-.17-6.85.15-13.7-.21-20.54-66.84.15-133.67-.05-200.51.09m.02 25.47c-.02 41.81 0 83.63-.02 125.45 13.49.07 26.98.06 40.47 0 .06-41.82.07-83.64 0-125.47-13.49.02-26.97 0-40.45.02m45.31.01c.03 41.82 0 83.65.01 125.48 38.21.02 76.42-.03 114.63.03.09-41.85.01-83.69.04-125.53-38.23.01-76.45-.02-114.68.02m119.54-.01c-.03 13.71-.04 27.42 0 41.13 11.95-.05 23.9.23 35.85-.15-.07-13.63-.08-27.27 0-40.9-11.95-.2-23.9-.06-35.85-.08m0 46.7c.02 7-.2 14 .15 21 11.88-.1 23.76-.02 35.65-.05 0-5.89-.01-11.78.04-17.67-.17-1.18.5-3.81-1.64-3.3-11.4-.05-22.8-.05-34.2.02m.05 26.45c-.08 6.51-.22 13.03.1 19.55 11.88-.1 23.76-.02 35.65-.05.01-6.49-.02-12.97.02-19.45-11.92-.11-23.85-.02-35.77-.05m0 25c-.15 9.1-.06 18.19-.05 27.29 11.88.15 23.76-.05 35.64.1.37-9.09.05-18.19.18-27.28-11.92-.25-23.85-.05-35.77-.11z"/>
    <path d="M700.67 297.67h19.16v9.66c3.45-.01 6.9-.01 10.35.05-.04 6.15-.01 12.3-.01 18.45-6.39 0-12.78 0-19.17.01-.01-3.23 0-6.45 0-9.68-3.45.01-6.89 0-10.33.01-.01-6.17 0-12.34 0-18.5m14 13.33c-.01 3.72-.01 7.44 0 11.17h11.83V311h-11.83zm-72.39-4.56c11.56-.28 23.14 0 34.72-.13 1.68.07 3.49-.23 5.08.52 0 .56.01 1.68.01 2.23-1.25.74-2.72.6-4.09.63-11.36-.07-22.72.03-34.08-.04-1.88.43-3.57-1.93-1.64-3.21zm-.29 7.54c12.33-.35 24.68-.04 37.02-.16 1.4-.11 3.76.05 3.13 2.14-.31 1.84-2.86.94-4.14 1.23-10.66-.04-21.33-.04-32 0-1.53-.2-3.76.51-4.56-1.27.13-.48.41-1.45.55-1.94zm37.22 19.4c10.64-1.82 22.06 1.07 30.4 7.96 7.51 6.07 12.43 15.33 12.88 25.02.61 9.85-3.37 19.82-10.52 26.61-9.47 9.45-24.18 12.87-36.96 9.18-8.71-2.48-16.53-8.14-21.29-15.89-6.61-10.43-6.83-24.52-.55-35.14 5.41-9.46 15.33-16.02 26.04-17.74m-.84 5.09c-11.61 2.45-21.7 11.73-24.23 23.45-2.25 9.61.97 20.08 7.89 27.04 8.55 8.91 22.33 12.07 33.99 8.13 10.04-3.22 18.39-11.68 20.84-22.02 2.35-9.17-.36-19.29-6.61-26.32-7.7-8.92-20.44-12.91-31.88-10.28zm485.75 17.34c1.01-1.45 2.63-2.06 3.79-.33 1.06 4.84 2.11 9.69 3.29 14.51.41 2 1.05 4.02.8 6.08-1.03.26-2.07.43-3.1.58-1.59-6.95-3.18-13.89-4.78-20.84zm-803.89 25.56c6.53-2.42 14.48 1.09 16.99 7.6 2.29 5.45.6 12.34-4.16 15.92-4.19 3.34-10.41 3.76-15.06 1.12-4.29-2.32-7.01-7.16-6.86-12.02-.07-5.58 3.83-10.86 9.09-12.62zm553.92 21.04c17.59-.18 35.19-.04 52.78-.06 0 .57-.02 1.72-.03 2.3-17.51-.05-35.03.19-52.52-.12l-.38-.52c.04-.4.11-1.2.15-1.6zm130.6 22.92c4.3 0 8.6-.02 12.91.03-.01.57-.04 1.71-.05 2.28-4.19 0-8.37.13-12.54-.03l-.32-2.28zm18.14.01c9.9 0 19.81-.03 29.71 0 .22.08.65.22.87.29.03.62.08 1.25.15 1.88-10.25.34-20.5.08-30.75.14.01-.57.01-1.73.02-2.31z"/>
  </g>
  <path d="M578.18 112.34h.51c-.16 32.22 0 64.44-.08 96.67-.07 3.9.02 7.8.2 11.69 9.89.23 19.87-.78 29.69.8-.14-35.51.02-71.02-.07-106.53.32 1.99.56 4 .58 6.03-.02 32.33 0 64.67-.01 97.01-.01 2.44-.11 4.88-.2 7.32-10.13.03-20.25-.03-30.38.03a182 182 0 0 1-.21-12.36c-.03-33.56.03-67.11-.03-100.66zm-87.26 129.51c3.64-.02 7.28-.1 10.93.03l.16.79c-.45 2.06-1.13 4.07-1.37 6.18-.18 1.9-.24 3.81-.32 5.72-3.12.07-6.24.1-9.36.12-.06-4.28-.07-8.56-.04-12.84zm0 31.99c3.16-.02 6.32-.01 9.49.02-.04 4.23-.04 8.47.04 12.7-3.16.1-6.31.14-9.46.13-.12-4.29-.1-8.57-.07-12.85zm-354.86 83.21c1.69-4.04 7.72-4.9 10.74-1.9.91 1.03 1.54 2.26 2.2 3.47.05 1.12.07 2.25.07 3.38H469c10.5.3 21 .11 31.5.17v65.54c-9.1-.07-18.2.17-27.29-.12-.12-21.68.03-43.37-.08-65.05-100.48.01-200.96.04-301.44-.01 4.4 21.63 8.62 43.3 12.82 64.97H172.1c-2.97-17.28-5.9-34.56-8.88-51.83-6.31 0-12.61-.02-18.91.01-.62-2.7-.97-5.84-3.27-7.71-3.35-3.06-9.23-2.5-11.85 1.23-1.5 1.81-1.46 4.27-1.67 6.49-2.01-.03-4.03-.04-6.04-.06.02-4.2.02-8.4.02-12.6 4.93-.04 9.86-.05 14.79-.01-.13-1.99-.66-4.01-.23-5.97zm951.85 62.98c4.92-.04 9.85-.09 14.77.05 3.17 8.96 3.61 18.93.29 27.92-1.63-.01-3.24-.02-4.84-.02.46-7.04-.14-14.63-4.51-20.47-.07-.63-.12-1.26-.15-1.88-.22-.07-.65-.21-.87-.29-1.64-1.71-3.16-3.51-4.69-5.31zm-12.37 34.94c6.1-.29 12.22-.08 18.34-.14 4.09 8.66 4.52 19 .48 27.76-27.49.55-55-.15-82.49.43.06-.5.17-1.5.22-2l.31.52.51.84c25.05-.02 50.1.05 75.16-.06.1-3.79.29-7.68-.79-11.36-.89-3.21-2.68-6.06-4.47-8.82-.38-.53-1.16-1.58-1.55-2.11-1.82-1.79-3.79-3.41-5.72-5.06z" fill="#bcbeda"/>
  <g fill="#a7abd0">
    <path d="M155.67 119c138.67.02 277.35-.05 416.02.04-.14 35.21.16 70.42-.16 105.64-14.05.09-28.1-.08-42.15.08-.48-29.91-.08-59.84-.22-89.76-111 0-222-.01-333 .01.02 68.27.01 136.55.01 204.82h277c.03 5.1.03 10.2-.06 15.3-99.7.17-199.41.02-299.11.08-6.12.01-12.24-.17-18.34.25.02-78.82 0-157.64.01-236.46z"/>
    <path d="M530.07 252.46c102.14.09 204.29.01 306.43.04.01 58.05 0 116.11 0 174.16-102.15.04-204.31-.03-306.46.03-.05-58.07-.11-116.15.03-174.23m49.09 7.22c.01 53.55.01 107.09 0 160.64 70.11.03 140.22.01 210.33.01.01-53.55.01-107.11 0-160.66-70.11 0-140.22-.02-210.33.01zm672.55 83.03c4.91-3.74 10.24-6.9 15.59-9.97-.36 5.87-.79 11.76-1.83 17.57-.55 2.52-1.07 5.28-3 7.16-2.87 2.92-7.78 3.62-11.23 1.34-3.32-1.95-5.13-6.1-4.22-9.85.5-2.69 2.61-4.65 4.69-6.25zM35.04 399.97c.78-4.16 1.18-8.4 2.45-12.44 6.16 31.79 11.97 63.65 18 95.47-11.54.11-23.08-.17-34.62-.16 4.7-27.63 9.45-55.25 14.17-82.87zM340.81 433c16.22-.14 32.44.24 48.66.14-1.16 12.35-1.02 25.41 4.39 36.83 1.99 4.41 5.25 8.06 8.88 11.2-25.04-.01-50.07.04-75.1-.03 3.49-3.09 6.67-6.63 8.65-10.89 5.57-11.53 5.67-24.76 4.52-37.25zm304.35 28.35c6.94-.5 13.89.16 20.84-.02 18.49.1 36.99-.2 55.47.16-.5 4.27-3.69 9.02-8.46 8.7-19.67-.03-39.34-.02-59.01-.01-1.94-.08-4.16-.06-5.62-1.54-1.99-1.92-2.44-4.78-3.22-7.29z"/>
  </g>
  <path d="M203.01 141.86c106.43-.03 212.86-.04 319.28 0 .08 8.48.07 16.96.01 25.43-106.43.08-212.86.06-319.3.01 0-8.48-.02-16.96.01-25.44zm.03 32.28c21.73.04 43.46.03 65.2.01.2 5.95.06 11.9.1 17.85-.03 47 .04 93.99-.04 140.99-21.76.01-43.53.01-65.29 0 .01-52.95-.06-105.9.03-158.85m7.24 19.08c-.7 1.44-.23 3.68 1.72 3.55 15 .07 30.02.19 45.02-.06 2.14-.05 1.47-2.6 1.31-3.94-14.11-.26-28.22.01-42.33-.14-1.91.05-3.91-.15-5.72.59m1.02 11.14c-1.59.39-1.49 2.17-.99 3.38 1.72 1.02 3.78.74 5.69.81 13.32-.12 26.64.04 39.96-.07 2.08.33 3.52-1.99 2.3-3.7-1.93-.97-4.19-.53-6.27-.65-13.56.22-27.15-.26-40.69.23m-1.18 11.78c0 1.4-.32 3.93 1.83 3.76 13.34.28 26.71-.03 40.06.14 1.91-.04 3.87.11 5.76-.35 1.41-.79.53-2.56.51-3.77-13.43-.21-26.85.01-40.28-.12-2.63-.04-5.26.13-7.88.34m1.28 11.36c-1.76.25-1.82 2.82-.6 3.81 2.04.31 4.13.21 6.19.23 13.22-.12 26.45.08 39.67-.09 2.01.22 2.54-2.32 1.52-3.64-1.96-.75-4.13-.42-6.18-.51-13.53.2-27.08-.24-40.6.2zm253.36-53.35c19.16.02 38.32.02 57.48 0 .24 13.95 0 27.9.13 41.85.08 3.21-.34 6.4-.96 9.55-17.81-.14-35.62-.2-53.42.16-1.17-.18-3.83.49-3.31-1.65.01-16.64-.13-33.28.08-49.91m9.08 11.85c-.01 4.33-.01 8.66 0 13 5.61-.01 11.23.03 16.85-.03-.04-4.31-.04-8.63 0-12.94-5.62-.06-11.24-.02-16.85-.03m24.62.06c.05 4.29.05 8.59.01 12.89 5.62.1 11.24.03 16.86.05v-13c-5.62.01-11.25-.05-16.87.06m-24.62 18.61c-.02 4.34-.05 8.68.07 13.02 5.58-.05 11.17-.02 16.75-.03.01-4.34.03-8.68-.04-13.02-5.6.04-11.19.02-16.78.03m24.65 12.99c5.62 0 11.24.05 16.87-.04-.04-4.32-.03-8.64-.03-12.95-5.61-.01-11.21 0-16.82-.01-.02 4.33-.01 8.66-.02 13zm-189.95 19.88c21.2-.06 42.4-.08 63.6.01.03 9.63.04 19.27 0 28.9-7.58.11-15.15.03-22.73.04-.14 5.99-.09 11.99-.02 17.98-6.45.41-12.92.1-19.39.19-7.18-.08-14.37.19-21.55-.16.14-15.65-.03-31.31.09-46.96zm275.45 27c66.84-.14 133.67.06 200.51-.09.36 6.84.04 13.69.21 20.54-5.9.34-11.81.11-17.71.17-60.99-.01-121.99.03-182.99-.02-.03-6.87 0-13.73-.02-20.6zm.02 25.47c13.48-.02 26.96 0 40.45-.02.07 41.83.06 83.65 0 125.47-13.49.06-26.98.07-40.47 0 .02-41.82 0-83.64.02-125.45zm164.85 0c11.95.02 23.9-.12 35.85.08-.08 13.63-.07 27.27 0 40.9-11.95.38-23.9.1-35.85.15-.04-13.71-.03-27.42 0-41.13m5.48 9.48c-.01 3.39-.01 6.78 0 10.17 3.49 0 6.99 0 10.49.01.01-3.4.01-6.81-.05-10.21-3.49.04-6.96.04-10.44.03m15.48.07c-.01 3.37 0 6.75.09 10.13 3.53-.03 7.06-.03 10.6-.03-.01-3.39-.01-6.77-.01-10.15-3.57-.03-7.13-.03-10.68.05m-15.49 14.61c-.01 3.39-.01 6.79.05 10.19 3.48-.03 6.97-.03 10.46-.03-.01-3.39-.01-6.78-.01-10.16-3.5-.01-7-.01-10.5 0m15.51 0c-.01 3.38-.01 6.77 0 10.16 3.54 0 7.09 0 10.65.01 0-3.38 0-6.75.05-10.11-3.57-.08-7.14-.08-10.7-.06zm-20.98 22.54c11.4-.07 22.8-.07 34.2-.02 2.14-.51 1.47 2.12 1.64 3.3-.05 5.89-.04 11.78-.04 17.67-11.89.03-23.77-.05-35.65.05-.35-7-.13-14-.15-21m16.2 6.75c-.08 3.41-.08 6.82-.03 10.23 5.16-.04 10.31-.01 15.48-.03-.01-3.39-.01-6.78-.01-10.16-5.15-.01-10.3.02-15.44-.04zm-16.15 19.7c11.92.03 23.85-.06 35.77.05-.04 6.48-.01 12.96-.02 19.45-11.89.03-23.77-.05-35.65.05-.32-6.52-.18-13.04-.1-19.55m16.15 5.31c-.08 3.4-.08 6.81-.03 10.22 5.16-.05 10.31-.01 15.48-.03-.01-3.39-.01-6.78-.01-10.16-5.15-.01-10.3.02-15.44-.03zm-16.15 19.69c11.92.06 23.85-.14 35.77.11-.13 9.09.19 18.19-.18 27.28-11.88-.15-23.76.05-35.64-.1-.01-9.1-.1-18.19.05-27.29z" fill="#5e61a4"/>
  <path d="M86.65 160.4c15.28-.36 30.57-.05 45.86-.05.01 13.53-.05 27.06.03 40.59-4.16.09-8.31.07-12.47.05-.18-13.41.02-26.82-.11-40.23-11.1-.39-22.22.27-33.31-.36zm.17 66.16c15.27-.39 30.56-.02 45.83-.07.06 13.53-.03 27.06.05 40.59-4.22.13-8.44.1-12.65.08-.14-13.41.04-26.82-.09-40.23-11.05-.34-22.11.33-33.14-.37z" fill="#d292c7"/>
  <path d="M86.65 160.4c11.09.63 22.21-.03 33.31.36.13 13.41-.07 26.82.11 40.23-11.13.02-22.27.01-33.4.01-.02-13.53.02-27.07-.02-40.6zm.17 66.16c11.03.7 22.09.03 33.14.37.13 13.41-.05 26.82.09 40.23-11.07.01-22.14.01-33.21 0-.02-13.53.01-27.07-.02-40.6zm591.55 111.91c11.44-2.63 24.18 1.36 31.88 10.28 6.25 7.03 8.96 17.15 6.61 26.32-2.45 10.34-10.8 18.8-20.84 22.02-11.66 3.94-25.44.78-33.99-8.13-6.92-6.96-10.14-17.43-7.89-27.04 2.53-11.72 12.62-21 24.23-23.45zM42.02 381.23c4.07-.03 8.13-.07 12.2-.07.7 3.16.83 6.93 3.66 9.05 3.44 2.93 9.26 2.21 11.76-1.59 1.65-2.14 1.54-4.93 1.28-7.46 19.29.02 38.57-.01 57.85.01.65 3.01.76 6.58 3.3 8.72 3.28 3.14 9.12 2.74 11.84-.94 1.92-2.15 1.86-5.13 1.52-7.8 4.38.03 8.76.01 13.13.02 1.2 7.05 2.41 14.09 3.62 21.13-6.88.03-13.76.26-20.64.29-2-2.04-4.98-1.32-7.54-1.44-29.41.04-58.83 0-88.24.02-1.24-6.65-2.5-13.3-3.74-19.94zm930.3 17.17l.32-.14c.47 10.88.03 21.83.32 32.74-.3 8 .22 16.01-.42 24-.17 4.87.1 9.74-.08 14.61-.23 6.76-6.71 12.55-13.44 12.18-12.35.01-24.71.04-37.06-.02-6.39.11-12.52-5.26-12.88-11.7-.23-5.02-.02-10.05-.08-15.07 21.14.06 42.29.14 63.43.34-.62-5.43-.45-10.9-.41-16.34-.16-11.99.11-23.98-.08-35.97.01-1.55-.03-3.13.38-4.63zm127.53 56.42c2.7.01 5.42.01 8.14.01 1.43 3.89 2.75 7.92 2.82 12.12.29 5.25-.95 10.41-2.17 15.48 3.27-.59 6.79.16 9.94-.86 1.33-2.22 1.3-4.92 1.67-7.42 1.93-6.45-.15-13.18-2.24-19.32 24.42 0 48.84.01 73.26-.01 4.06 8.71 3.35 18.66.65 27.65 3.31-.48 6.68-.51 10.03-.09 2.48-8.98 3.24-18.85-.67-27.55h6.6c3.42 8.84 4.39 19.13.1 27.85-5.34-.19-10.66.51-15.99.04-22.33-.12-44.66-.01-67-.06-7.91-.06-15.9.72-23.75.03-.7-1.29-.19-2.8.37-4.02 1.84-7.89 1.36-16.33-1.76-23.85z" fill="#ffacd7"/>
  <path d="M210.28 193.22c1.81-.74 3.81-.54 5.72-.59 14.11.15 28.22-.12 42.33.14.16 1.34.83 3.89-1.31 3.94-15 .25-30.02.13-45.02.06-1.95.13-2.42-2.11-1.72-3.55zm1.02 11.14c13.54-.49 27.13-.01 40.69-.23 2.08.12 4.34-.32 6.27.65 1.22 1.71-.22 4.03-2.3 3.7-13.32.11-26.64-.05-39.96.07-1.91-.07-3.97.21-5.69-.81-.5-1.21-.6-2.99.99-3.38zm-1.18 11.78c2.62-.21 5.25-.38 7.88-.34 13.43.13 26.85-.09 40.28.12.02 1.21.9 2.98-.51 3.77-1.89.46-3.85.31-5.76.35-13.35-.17-26.72.14-40.06-.14-2.15.17-1.83-2.36-1.83-3.76zm1.28 11.36c13.52-.44 27.07 0 40.6-.2 2.05.09 4.22-.24 6.18.51 1.02 1.32.49 3.86-1.52 3.64-13.22.17-26.45-.03-39.67.09-2.06-.02-4.15.08-6.19-.23-1.22-.99-1.16-3.56.6-3.81z" fill="#a1a2c9"/>
  <path d="M464.4 234.08c14.22-.21 28.44-.04 42.66-.05-1.96 2.71-3.55 5.66-5.05 8.64l-.16-.79c-3.65-.13-7.29-.05-10.93-.03-.03 4.28-.02 8.56.04 12.84 3.12-.02 6.24-.05 9.36-.12.08-1.91.14-3.82.32-5.72.13 3.33.11 6.66-.06 9.99-12.06.27-24.12.23-36.18.07.13-8.28.13-16.55 0-24.83zm.32 32.94c11.91.41 23.83.21 35.74.42.36 7.79.5 15.6.11 23.4-12.05.27-24.12.24-36.17.07.29-7.97-.24-15.94.32-23.89m26.2 6.82c-.03 4.28-.05 8.56.07 12.85 3.15.01 6.3-.03 9.46-.13-.08-4.23-.08-8.47-.04-12.7-3.17-.03-6.33-.04-9.49-.02zm-26.2 25.19c11.88.45 23.77.28 35.66.47.41 11.16.5 22.32-.01 33.48-11.92.03-23.84.03-35.76.04-.05-11.33-.25-22.67.11-33.99z" fill="#4b509b"/>
  <path d="M354.83 272h63.67v47.17h-63.67V272zm359.84 39h11.83v11.17h-11.83c-.01-3.73-.01-7.45 0-11.17zm453.24 44.48c4.33-.84 8.62-1.92 12.93-2.9 2.47 11.87 4.99 23.76 6.93 35.73-4.1-.07-8.19-.03-12.28-.08-.77-3.18-1.6-6.35-2.39-9.53-.93-.13-1.84-.25-2.75-.36-.32 3.42.95 6.67 1.34 10.03l-2.18-.05c-3.17-10.04-5.02-20.46-7.46-30.7l.28-.34c.45-.37 1.35-1.1 1.79-1.47 1.6 6.95 3.19 13.89 4.78 20.84 1.03-.15 2.07-.32 3.1-.58.25-2.06-.39-4.08-.8-6.08-1.18-4.82-2.23-9.67-3.29-14.51zM135.38 371.47c1 0 2.33.47 2.58 1.56 1.01 3.63 1.61 7.37 2.14 11.1-.05 2.6-4.06 3.31-4.87.76-.9-3.58-1.6-7.22-2.05-10.89-.15-1.31 1.05-2.27 2.2-2.53zm-76.11.79c1.28-1.39 3.89-.81 4.28 1.08.79 3.52 1.58 7.07 2 10.66.18 2.58-3.83 3.52-4.78 1.04-.84-2.58-1.12-5.3-1.69-7.94-.14-1.58-1.07-3.48.19-4.84zm1048.72 47.75c2.04-.01 4.09-.02 6.15-.02 3.43 8.97 2.75 18.85.51 28.01-2.12 0-4.24-.01-6.34 0 2.85-9.1 2.51-18.94-.32-27.99zm14.3-.01h59.28c3.4 8.92 2.79 18.72.53 27.84-19.79.27-39.59.13-59.38.16 2.25-9.16 2.84-19-.43-28zm67.44-.02c1.61.02 3.24.05 4.88.1 2.68 8.97 3.5 18.81.17 27.73l-4.59.03c2.21-9.12 2.76-18.9-.46-27.86z" fill="#ffc408"/>
  <path d="M1195.98 317.52c8.34-.31 16.7-.31 25.04 0-.18 23.59.27 47.19-.25 70.77-8.2-.04-16.39-.04-24.57 0-.01-.72-.02-2.18-.02-2.9 2.48.06 4.96.09 7.47.15 0-1.46.02-2.91.05-4.36-2.58-.01-5.15-.02-7.71-.02 0-2.29.01-4.57.05-6.85 4.83.04 9.67 0 14.51.06.04-1.4.1-2.8.18-4.19-4.92-.03-9.83-.01-14.73-.01-.01-2.34-.01-4.66.01-6.99 2.55-.01 5.12-.04 7.69-.11-.02-1.35-.03-2.69-.02-4.03-2.58-.03-5.15-.05-7.71-.05.02-1.85.05-3.69.11-5.53 4.83.06 9.67.02 14.52.07.01-1.4.04-2.8.09-4.19-4.9-.01-9.8 0-14.69-.01-.01-1.89-.01-3.78 0-5.66 2.55-.01 5.12-.01 7.69-.01-.05-1.4-.08-2.8-.1-4.2-2.52.03-5.02.05-7.51.09-.06-1.85-.09-3.7-.11-5.55 4.9-.01 9.81.03 14.72-.04-.02-1.35-.01-2.69 0-4.03-4.89-.17-9.79-.09-14.68-.09-.02-4.11-.01-8.22-.03-12.32zm48.97 43.57c.77.63 1.37 1.39 1.93 2.24 1.39.5 2.78.98 4.22 1.41-.35.21-1.06.63-1.41.84-1.67 2.86-3.31 5.75-4.3 8.93-2.39 4.77-5.25 9.29-8.08 13.81-2.86-.05-5.72-.06-8.56-.1 2.74-5.63 6.24-10.85 9.38-16.27.8-1.44 1.92-2.65 3.11-3.78 1.46-2.23 3.12-4.42 3.71-7.08z" fill="#bb8d66"/>
  <path fill="#7e84b9" d="M473.17 339.83c9.13.11 18.26-.23 27.38.19-.08 5.16-.04 10.32-.06 15.48-10.16.05-20.33-.1-30.49.13-100.67.01-201.34-.01-302 .01-4.12.01-8.23.04-12.34-.18 6.1-.42 12.22-.24 18.34-.25 99.7-.06 199.41.09 299.11-.08.09-5.1.09-10.2.06-15.3z"/>
  <path fill="#599fff" d="M1162.34 393.46c28.21-.31 56.45 0 84.67-.16 1.28.09 3.82-.31 3.86 1.64.23 4.63.29 9.3-.07 13.92-.92 1.2-2.51.94-3.79.95-3.01-.13-6.01-.37-9-.33-22.68.08-45.35-.05-68.02.07-2.93-.22-6.37 1.24-8.93-.6-.33-4.92-.56-9.97.12-14.86.29-.16.87-.47 1.16-.63z"/>
  <path fill="#4e87e7" d="M1198.38 414.43c13.71 0 27.43-.08 41.15.04.19 18.51-.03 37.02-.05 55.52.03 5.77-4.78 11-10.46 11.65-4.87.42-9.76.17-14.62.08 3.69-10.61 1.87-22.43-2.94-32.37-3.82.01-7.63.03-11.43.02 3.82-11.32 2.7-23.93-1.65-34.94z"/>
  <path d="M1037.27 420c16.88.03 33.76-.05 50.64.03 1.53 1.8 3.05 3.6 4.69 5.31-9.9-.03-19.81 0-29.71 0-.01.58-.01 1.74-.02 2.31 10.25-.06 20.5.2 30.75-.14 4.37 5.84 4.97 13.43 4.51 20.47-20.42.04-40.84.01-61.26.02 3.52-8.87 4.38-19.13.4-28m7.48 5.33l.32 2.28c4.17.16 8.35.03 12.54.03.01-.57.04-1.71.05-2.28-4.31-.05-8.61-.03-12.91-.03zm-32.43 29.48c21 .03 42 .06 63-.02l.22.18c1.93 1.65 3.9 3.27 5.72 5.06-12.34-.01-24.68-.15-37.02.08l.28 2.23c12.76-.12 25.54.24 38.29-.2 1.79 2.76 3.58 5.61 4.47 8.82 1.08 3.68.89 7.57.79 11.36-25.06.11-50.11.04-75.16.06l-.51-.84c1.14-3.49 2.52-6.95 2.85-10.63.79-5.53-.47-11.15-2.93-16.1m10.07 5.29l-.48 2.16c5.32.16 10.64.06 15.96.07-.01-.58-.05-1.74-.06-2.32-5.14.05-10.29-.16-15.42.09z" fill="#fffeff"/>
  <path fill="#212b88" d="M85.85 438h18.26c.94 4.22 1.88 8.44 2.81 12.66-6.27.01-12.54-.01-18.81.01-.75-4.22-1.5-8.45-2.26-12.67z"/>
  <path fill="#262f88" d="M1022.39 460.1c5.13-.25 10.28-.04 15.42-.09.01.58.05 1.74.06 2.32-5.32-.01-10.64.09-15.96-.07l.48-2.16z"/>
  <path fill="#222b86" d="M1044.24 460.11c12.34-.23 24.68-.09 37.02-.08.39.53 1.17 1.58 1.55 2.11-12.75.44-25.53.08-38.29.2l-.28-2.23z"/>
  <path d="M10 489h1239.16c-.07 7.85.17 15.7-.13 23.54-390.68-.09-781.36-.01-1172.03-.04-22.31.03-44.62-.05-66.93.04-.15-7.84-.04-15.69-.07-23.54zm233 47.97c9.11.05 18.22.03 27.33.02.05 29-.09 58.01.07 87.01h-27.91c.87-3.95.47-8.01.51-12v-75.03zm747.83.02c9.11.02 18.22.02 27.34 0-.01 29 0 58.01 0 87.01h-27.76c.71-4.3.39-8.67.42-13 .01-24.67 0-49.34 0-74.01z" fill="#bb8e65"/>
  <path d="M243.01 519c9.1 0 18.2-.01 27.31.01.02 5.99.01 11.98.01 17.98-9.11.01-18.22.03-27.33-.02 0-5.99-.01-11.98.01-17.97zm747.83.01c9.1-.02 18.21-.02 27.32 0 .02 5.99.01 11.98.01 17.98-9.12.02-18.23.02-27.34 0 0-6-.01-11.99.01-17.98z" fill="#7d6672"/>
</svg>