<svg version="1" xmlns="http://www.w3.org/2000/svg" width="101.333" height="101.333" viewBox="0 0 76.000000 76.000000"><path d="M29.3 1.5C13.8 5.7 4.1 16.3.9 32.3c-3 14.8 6.4 32.8 20.5 39.3 11.8 5.4 21.4 5.4 33.2 0 14.1-6.5 23.5-24.5 20.5-39.3-3.2-16.2-13-26.7-28.8-30.8-6.9-1.8-10.2-1.8-17 0zm7.5 27.7l.3 15.8H21V29.7c0-8.5.3-15.7.7-16.1.4-.4 3.9-.5 7.8-.4l7 .3.3 15.7zm18-8l.3 7.8H39v-7.3c0-4.1.3-7.7.7-8.1.4-.4 3.9-.5 7.8-.4l7 .3.3 7.7zm0 25.5l-.3 15.8h-15l-.3-15.8-.3-15.7h16.2l-.3 15.7zm-18 8l-.3 7.8h-15l-.3-7.8-.3-7.7h16.2l-.3 7.7z"/></svg>