<svg xmlns="http://www.w3.org/2000/svg" viewBox="90 -15 350 350" width="520" height="350" style="zoom:1"><path d="M444.718 186.922l.002-42.2-22.78 42.2h22.778m31.944-164.848h31.799v271.084H444.72v-52.752h-47.702l-29.96 52.752h-60.811L444.72 40.025c5.615-10.266 20.241-17.952 31.942-17.952M269.799 293.158H238V22.073h63.742V158.37l77.66-136.296h60.812L301.742 275.207c-5.615 10.263-20.242 17.95-31.943 17.95M164.11 186.923v-42.198l-22.779 42.198h22.78m31.942-164.848h31.798V293.16h-63.742v-52.751h-47.701l-29.961 52.75H25.635L164.108 40.027c5.618-10.265 20.245-17.952 31.945-17.952z" stroke="#fff" stroke-miterlimit="2.613" stroke-width="23.14" fill="none"/><path d="M444.718 186.922l.002-42.2-22.78 42.2h22.778m31.944-164.848h31.799v271.084H444.72v-52.752h-47.702l-29.96 52.752h-60.811L444.72 40.025c5.615-10.266 20.241-17.952 31.942-17.952M269.799 293.158H238V22.073h63.742V158.37l77.66-136.296h60.812L301.742 275.207c-5.615 10.263-20.242 17.95-31.943 17.95M164.11 186.923v-42.198l-22.779 42.198h22.78m31.942-164.848h31.798V293.16h-63.742v-52.751h-47.701l-29.961 52.75H25.635L164.108 40.027c5.618-10.265 20.245-17.952 31.945-17.952z" fill-rule="evenodd" fill="#db812e" clip-rule="evenodd"/></svg>