<svg xmlns="http://www.w3.org/2000/svg" style="zoom:.5" viewBox="0 0 1024 200" height="250pt" width="1024pt"><path d="M714.69 32.77c13.78-4.13 28.34-4.96 42.64-4.26 23.55 1.31 46.9 6.9 68.4 16.64 20.51 9.28 38.8 22.71 55.9 37.2 13.85 11.95 27.33 24.32 41.09 36.37 15.53-13.11 30.62-26.75 46.14-39.88 9.12-7.76 18.93-14.67 29.13-20.93 1.93-1.13 3.94-2.62 6.34-2.06-.91 1.52-2.03 2.92-3.46 3.96-7.57 5.8-15.69 10.85-22.99 17-14.33 11.95-28.02 24.65-41.99 37.01-2.98 2.68-6.05 5.26-8.82 8.15 7.03 6.06 14.67 11.38 22.45 16.43 13.92 8.51 29.07 14.7 44.13 20.87 3.86 1.88 8.41 3.04 11.17 6.58-4.3-.94-8.39-2.59-12.51-4.08-8.22-3.13-16.55-6-24.6-9.55-11.69-5.05-22.88-11.27-33.26-18.67-3.9-2.8-7.81-5.59-11.75-8.35-14.9 11.52-30.92 21.65-48.11 29.41-13.49 6.25-27.94 10.09-42.48 12.97-14.15 2.93-28.7 3.12-43.08 2.47-10.16-.41-20.32-2.37-29.7-6.32-9.11-3.83-16.73-10.45-23.19-17.8-8.69-9.71-16.09-20.47-24.47-30.43-10.17-12.48-21.53-24.01-34.27-33.87-15.72 18.82-32.94 36.71-53.38 50.45-25.91 17.47-55.39 29.73-86.15 35.39-11.45 2.39-23.19 2.87-34.86 2.94-7.37-.02-14.76-.19-22.08-1.05-18.99-2.5-37.21-10.25-52.26-22.06-8.14-6.44-15.71-13.55-23.55-20.34-34.35 20.47-72.43 34.92-111.95 41.28-18.42 2.78-37.57 4-55.76-.84-14.78-3.97-28.11-11.8-41.06-19.73-22.4-14.05-44.38-28.81-67.65-41.39-9.64-5.28-19.58-9.93-29.49-14.66-17.61 8.95-35.49 17.41-53.81 24.81-4.46 1.81-8.88 3.76-13.58 4.87.16-2.66.55-5.28 1.13-7.87 16.13-6.59 31.8-14.25 47.25-22.27 2.42-1.24 4.76-2.63 7.06-4.08-2.2-2.11-4.33-4.89-3.52-8.14 4.15.57 8.08 2.03 12.02 3.4 18.47-11.29 36.53-23.24 54.96-34.59 9.89-5.93 20-11.8 31.14-15.09 14.27-4.26 29.38-4.69 44.15-3.66 21.2 1.58 42.07 6.3 62.27 12.84 23.14 7.63 45.54 17.71 66.2 30.67 19.21 11.87 36.8 26.14 53.7 41.05 4.72-2.52 8.81-6.01 12.9-9.42 14.59-12.03 28.36-24.99 42.24-37.83 10.17-9.25 20.62-18.46 32.83-24.96 13.18-7.06 27.95-10.8 42.79-12.12 21.1-1.86 42.43.33 62.96 5.35 19.92 4.91 39.22 12.38 57.1 22.45 5.08 2.84 9.9 6.17 15.21 8.62 6.01-7.1 11.55-14.71 18.63-20.82 6.28-5.58 13.81-9.68 21.85-12.06m33.4 4.04c-5.56 22.27-10.63 44.67-15.63 67.08-1.1 5.05-2.29 10.08-3.06 15.19 5.08 6.4 10.3 12.68 15.75 18.77 1.32 1.53 2.86 2.86 4.64 3.87 4.67-34.87 8.53-69.84 12.63-104.78-4.75-.69-9.57-.65-14.33-.13m21-.08c-4.92 36.78-9.16 73.65-13.75 110.48 5.14 4.84 11.63 7.96 18.16 10.45.47-2.51.89-5.03 1.22-7.56 4.81-36.65 9.09-73.37 13.34-110.09-6.09-2.13-12.63-2.41-18.97-3.28m-47.89 5.01c-4.44 17.18-9.05 34.31-13.26 51.54 4.6 6.42 9.83 12.44 15.69 17.74 1.73-4.1 2.4-8.53 3.58-12.79 4.71-20.31 9.65-40.58 14.3-60.91-6.98.2-13.72 2.29-20.31 4.42m-509.07-2.9c-11.69 17.13-23.31 34.3-34.92 51.47-5.14 7.84-10.47 15.58-15.14 23.71a680.963 680.963 0 0 0 31.12 18.2c11.94-31.09 23.57-62.29 35.52-93.37-5.53-.01-11.06 0-16.58-.01m23.15.39c-12.65 31.95-24.47 64.21-36.8 96.27 9.1 4.93 17.9 10.63 27.72 14.06 1.62-4.93 2.74-10 4.05-15.01 7-28.44 14.05-56.86 20.96-85.31.62-2.62 1.11-5.27 1.56-7.92-5.81-.82-11.61-1.83-17.49-2.09m299.74 2.56c2.42 10.82 5.32 21.52 8.15 32.24C548.95 96.4 554.94 118.71 561 141c.8 3.06 1.73 6.09 2.71 9.1 9.91-3.36 19.7-7.19 29.05-11.92-10.79-32.88-21.97-65.64-33.09-98.41-8.25-.02-16.5.83-24.65 2.02m32.17-1.8c2.25 8.42 5.17 16.64 7.81 24.94 5.95 18.3 12.04 36.55 18.1 54.8 1.75 5.08 3.29 10.24 5.55 15.13 5.23-2.5 10.23-5.48 14.97-8.83-10.67-28.24-21.46-56.43-32.34-84.59-4.65-.86-9.38-1.22-14.09-1.45m-381.88 5.24c-7.6 2.85-15.23 5.79-22.29 9.84-1.99 1-2.82 3.17-3.89 4.98-7.3 13.61-14.22 27.42-21.28 41.16 6.01 3.11 11.66 7.05 18.09 9.26 13.28-19.56 26.64-39.06 39.84-58.67 2.5-3.8 5.17-7.5 7.39-11.47-6.18.64-12.04 2.86-17.86 4.9m609.37-3.9c-4.47 32.8-8.32 65.69-12.31 98.55-.77 6.76-1.62 13.5-2.22 20.28 5.54 1.21 11.16 2.03 16.82 2.51 1.72.04 3.61.36 5.23-.46.57-1.69.65-3.48.87-5.23 3.37-34.29 6.41-68.61 9.64-102.91.18-2.07.47-4.14.45-6.21-.3-1.35-2-1.49-3-2.06-5.05-1.84-10.21-3.43-15.48-4.47m-535.16 1.49c-8.27 31.66-15.97 63.47-23.79 95.25-1.14 4.87-2.49 9.71-3.16 14.68 6.35 2.71 13.13 4.2 19.84 5.68 4.5.82 9.01 2.1 13.62 1.83 1.74-.44 1.4-2.77 1.79-4.12 4.02-36.09 8.1-72.18 12.24-108.27-6.83-1.76-13.6-3.82-20.54-5.05m329.29-.32c1.58 5.74 3.95 11.21 5.96 16.8 8.03 20.95 15.9 41.97 24.43 62.73 5.05-3.32 9.9-6.96 14.38-11.03-9.46-21.72-18.99-43.42-29.22-64.78-4.89-2.11-10.31-2.88-15.55-3.72m-74.18 4.96c3.46 28.57 6.85 57.15 10.26 85.72 1.11 8.18 1.91 16.4 3.31 24.54 9.92-1.03 19.79-2.95 29.33-5.89-9.46-36.19-19.43-72.24-29.29-108.32-4.69.71-9.25 2.07-13.61 3.95m169.3 25.84c6.27 5.15 12.47 10.4 18.33 16.03 4.23-14.52 7.88-29.21 11.37-43.93-11.96 6.75-21.25 17.27-29.7 27.9m-71.16-24.87c1.23 3.57 2.92 6.97 4.42 10.44 7.13 16.06 14.23 32.14 21.29 48.24 3.54-3.55 7.22-6.99 10.32-10.95-5.8-14.04-12.16-27.83-18.32-41.72-5.88-2.07-11.56-4.82-17.71-6.01m206.68 1.02c-2.9 31.55-6 63.08-8.95 94.63-.62 6.31-1.1 12.64-1.93 18.93 6.39-.35 12.8-.55 19.17-1.25 3.92-32.53 6.37-65.23 9.55-97.84.11-1.61.4-3.24.13-4.84-.53-1.54-2.19-2.17-3.46-2.93-4.79-2.34-9.56-4.74-14.51-6.7m-533.31.56c-4.63 36.74-8.2 73.61-12.68 110.37 8.52.04 17.12-.1 25.51-1.77 1.11-.32 2.43-.44 3.25-1.34.98-4.69.62-9.54.87-14.3.35-28.8.65-57.6 1.14-86.4-5.89-2.54-11.91-4.81-18.09-6.56m202.87 11.1c-2.05 1.28-3.95 2.79-5.74 4.43.53 8.58 1.94 17.07 3.09 25.59 3.34 22.42 6.62 44.85 10.04 67.26 8.32 1.11 16.84 1.09 25.13-.26-.16-2.35-.38-4.68-.65-7.01-3.95-33.72-7.92-67.43-12.39-101.09-6.87 2.99-13.18 7.07-19.48 11.08m150.57-2.38c4.26 10.95 8.82 21.81 14.03 32.35 5.2-4.96 9.62-10.68 13.69-16.57-8.79-5.98-18.04-11.39-27.72-15.78m-328.74.84c-.69 15.81-.84 31.64-1.22 47.46-.22 16.63-.7 33.25-.59 49.87 6.78-1.33 13.48-3.05 20.15-4.87 2.37-.4 1.8-3.29 1.8-5.02-2.7-27.31-5.57-54.6-8.1-81.93-3.96-1.96-7.88-4.01-12.04-5.51M123.6 77.58c-5.35 3.2-10.9 6.08-16.09 9.53 7.96 3.99 16.16 7.54 24.39 10.95 3.52-5.35 6.23-11.16 9.25-16.79 3.1-6.27 6.36-12.48 8.97-18.98-8.96 4.88-17.65 10.24-26.52 15.29m720.63-15.57c-1.7 12.26-2.64 24.61-3.93 36.92-1.97 20.47-4.15 40.94-5.43 61.47 5.4-.85 10.77-1.9 16.03-3.43 4.06-25.67 7.67-51.41 11.47-77.12.22-1.57.49-3.14.48-4.73-.9-1.7-2.68-2.69-4.14-3.84-4.72-3.25-9.47-6.48-14.48-9.27m-514.46 6.66c.27 6.18.92 12.34 1.49 18.5 2.03 20.56 3.71 41.17 6.39 61.66 6.47-1.43 12.63-3.94 18.76-6.41 2.01-.9 4.19-1.62 5.85-3.14 1.15-1.04.34-2.58.15-3.83-4.4-17.59-9.31-35.05-14.3-52.48-.51-1.68-.81-3.67-2.51-4.59-5.07-3.55-10.3-6.92-15.83-9.71m128.18 18.11c1.53 9.47 3.92 18.77 5.93 28.15 3.15 13.38 6.07 26.83 9.89 40.04 5.29 1.41 10.7 2.37 16.14 2.98-3.14-24.03-7.02-47.95-10.68-71.89-.89-4.96-1.45-9.98-2.61-14.88-6.5 4.84-12.8 9.99-18.67 15.6m400.06 67.86c7.42-2.45 14.66-5.42 21.83-8.51 3-12.93 4.21-26.18 6.41-39.25.41-3.89 1.61-7.77 1.26-11.69-1.78-2.49-4.22-4.37-6.5-6.34-3.99-3.3-7.79-6.84-12.08-9.75-4.06 25.12-7.68 50.31-10.92 75.54m-502.67-70c4.24 17.22 8.95 34.33 14.19 51.28 7.04-2.74 14.01-5.97 20.14-10.43-3.65-6.97-7.75-13.69-11.76-20.45-1.9-2.99-3.5-6.33-6.4-8.51-5.24-4.16-10.55-8.25-16.17-11.89m74.25 25.84c2.31 8.06 4.6 16.14 7.08 24.16 1.03 3.57 4.56 5.42 7.47 7.29 6.97 4.05 14.11 8.01 21.85 10.39-4.49-20.27-9.21-40.48-13.94-60.69-7.29 6.52-15.15 12.37-22.46 18.85m463.94-10.74c-2.08 14.02-4.14 28.05-5.92 42.12 5.21-2.72 10.26-5.76 15.21-8.93 1.45-.86 2.77-2.08 3.05-3.84 1.03-4.32 1.55-8.77 1.91-13.19.25-2.59-1.47-4.74-3.26-6.37-3.62-3.32-7.16-6.73-10.99-9.79m-504.28 12.33c1.86 3.39 3.72 6.78 5.83 10.02 1.19-.42 2.37-.84 3.56-1.26-2.77-3.29-6.15-5.97-9.39-8.76m26.44 7.77c4.27 3.61 8.15 7.84 13.14 10.48-1.05-5.39-2.92-10.58-5.15-15.57-2.75 1.56-5.39 3.3-7.99 5.09m498.44-2.11c-.67 2.81-1.13 5.66-1.49 8.53 1.92-1.37 3.8-2.81 5.59-4.36-1.18-1.57-2.54-2.99-4.1-4.17z"/></svg>