<svg xmlns="http://www.w3.org/2000/svg" style="zoom:8" width="104" height="28"><path d="M31.975 26.891H4.69c-1.066 0-1.958-.84-1.958-1.933V6.08c0-1.066.867-1.958 1.958-1.958h27.286c1.066 0 1.958.868 1.958 1.958v18.853c-.025 1.115-.892 1.958-1.958 1.958z" fill="#f2f2f2"/><path d="M6.622 26.891l11.673-8.543.074-.495-12.02-8.65-.024 17.264z" opacity=".1" fill="#221f1f"/><g fill="#d44c3d"><path d="M4.689 26.891c-1.09 0-1.958-.84-1.958-1.933V6.053c0-1.09.867-1.29 1.958-1.29s1.958.224 1.958 1.29v20.835z"/><path d="M4.689 5.064c1.388 0 1.66.424 1.66.991v20.563H4.69a1.661 1.661 0 0 1-1.66-1.66V6.055c-.026-.595.272-.991 1.66-.991zm0-.273c-1.09 0-1.958.223-1.958 1.264v18.878c0 1.115.867 1.958 1.958 1.958h1.958V6.055c-.025-1.065-.868-1.264-1.958-1.264zm27.286.273c1.264 0 1.66.248 1.66.942v18.977a1.661 1.661 0 0 1-1.66 1.66h-1.66V6.006c-.025-.719.396-.942 1.66-.942zm0-.273c-1.09 0-1.958.149-1.958 1.217v20.91h1.958c1.09 0 1.958-.867 1.958-1.957V5.98c-.025-1.066-.892-1.19-1.958-1.19z"/><path d="M31.975 26.891h-1.958V6.006c0-1.09.868-1.217 1.958-1.217s1.958.148 1.958 1.217v18.977a1.952 1.952 0 0 1-1.958 1.908z"/></g><path d="M23.623 26.891L2.904 6.873l1.09.446 14.424 10.384L33.933 6.325V24.98a1.94 1.94 0 0 1-1.958 1.933z" opacity=".08" fill="#221f1f"/><g fill="#d44c3d"><path d="M18.295 18.373L3.573 7.69c-.867-.645-1.115-1.884-.47-2.751s1.883-1.066 2.775-.421l12.438 9.045 12.516-9.17a1.932 1.932 0 0 1 2.73.447c.644.867.445 2.082-.447 2.726z"/><path d="M31.975 4.32c.521 0 1.041.248 1.363.694a1.69 1.69 0 0 1-.372 2.33L18.295 18.026 3.747 7.468c-.744-.545-.942-1.61-.425-2.33.298-.446.821-.718 1.388-.718.372 0 .72.099.992.322l12.416 9.02.174.1.173-.1 12.491-9.169a2.081 2.081 0 0 1 1.019-.272zm0-.297c-.396 0-.82.1-1.14.372l-12.519 9.17L5.853 4.493a1.922 1.922 0 0 0-1.164-.372c-.623.025-1.24.297-1.611.82-.623.868-.372 2.083.495 2.727l14.721 10.706L33.118 7.57a1.97 1.97 0 0 0 .446-2.726c-.396-.521-.991-.821-1.586-.821z"/></g><path d="M61.42 16.145c0 2.34-.695 4.205-2.084 5.594-1.56 1.655-3.613 2.482-6.156 2.482-2.435 0-4.494-.843-6.18-2.528s-2.528-3.761-2.528-6.227.843-4.54 2.528-6.226 3.745-2.528 6.18-2.528c1.232 0 2.395.218 3.488.655s1.99 1.053 2.688 1.85l-1.544 1.545c-.515-.624-1.182-1.113-2.002-1.464s-1.697-.526-2.633-.526c-1.826 0-3.368.632-4.635 1.896-1.248 1.28-1.872 2.88-1.872 4.799s.624 3.52 1.872 4.798c1.264 1.264 2.81 1.897 4.635 1.897 1.67 0 3.058-.468 4.167-1.405s1.747-2.224 1.919-3.862h-6.086v-2.013h8.122a7.2 7.2 0 0 1 .117 1.264m4.401 7.697h-2.15V12.376h2.06v1.592h.093c.327-.562.83-1.03 1.51-1.404s1.353-.562 2.024-.562c.843 0 1.584.198 2.224.585a3.453 3.453 0 0 1 1.404 1.615c.952-1.467 2.27-2.2 3.957-2.2 1.326 0 2.348.406 3.066 1.217s1.077 1.966 1.077 3.464v7.16H78.93v-6.832c0-1.077-.198-1.853-.585-2.329s-1.046-.714-1.966-.714c-.828 0-1.522.351-2.083 1.054s-.843 1.53-.843 2.481v6.34h-2.151v-6.832c0-1.077-.198-1.853-.585-2.329s-1.045-.714-1.966-.714c-.828 0-1.522.351-2.083 1.054s-.843 1.53-.843 2.481v6.34m22.026-11.841c1.592 0 2.848.425 3.77 1.276s1.38 2.017 1.38 3.499v7.066h-2.06v-1.591h-.093c-.89 1.31-2.076 1.966-3.558 1.966-1.264 0-2.321-.375-3.172-1.124s-1.276-1.685-1.276-2.81c0-1.188.449-2.129 1.346-2.831s2.096-1.054 3.594-1.054c1.279 0 2.332.234 3.16.702v-.492c0-.748-.297-1.384-.89-1.907s-1.288-.784-2.083-.784c-1.202 0-2.151.507-2.859 1.522l-1.896-1.195c1.045-1.498 2.59-2.247 4.635-2.247m-2.786 8.333c0 .562.238 1.03.714 1.405s1.033.561 1.674.561c.904 0 1.712-.335 2.422-1.006s1.066-1.46 1.066-2.365c-.672-.53-1.608-.795-2.81-.795-.874 0-1.603.21-2.188.631s-.878.945-.878 1.569M98.22 8.416a1.466 1.466 0 0 1-.445 1.077c-.297.296-.655.444-1.077.444s-.78-.148-1.077-.444-.444-.655-.444-1.077a1.466 1.466 0 0 1 .444-1.077 1.466 1.466 0 0 1 1.077-.445 1.466 1.466 0 0 1 1.077.445c.296.297.445.656.445 1.077m-.445 3.956v11.471h-2.15V12.376m7.106-5.287v16.754h-2.151V7.09z" fill="#00000"/></svg>