<svg width="511pt" height="137pt" viewBox="0 0 511 137" xmlns="http://www.w3.org/2000/svg"><path fill="#fff" d="M40.45 44.64c8.35-2.01 18.14.33 23.39 7.46 6.23 8.81 6.18 21.36.62 30.47-7.71 12.1-27.76 12.71-36.29 1.23-5.75-7.91-6.01-18.96-2.09-27.72 2.58-5.86 8.15-10.11 14.37-11.44m1.08 8.07C35.41 55 33.16 62 33.07 67.99c.19 4.22.87 8.82 3.84 12.05 4.76 5.86 15.18 5.3 19.28-1.06 3.32-5.32 3.41-12.09 1.76-17.98-1.17-4.51-4.99-8.47-9.73-8.99-2.24-.11-4.57-.14-6.69.7z"/><path fill="#0364b8" d="M46.02 7.87c0-3.09 2.7-6.04 5.87-5.87h78.22c3.16-.16 5.88 2.81 5.86 5.88.09 2.04.03 4.08.03 6.12H46c0-2.04-.06-4.09.02-6.13z"/><path d="M46 14h48c-.02 7.53.07 15.05-.1 22.58-1.36-2.16-3.36-3.71-5.63-4.81-1.01-1.63-1.77-3.55-3.45-4.62-2-1.33-4.54-1.07-6.82-1.18-10.67.06-21.33.02-32 .03V14zm48 42h42v2.83c.02 3.52 0 7.03-.01 10.54-7.61 4.23-15.19 8.5-22.72 12.87-6.31 3.9-13.13 6.93-19.23 11.18-.09-12.47-.02-24.95-.04-37.42zm-.02 47.52c15.4 8.72 30.69 17.64 46.04 26.45 1.87 1.04 3.84 1.91 5.79 2.79-3 1.67-6.51 1.2-9.81 1.24-32.03-.01-64.07.01-96.1-.01-3.14.13-5.86-2.82-5.86-5.89-.12-4.05-.01-8.09-.03-12.14 16.68.09 33.37.01 50.05.05 3.4.21 6.96-1.34 8.71-4.33 1.51-2.45 1.24-5.42 1.21-8.16z" fill="#28a8ea"/><path fill="#50d9ff" d="M94 14h42v42H94c-.01-6.47.05-12.95-.1-19.42.17-7.53.08-15.05.1-22.58z"/><g fill="#0078d4"><path d="M6.58 27.61c1.73-1.6 4.21-1.6 6.42-1.62 11 .02 22 0 33 .01 10.67-.01 21.33.03 32-.03 2.28.11 4.82-.15 6.82 1.18 1.68 1.07 2.44 2.99 3.45 4.62-.57 8.06-.14 16.15-.27 24.23v38.39c0 1.84.02 3.69.03 5.53-.06 2.75.19 6-2.07 8.01-1.78 1.91-4.51 2.08-6.94 2.08-15-.02-30-.01-44.99-.01-7.71-.05-15.43.1-23.13-.06-3.67.08-7-3.16-6.86-6.86-.1-23.03 0-46.06-.05-69.09-.13-2.35.58-4.96 2.59-6.38m33.87 17.03c-6.22 1.33-11.79 5.58-14.37 11.44-3.92 8.76-3.66 19.81 2.09 27.72 8.53 11.48 28.58 10.87 36.29-1.23 5.56-9.11 5.61-21.66-.62-30.47-5.25-7.13-15.04-9.47-23.39-7.46z"/><path d="M41.53 52.71c2.12-.84 4.45-.81 6.69-.7 4.74.52 8.56 4.48 9.73 8.99 1.65 5.89 1.56 12.66-1.76 17.98-4.1 6.36-14.52 6.92-19.28 1.06-2.97-3.23-3.65-7.83-3.84-12.05.09-5.99 2.34-12.99 8.46-15.28z"/></g><path d="M88.27 31.77c2.27 1.1 4.27 2.65 5.63 4.81.15 6.47.09 12.95.1 19.42h-6c.13-8.08-.3-16.17.27-24.23zm-.24 68.15c1.99.9 3.97 1.82 5.93 2.77l.02.83c.03 2.74.3 5.71-1.21 8.16-1.75 2.99-5.31 4.54-8.71 4.33-16.68-.04-33.37.04-50.05-.05.01-1.98.02-3.97.02-5.96 14.99 0 29.99-.01 44.99.01 2.43 0 5.16-.17 6.94-2.08 2.26-2.01 2.01-5.26 2.07-8.01z" fill="#145374"/><path d="M354.05 40.82h6.74c0 20.73-.01 41.45 0 62.18h-6.74V40.82zm118.76 0c2.24 0 4.48 0 6.72-.01.01 13.19 0 26.39.01 39.58 5.94-6.45 11.86-12.92 17.78-19.39h8.84c-6.5 6.75-12.99 13.51-19.48 20.26 7 7.25 13.99 14.52 21.02 21.75-3.16-.02-6.31-.01-9.46-.01-6.24-6.77-12.45-13.57-18.7-20.33-.01 6.77 0 13.55 0 20.33h-6.73V40.82zm-238.32 2.92c5.14-.75 10.52-.69 15.46 1.07 7.74 2.59 13.61 9.41 15.92 17.13 2.09 7.15 1.98 14.87.13 22.06-2.1 8.12-8.05 15.36-16.06 18.16-9.84 3.4-21.99 2.1-29.56-5.52-6.28-6.05-8.77-15.07-8.44-23.59.16-6.98 1.94-14.17 6.32-19.73 3.87-5.2 9.88-8.54 16.23-9.58m-1.98 7.04c-7.01 2.62-11.65 9.54-12.85 16.74-1.32 8.08-.37 17.2 5.13 23.63 7.62 9.38 24.21 8.67 31.05-1.27 3.86-5.41 4.65-12.36 4.27-18.83-.32-6-2.11-12.3-6.58-16.54-5.45-5.29-14.07-6.17-21.02-3.73zm95.22-.05c2.25-.71 4.49-1.43 6.73-2.15V61h10.58v5.75c-3.53 0-7.07-.02-10.6.02.05 7.73-.02 15.45.03 23.18.11 2.28.14 4.84 1.7 6.67 2.41 2.25 6.22 1.83 8.89.28-.03 1.91-.03 3.83-.02 5.74-4.7 1.89-10.77 1.78-14.55-1.95-2.63-3.3-2.72-7.67-2.77-11.69.02-7.42.01-14.84.01-22.26h-7.22V61h7.22V50.73zm58.82 10.06c6.9-1.58 15.07-.82 20.3 4.41 4.94 4.85 6.26 12.2 5.79 18.86-.29 5.76-2.65 11.58-7.16 15.31-5.31 4.56-12.98 5.42-19.61 3.84-6.64-1.56-11.94-7.18-13.53-13.75-1.37-5.65-1.14-11.76.92-17.21 2.17-5.72 7.33-10.12 13.29-11.46m2.52 5.25c-5.35.96-9.26 5.78-10.18 10.97-1.09 5.7-.73 12.33 3.24 16.91 3.84 4.55 10.74 5.4 16.06 3.26 4.43-1.83 6.85-6.55 7.4-11.11.65-5.51.3-11.73-3.34-16.22-3.13-3.81-8.56-4.73-13.18-3.81zm47.45-5.42c6.67-1.32 14.42-.5 19.47 4.48 5.02 4.83 6.36 12.25 5.91 18.95-.3 5.62-2.53 11.3-6.85 15.04-5.2 4.7-12.85 5.67-19.5 4.23-6.65-1.41-12.1-6.85-13.82-13.39-1.55-5.72-1.32-11.97.73-17.54 2.24-6.03 7.76-10.58 14.06-11.77m-.14 5.98c-4.8 1.73-7.78 6.57-8.45 11.46-.86 5.77-.19 12.47 4.25 16.71 3.96 3.84 10.28 4.38 15.27 2.43 4.74-2 7.12-7.19 7.5-12.07.46-5.3 0-11.22-3.59-15.44-3.64-4.18-9.99-4.82-14.98-3.09zM277.15 61h6.7c.01 7.99-.03 15.98.01 23.98.05 3.99.58 8.59 3.85 11.34 3.71 2.85 9.44 2.59 13.04-.34 3.1-2.74 4.45-6.92 4.49-10.97.13-8 .01-16.01.05-24.01h6.73c-.01 14 .01 28 0 42h-6.73c0-2.28 0-4.55-.02-6.82-1.93 3.08-4.55 5.95-8.15 7.01-5.37 1.53-12.02.89-15.95-3.45-3.26-3.73-3.93-8.9-4-13.68-.04-8.35 0-16.71-.02-25.06z" fill="#252423"/><path fill="#003c69" d="M88 56h6c.02 12.47-.05 24.95.04 37.42-1.94.72-3.99.99-6.04.97V56z"/><path fill="#0a2666" d="M136 58.83c3.42 1.98 6.88 3.89 10.28 5.9 1.49.65 1.71 2.41 1.66 3.83-3.58 3.08-7.97 4.93-11.92 7.45-.02-2.21-.03-4.42-.03-6.64.01-3.51.03-7.02.01-10.54z"/><path fill="#1490df" d="M136.02 76.01c3.95-2.52 8.34-4.37 11.92-7.45.19 19.65-.1 39.3.15 58.95-12.76-7.06-25.34-14.44-38.06-21.57-4.35-2.44-8.73-4.85-12.85-7.66a3639.89 3639.89 0 0 0 38.84-22.27z"/><path fill="#1966a7" d="M113.27 82.24c7.53-4.37 15.11-8.64 22.72-12.87 0 2.22.01 4.43.03 6.64-12.9 7.5-25.85 14.93-38.84 22.27-1.09.61-2.18 1.23-3.26 1.85.01-2.24.08-4.47.12-6.71 6.1-4.25 12.92-7.28 19.23-11.18z"/><path fill="#02274d" d="M88 94.39c2.05.02 4.1-.25 6.04-.97-.04 2.24-.11 4.47-.12 6.71l.04 2.56c-1.96-.95-3.94-1.87-5.93-2.77-.01-1.84-.03-3.69-.03-5.53z"/><path fill="#1281c8" d="M93.92 100.13c1.08-.62 2.17-1.24 3.26-1.85 4.12 2.81 8.5 5.22 12.85 7.66 12.72 7.13 25.3 14.51 38.06 21.57-.16 1.97-.89 3.81-2.28 5.25-1.95-.88-3.92-1.75-5.79-2.79-15.35-8.81-30.64-17.73-46.04-26.45l-.02-.83-.04-2.56z"/></svg>