<svg enable-background="new 0 0 3258.6 975" viewBox="0 0 3258.6 975" xmlns="http://www.w3.org/2000/svg"><g fill="#e35534"><path d="m1074.9 293.2h101l185.2 237.8h1v-237.8h101.1v388.9h-101.1l-185.1-238.3h-1.1v238.3h-101z"/><path d="m1781.9 565.5h-197.6c0 38.2 20.1 58.8 58.8 58.8 20.1 0 34.5-6.7 44.8-24.2h90.3c-14.9 62.4-74.3 90.8-134.6 90.8-87.7 0-153.2-49.5-153.2-140.8 0-88.2 60.4-141.3 146.5-141.3 91.8 0 144.9 56.7 144.9 147v9.7zm-87.2-54.1c-4.6-25.3-27.9-41.8-53.1-41.8-27.3 0-50 14.4-55.7 41.8z"/><path d="m1939.1 560.9 66.5-143.4h55.7l66.5 143.4 66.5-143.4h103.7l-138.2 264.6h-60.9l-65.5-144.9-65.5 144.9h-60.8l-138.2-264.6h104.1z"/><path d="m2479 485.6c-14.5-7.7-34.6-12.9-50.6-12.9-10.8 0-29.4 4.6-29.4 18 0 18 29.4 20.6 42.3 23.2 43.8 8.8 76.8 29.4 76.8 78.4 0 69.6-63.4 98.5-124.8 98.5-37.6 0-74.8-10.8-106.7-30.4l34-65.5c19.1 13.4 51.1 26.8 74.3 26.8 11.9 0 29.4-5.7 29.4-20.1 0-20.7-29.4-21.7-58.8-29.4s-58.8-22.2-58.8-69.6c0-65 58.8-93.9 116.6-93.9 29.9 0 59.8 4.6 87.1 17z"/><path d="m2913.6 596.5v85.6h-312.5l158.9-172.8c22.7-24.7 44.4-59.8 44.4-95.4 0-24.7-17.5-50.6-44.4-50.6-27.3 0-42.3 21.2-42.3 47.5 0 5.2.5 10.8 1.5 16.5h-111.4c3.1-89.2 59.8-149.5 151.7-149.5 81.5 0 150.1 53.6 150.1 138.2 0 55.7-23.2 88.2-62.9 124.3l-60.3 56.2z"/><path d="m3258.6 524.3v77.4h-46.9v80.4h-93.9v-80.4h-188.8v-64.5l150.1-243.9h132.5v231zm-140.8-149.6h-1l-90.8 149.6h91.8z"/><path d="m0 0h975v975h-975z"/></g><path d="m422.1 682.5h-126.2l-95.7-150h-1v150h-101.4v-390h151.6c77 0 135.5 36.7 135.5 120 0 53.8-30 100.4-85.3 110.2zm-222.9-215.1h9.8c33.1 0 70.3-6.2 70.3-48.6s-37.2-48.6-70.3-48.6h-9.8z" fill="#fefefe"/><path d="m729.4 682.5h-94.1v-29.5h-1c-16.6 26.4-49.2 38.3-80.2 38.3-78.7 0-134-65.7-134-141.7s54.3-141.2 132.9-141.2c30.5 0 62.6 11.4 82.2 34.7v-25.9h94.1v265.3zm-212.1-132.4c0 33.6 22.2 59.5 60.5 59.5 38.2 0 60.5-25.9 60.5-59.5 0-32.6-22.2-60-60.5-60s-60.5 27.4-60.5 60" fill="#fefefe"/><path d="m883.5 315.3c0 29-23.8 52.8-52.8 52.8s-52.8-23.8-52.8-52.8 23.8-52.7 52.8-52.7 52.8 23.8 52.8 52.7m-5.6 367.2h-94.1v-265.3h94.1z" fill="#fefefe"/></svg>