<svg width="445pt" height="134pt" viewBox="0 0 445 134" xmlns="http://www.w3.org/2000/svg"><path fill="#fff" d="M24.93 41h38.14c0 3.17 0 6.33-.02 9.49-4.76.01-9.53 0-14.29.01.01 12.83-.01 25.66.01 38.49-3.15.01-6.29.01-9.44 0 .01-12.83.01-25.66 0-38.48-4.8-.02-9.6-.01-14.4-.02-.01-3.16-.01-6.32 0-9.49z"/><path d="M66.04 23C65.37 7.52 85.1-2.93 97.4 6.65c13.42 8.42 9.92 31.14-5.34 35.33-.06-4.3.79-10.3-4.25-12.21-4.23-8.53-13.79-6.9-21.77-6.77zM92 47c6.51-.03 13.01.05 19.51-.05 6.79 3.54 4.21 11.9 4.64 18.05-.74 14.27 1.72 28.93-1.67 42.93-7.21 27.48-49.2 30.86-60.96 5.1 12.08-2.38 28.8 5.25 37.65-5.13 1.94-20.08.27-40.64.83-60.9z" fill="#7b83eb"/><path d="M121.4 11.49c18.57-5.57 25.99 25.26 7.21 29.02-18.57 5.56-26.02-25.31-7.21-29.02zM2.03 29.95c-.15-3.71 3.2-6.99 6.88-6.89 19.04-.14 38.09-.02 57.13-.06 7.98-.13 17.54-1.76 21.77 6.77-.44-.11-1.34-.31-1.79-.41-.05 4.57-.03 9.13-.02 13.7V47c-.52 18.71 1.03 37.67-.78 56.21-8.66 8.03-23.12 1.83-34.08 3.79-14.08-.05-28.15.09-42.23-.06-3.68.09-7.03-3.17-6.87-6.89-.08-23.36-.05-46.73-.01-70.1M24.93 41c-.01 3.17-.01 6.33 0 9.49 4.8.01 9.6 0 14.4.02.01 12.82.01 25.65 0 38.48 3.15.01 6.29.01 9.44 0-.02-12.83 0-25.66-.01-38.49 4.76-.01 9.53 0 14.29-.01.02-3.16.02-6.32.02-9.49H24.93zm86.58 5.95c10.75 1.61 23.4-2.95 32.92 2.58 3.47 11.83.6 25.11 1.52 37.5.81 15.69-17.31 27.66-31.47 20.9 3.39-14 .93-28.66 1.67-42.93-.43-6.15 2.15-14.51-4.64-18.05z" fill="#4c54bc"/><path d="M86.02 29.36c.45.1 1.35.3 1.79.41 5.04 1.91 4.19 7.91 4.25 12.21-2.01.41-4.03.77-6.06 1.08-.01-4.57-.03-9.13.02-13.7zM86 47h6c-.56 20.26 1.11 40.82-.83 60.9-8.85 10.38-25.57 2.75-37.65 5.13-.88-1.97-1.66-3.99-2.38-6.03 10.96-1.96 25.42 4.24 34.08-3.79 1.81-18.54.26-37.5.78-56.21z" fill="#3d4175"/><path d="M207.68 41.18h40.81v6.24c-5.66 0-11.32-.01-16.97 0-.01 17.53 0 35.06-.01 52.59-2.3-.01-4.59-.01-6.89-.01 0-17.53.01-35.05 0-52.58-5.65-.01-11.29 0-16.94 0v-6.24zm47.21 45.83c-5.19-14.42 6.45-34 23.1-29.44 10.33 2.09 13.4 13.97 12.61 23.11-9.92.02-19.83-.01-29.74.01-1.19 14.66 17.59 18.71 26.81 10-.02 2.09-.02 4.19 0 6.28-10.82 7.56-30.02 4.74-32.78-9.96m6.1-12.04c7.56.01 15.13.01 22.7 0 1.63-16.3-22.73-15.09-22.7 0zm40.8-14.05c8.53-5.28 24.37-6.72 28.12 4.97 2.05 11.2.47 22.76.97 34.11h-6.74c0-2.24-.01-4.47.01-6.7-5.95 13.02-30.14 8.37-26.19-7.3 2.25-12.05 16.91-10.91 26.21-12.63 1.28-13.2-15.61-12.6-22.39-5.55.01-2.3.02-4.6.01-6.9m3.59 30.57c7.84 10.26 22.46-1.98 18.78-12.73-7.47.98-22.99.97-18.78 12.73zm44.63-26.68c4.81-10.01 21.73-10.55 25.1.85 4.59-10.58 22.94-12.2 26.57-.16 2.57 11.26.69 23.03 1.27 34.5h-6.74c-.36-10.33.84-20.79-.77-31.02-1.7-8.22-14.48-8.07-17.01-.41-3.88 9.9-1.1 21.02-1.94 31.43h-6.73c-.43-10.3.97-20.77-.89-30.95-1.9-8.36-15.04-8.21-17.29-.1-3.12 9.95-.86 20.75-1.55 31.05h-6.73c.01-14 .01-28 0-42h6.73c0 2.27 0 4.54-.02 6.81zm63.59 6.05c-1.52-13.19 16.21-16.3 25.59-11.97-.01 2.27-.01 4.55 0 6.82-5.8-4.52-21.89-4.73-18.02 5.99 7.06 6.11 24.3 7.97 19.04 21.41-5.08 9.25-18.31 9.2-26.94 5.39-.01-2.4-.01-4.8-.02-7.2 5.62 4.31 19.41 7.37 20.9-2.12-2.65-9.87-19.51-6.83-20.55-18.32z" fill="#252423"/></svg>