<?xml version="1.0" encoding="utf-8"?>
<svg viewBox="94.588 64.851 287.266 142.463" width="287.266px" height="142.463px" xmlns="http://www.w3.org/2000/svg">
  <g id="#000000ff" transform="matrix(1, 0, 0, 1, 35.558128, -19.735657)" style="">
    <path fill="#000000" opacity="1.00" d="M 314.98 85.25 L 315.59 85.15 C 317.16 84.92 318.75 84.74 320.34 84.61 L 320.71 84.59 C 322.15 84.56 323.59 84.71 325.01 85.06 L 325.51 85.21 C 325.89 85.38 326.66 85.71 327.05 85.88 L 327.51 86.10 C 328.39 86.62 329.22 87.22 329.99 87.90 C 330.28 88.22 330.85 88.86 331.13 89.18 C 333.40 93.37 333.06 98.63 332.07 103.17 L 331.93 103.66 C 331.39 105.38 330.81 107.09 330.03 108.71 C 329.71 109.17 329.08 110.07 328.76 110.53 L 328.27 111.24 C 330.41 118.77 328.66 126.49 327.90 134.07 L 327.79 134.58 C 327.60 135.21 327.22 136.45 327.03 137.08 L 326.84 137.56 C 326.35 138.75 325.77 139.89 325.19 141.04 L 324.95 141.49 C 324.74 141.87 324.33 142.63 324.13 143.01 L 323.87 143.47 C 323.50 144.08 322.74 145.32 322.37 145.93 L 321.92 146.14 C 321.52 146.19 320.72 146.29 320.32 146.34 C 320.92 149.19 320.68 152.11 320.71 155.00 C 320.73 178.31 320.68 201.61 320.74 224.92 C 317.51 224.98 314.28 224.95 311.05 224.96 C 311.05 221.92 311.12 218.89 310.91 215.86 C 310.49 216.40 309.64 217.47 309.22 218.00 C 309.15 218.08 309.03 218.24 308.97 218.32 C 307.64 220.04 306.13 221.62 304.40 222.94 L 303.97 223.22 C 302.03 224.41 299.89 225.24 297.71 225.86 L 297.20 225.95 C 294.41 226.30 291.59 226.29 288.81 225.94 L 288.30 225.85 C 286.22 225.27 284.20 224.47 282.34 223.39 L 281.65 222.99 C 280.01 221.59 278.49 220.03 277.17 218.33 L 276.88 217.89 C 275.86 216.17 274.96 214.38 274.20 212.54 L 274.02 212.04 C 273.25 209.63 272.79 207.13 272.50 204.62 C 272.49 204.55 272.48 204.41 272.47 204.33 C 272.01 199.83 272.31 195.27 273.05 190.81 L 273.15 190.30 C 273.41 189.18 273.72 188.07 274.07 186.97 L 274.24 186.47 C 274.54 185.77 275.14 184.36 275.44 183.66 C 275.47 183.59 275.54 183.45 275.57 183.38 C 276.28 181.98 277.01 180.57 277.89 179.26 C 278.20 178.81 278.84 177.92 279.15 177.47 C 280.23 176.26 281.40 175.13 282.61 174.06 L 283.31 173.65 C 283.46 173.55 283.78 173.34 283.94 173.24 C 284.36 172.97 285.20 172.43 285.62 172.16 L 286.10 171.94 C 287.11 171.54 288.13 171.18 289.17 170.85 C 289.53 165.93 289.33 161.00 289.31 156.07 C 289.40 153.04 288.15 150.04 288.89 147.03 C 287.39 146.62 285.59 146.30 285.21 144.50 L 285.05 144.00 C 284.74 142.88 284.42 141.76 284.11 140.64 L 283.96 140.15 C 283.77 139.51 283.38 138.23 283.19 137.59 L 283.04 137.09 C 282.46 134.91 281.89 132.74 281.22 130.60 L 281.06 130.09 C 280.87 129.46 280.49 128.19 280.29 127.55 L 280.15 127.04 C 279.84 125.89 279.51 124.75 279.16 123.62 L 279.00 123.11 C 278.79 122.48 278.37 121.21 278.16 120.57 L 278.02 120.07 C 278.06 119.41 278.16 118.08 278.21 117.41 C 278.33 117.36 278.58 117.27 278.70 117.23 C 279.59 116.84 280.50 116.53 281.44 116.29 C 281.85 116.93 282.66 118.20 283.06 118.84 C 283.09 119.15 283.14 119.77 283.17 120.07 C 283.24 121.24 283.51 122.36 283.97 123.44 L 284.20 124.12 C 284.36 124.69 284.68 125.81 284.84 126.38 L 284.97 126.89 C 285.17 127.53 285.56 128.83 285.76 129.48 L 285.92 129.98 C 286.12 130.60 286.52 131.84 286.71 132.46 L 286.86 132.97 C 287.15 134.16 287.48 135.33 287.85 136.49 L 288.01 136.99 C 288.46 138.60 289.17 140.12 290.01 141.57 L 290.17 142.07 L 290.42 143.02 C 293.33 142.64 296.27 142.37 299.20 142.62 L 298.73 143.85 C 296.74 144.12 294.72 144.11 292.73 144.32 C 293.00 144.52 293.52 144.90 293.78 145.10 C 297.32 144.93 300.89 145.02 304.41 144.56 C 304.48 144.54 304.61 144.52 304.68 144.51 L 306.68 144.05 L 307.27 143.96 L 307.84 143.91 L 308.44 143.89 C 310.80 143.84 313.18 143.85 315.52 143.42 C 315.72 143.09 316.12 142.44 316.32 142.11 L 314.78 142.01 L 314.17 142.00 C 312.21 142.25 310.27 142.66 308.36 143.15 L 307.78 143.26 L 307.22 143.31 L 306.63 143.29 C 304.58 143.03 302.53 143.15 300.49 143.34 L 301.00 141.86 L 301.27 141.85 C 303.96 141.84 306.64 141.63 309.31 141.25 L 309.88 141.15 C 312.39 139.77 313.97 137.27 316.02 135.34 C 316.36 135.01 317.03 134.35 317.37 134.02 C 318.39 133.07 319.45 132.17 320.49 131.24 L 321.24 130.94 C 321.43 130.75 321.81 130.38 322.00 130.19 L 322.28 129.46 C 323.05 127.61 323.73 125.72 324.10 123.75 C 324.17 123.36 324.32 122.57 324.39 122.18 C 325.19 120.60 325.96 118.90 325.82 117.08 C 324.24 117.82 323.66 119.59 323.05 121.09 C 322.76 121.46 322.17 122.19 321.88 122.55 C 321.26 123.33 320.66 124.13 320.08 124.94 L 319.78 125.42 C 319.23 126.29 318.71 127.18 318.23 128.09 L 317.95 128.60 C 317.21 129.31 316.47 130.04 315.74 130.76 C 315.18 131.13 314.05 131.86 313.49 132.22 C 313.32 132.36 312.98 132.64 312.80 132.78 C 312.25 133.14 311.15 133.86 310.60 134.21 C 309.63 135.04 308.66 135.87 307.71 136.72 C 307.19 137.10 306.16 137.87 305.64 138.25 C 304.28 139.34 302.88 140.39 301.53 141.50 L 301.14 141.41 L 299.87 141.09 C 300.71 140.04 301.58 138.98 302.69 138.19 L 303.13 137.89 C 303.45 137.68 304.10 137.26 304.42 137.05 C 304.91 136.69 305.89 135.98 306.38 135.63 C 306.50 135.52 306.76 135.31 306.88 135.20 C 308.14 134.14 309.39 133.06 310.71 132.07 L 311.35 131.63 C 312.44 130.86 313.49 130.05 314.54 129.24 C 314.98 128.86 315.87 128.11 316.31 127.73 C 316.42 127.59 316.64 127.30 316.75 127.16 L 317.02 126.68 C 317.24 126.29 317.70 125.53 317.93 125.15 L 318.22 124.70 C 319.15 123.43 320.15 122.21 321.15 120.98 C 321.27 120.82 321.51 120.49 321.62 120.32 L 321.96 119.75 C 322.21 119.34 322.71 118.52 322.95 118.11 L 323.23 117.65 C 323.94 116.49 324.59 115.30 325.18 114.07 C 322.56 115.46 319.63 116.67 316.62 115.89 L 316.02 115.78 C 315.91 115.73 315.69 115.63 315.59 115.58 C 315.02 115.28 313.90 114.67 313.33 114.37 L 312.66 113.95 C 311.30 112.93 310.14 111.68 309.12 110.33 L 308.82 109.90 C 307.67 107.97 306.79 105.87 306.18 103.70 L 306.10 103.18 C 305.87 99.77 305.46 96.33 305.94 92.92 L 306.07 92.43 C 306.21 92.15 306.49 91.60 306.63 91.32 C 307.50 90.38 308.40 89.46 309.31 88.55 C 309.39 88.47 309.55 88.31 309.63 88.22 C 310.53 87.45 311.52 86.79 312.58 86.24 L 313.07 86.01 L 314.54 85.41 C 314.65 85.37 314.87 85.29 314.98 85.25 M 319.20 86.49 L 319.21 87.00 L 318.10 86.64 C 317.60 86.82 316.61 87.18 316.12 87.36 C 315.09 86.64 312.74 87.39 312.68 88.68 L 312.25 89.48 C 310.60 88.92 307.70 91.42 308.41 93.13 L 307.83 94.09 C 306.51 94.87 307.00 97.48 307.56 98.75 L 307.97 98.75 C 307.42 100.23 307.52 101.65 308.26 103.01 L 307.79 103.90 L 308.19 104.99 L 308.15 105.53 L 308.68 105.61 C 309.53 108.04 311.00 110.25 312.97 111.91 L 314.19 111.91 C 313.54 113.33 316.05 114.63 317.10 113.71 C 318.45 114.63 319.92 114.64 321.52 113.75 C 321.62 113.72 321.81 113.65 321.90 113.62 L 323.42 112.68 C 323.48 112.65 323.62 112.57 323.68 112.53 L 325.18 111.71 L 325.23 110.79 L 325.66 110.98 C 326.72 110.50 328.40 109.08 327.61 107.80 L 328.73 106.94 C 328.73 106.84 328.74 106.65 328.74 106.55 L 328.82 104.84 L 329.70 104.72 L 330.15 103.75 L 329.70 102.94 L 330.43 101.58 C 330.43 101.50 330.45 101.35 330.46 101.28 C 331.02 98.05 330.71 94.79 330.45 91.55 L 329.54 91.28 C 330.12 89.85 328.19 87.94 326.77 88.30 L 325.78 88.11 L 325.77 87.24 L 324.89 86.66 L 324.03 86.94 L 322.87 87.00 C 322.72 85.51 320.12 85.82 319.20 86.49 M 279.36 119.20 L 279.16 119.79 L 279.68 120.02 L 280.25 120.81 C 280.24 121.25 280.20 122.13 280.18 122.57 L 280.81 122.91 C 280.56 124.30 280.98 125.39 282.06 126.17 C 281.51 127.29 281.93 129.00 282.74 129.85 L 282.97 130.68 C 283.37 132.54 283.75 134.44 284.47 136.22 L 284.23 136.76 L 284.67 137.00 L 285.13 137.85 C 285.26 138.39 285.54 139.47 285.68 140.01 L 286.03 140.92 L 286.16 141.73 L 286.93 142.20 L 287.75 141.94 L 288.09 141.16 C 287.89 140.88 287.50 140.32 287.31 140.04 L 286.94 139.16 C 286.80 138.65 286.51 137.64 286.36 137.14 L 286.00 136.41 C 285.66 134.16 285.04 131.97 284.37 129.80 L 283.91 129.03 C 284.21 127.65 283.78 126.60 282.61 125.88 L 282.72 125.15 L 282.90 124.49 L 282.40 124.09 C 282.24 123.59 281.92 122.59 281.76 122.09 L 281.60 121.07 L 281.82 120.44 L 281.32 120.05 L 280.78 119.26 L 279.91 119.34 L 279.36 119.20 M 326.15 122.12 L 325.68 123.02 L 326.05 123.94 C 325.45 124.98 325.05 126.09 324.86 127.29 L 325.02 127.86 C 324.84 128.45 324.48 129.63 324.31 130.22 L 324.20 130.62 C 323.28 132.08 321.07 132.48 320.53 134.07 L 319.95 134.01 C 317.96 136.05 314.97 137.63 314.14 140.46 C 314.28 140.56 314.56 140.75 314.69 140.85 L 314.62 140.44 C 315.18 140.41 316.30 140.36 316.86 140.33 C 317.30 141.43 317.77 142.53 318.26 143.61 L 318.10 144.12 L 318.56 144.36 L 320.18 144.05 L 321.09 143.99 L 321.73 143.81 L 321.88 143.15 L 321.89 142.25 L 322.68 142.36 C 323.61 140.57 324.47 138.75 325.21 136.88 L 325.02 136.31 L 325.63 135.86 C 326.55 130.25 327.63 124.61 327.67 118.92 C 326.65 119.67 326.23 120.89 326.15 122.12 M 299.31 148.08 C 300.16 149.28 303.25 148.42 303.77 147.28 C 302.39 146.79 300.26 146.83 299.31 148.08 M 292.24 148.24 L 292.24 148.76 L 292.76 148.76 L 292.77 148.24 L 292.24 148.24 M 297.23 148.20 L 297.22 148.79 L 297.81 148.80 L 297.82 148.22 L 297.23 148.20 M 301.82 150.17 L 301.34 150.02 C 298.09 150.32 294.81 150.17 291.58 150.61 C 291.89 151.27 292.52 152.61 292.84 153.27 L 292.73 153.87 L 293.46 155.16 L 293.36 155.68 L 293.82 155.77 L 294.37 157.29 L 295.17 157.52 L 295.32 157.90 L 295.06 159.14 L 296.14 159.52 L 296.30 159.89 L 296.14 161.15 L 297.11 161.50 L 297.28 161.88 L 297.09 163.20 L 298.09 163.48 L 298.30 163.89 L 298.30 164.90 L 299.01 165.30 L 298.94 165.92 C 299.21 166.28 299.76 167.00 300.04 167.36 L 300.23 168.23 C 300.68 169.16 301.28 169.96 302.03 170.66 C 302.13 170.73 302.34 170.89 302.45 170.97 C 303.58 171.74 304.84 172.30 306.08 172.89 L 306.59 172.85 C 307.79 174.48 309.45 175.69 310.93 177.05 C 311.19 167.51 310.99 157.96 311.04 148.42 L 309.63 148.80 L 309.18 149.16 C 306.75 148.83 304.02 149.00 301.82 150.17 M 291.20 155.20 L 291.19 155.77 L 291.07 156.30 C 291.03 160.70 290.66 165.16 291.27 169.52 C 291.30 169.69 291.37 170.04 291.41 170.21 C 293.78 170.22 296.15 170.20 298.53 170.20 L 299.15 170.15 L 299.24 169.51 C 298.83 168.84 298.01 167.50 297.60 166.83 L 297.67 166.32 L 297.21 166.23 C 296.48 165.01 296.39 163.10 294.93 162.45 L 294.71 162.03 L 294.98 160.75 L 293.91 160.49 L 293.73 160.07 L 293.96 158.75 L 292.86 158.52 L 292.66 158.10 L 292.89 156.86 L 291.69 156.48 L 291.78 155.85 L 291.79 155.24 L 291.20 155.20 M 294.08 177.84 L 293.49 177.74 C 292.78 178.08 291.35 178.77 290.64 179.12 L 290.08 179.08 C 288.94 179.89 287.92 180.85 287.02 181.91 L 287.02 182.50 C 285.07 183.49 284.84 186.33 283.94 188.23 L 284.10 188.77 C 283.09 190.07 283.22 191.81 282.91 193.34 L 283.15 193.84 C 282.08 198.47 282.22 203.86 283.97 208.31 L 283.83 208.88 C 284.97 212.47 287.19 216.12 291.00 217.26 C 293.66 218.07 296.94 218.48 299.38 216.88 L 299.80 216.77 L 301.15 216.76 L 301.49 215.96 L 301.95 215.79 L 303.29 216.05 L 303.46 214.94 L 304.01 215.00 C 305.29 214.64 306.11 213.90 306.48 212.80 L 307.41 212.53 C 307.58 212.39 307.92 212.10 308.09 211.96 C 309.54 210.70 311.40 209.18 311.06 207.01 C 311.03 199.36 311.08 191.71 311.02 184.07 C 309.81 183.31 308.67 181.51 307.33 181.46 C 306.97 181.11 306.25 180.42 305.89 180.07 L 305.06 180.17 L 304.96 179.27 L 303.89 179.29 L 303.48 179.05 C 302.80 178.74 301.43 178.11 300.75 177.80 L 300.21 178.05 C 298.57 176.93 296.37 177.39 294.54 177.57 C 294.43 177.64 294.20 177.77 294.08 177.84 Z"/>
    <path d="M164.34,89.73 C166.96,87.83 170.27,87.91 173.32,88.47 C173.41,88.48 173.59,88.51 173.68,88.52 C174.54,88.61 176.24,88.80 177.10,88.89 L177.57,89.02 C177.90,89.22 178.58,89.62 178.91,89.82 L179.38,90.11 C179.77,90.39 180.56,90.95 180.95,91.24 C181.15,91.35 181.54,91.59 181.74,91.71 L182.52,92.06 L183.24,92.83 L183.75,93.37 C184.53,94.51 185.41,95.58 186.46,96.48 C186.39,97.05 186.26,98.19 186.19,98.76 L185.85,99.36 C185.65,99.76 185.26,100.57 185.06,100.97 L184.88,101.47 C184.00,104.25 184.24,107.24 184.06,110.12 L183.94,110.61 C183.79,110.98 183.48,111.72 183.33,112.09 L183.05,112.49 C182.42,113.29 181.78,114.09 181.15,114.89 C180.77,115.27 180.02,116.02 179.65,116.39 C179.51,116.53 179.23,116.80 179.08,116.94 C177.98,117.68 176.84,118.35 175.71,119.05 L175.21,119.08 C174.31,119.07 172.50,119.05 171.60,119.05 L171.16,119.05 C169.86,118.60 168.56,118.15 167.26,117.70 C167.36,118.31 167.56,119.52 167.65,120.13 C166.04,119.35 164.43,118.55 162.79,117.82 C163.78,119.10 164.82,120.34 165.86,121.58 L166.36,122.28 C169.21,125.78 172.09,129.43 175.92,131.90 L176.43,132.14 C176.83,132.33 177.62,132.70 178.02,132.89 L178.57,133.14 C178.94,133.31 179.70,133.67 180.07,133.84 L180.60,134.07 C181.16,134.30 182.28,134.77 182.84,135.00 L183.48,135.26 C183.85,135.43 184.59,135.76 184.96,135.93 L185.47,136.15 C185.85,136.33 186.61,136.69 186.99,136.87 L187.47,137.10 C187.85,137.29 188.60,137.67 188.98,137.86 L189.47,138.10 C190.67,138.72 191.94,139.22 193.12,139.89 C193.54,140.80 193.91,141.73 194.23,142.68 C190.76,142.55 187.29,142.36 183.83,142.09 L183.33,142.02 C181.43,141.67 179.50,141.55 177.58,141.49 L177.53,141.48 C177.47,141.50 177.34,141.52 177.28,141.54 L176.85,141.63 C176.96,142.07 177.20,142.96 177.31,143.40 C177.38,143.44 177.53,143.51 177.60,143.55 C180.40,143.87 183.22,143.84 186.04,144.03 C186.52,144.02 187.49,144.01 187.98,144.01 L189.24,143.81 L189.74,143.88 C192.15,144.77 194.74,144.98 197.29,145.03 L197.80,145.07 C199.80,145.37 201.82,145.50 203.84,145.53 C203.65,144.92 203.27,143.69 203.08,143.07 C202.24,143.08 200.57,143.10 199.74,143.11 L199.26,143.13 C199.22,142.69 199.13,141.81 199.09,141.37 C201.02,141.52 202.96,141.45 204.86,141.04 C204.82,140.72 204.73,140.07 204.69,139.75 L204.83,139.37 C205.80,138.93 206.48,138.19 206.87,137.15 L207.15,136.70 C207.73,135.84 208.29,134.97 208.83,134.08 L209.10,133.61 C209.31,133.25 209.72,132.53 209.93,132.17 L210.18,131.68 C210.37,131.30 210.75,130.54 210.94,130.17 L211.19,129.65 C211.40,129.25 211.80,128.46 212.01,128.07 L212.26,127.55 C212.43,127.21 212.77,126.52 212.94,126.18 L213.19,125.67 C213.37,125.40 213.73,124.87 213.91,124.60 C214.23,124.01 214.88,122.82 215.20,122.23 C215.36,121.93 215.67,121.34 215.82,121.05 L216.09,120.55 C216.88,119.44 217.60,118.23 218.79,117.50 L219.24,117.86 C219.69,118.24 220.58,118.99 221.03,119.36 C221.11,119.78 221.26,120.61 221.34,121.03 L221.10,121.44 C220.86,121.81 220.37,122.54 220.13,122.91 L219.83,123.38 C218.40,125.46 217.25,127.73 216.18,130.02 L215.92,130.55 C215.69,130.90 215.25,131.60 215.02,131.95 L214.73,132.43 C213.37,134.53 212.17,136.73 211.23,139.05 L211.00,139.49 C210.76,139.84 210.28,140.55 210.04,140.91 L209.73,141.38 C209.15,142.25 208.60,143.12 208.07,144.02 L207.78,144.50 C206.61,147.54 203.37,147.33 200.68,147.13 L200.16,147.13 L198.80,147.08 L198.31,147.01 C196.38,146.58 194.43,146.33 192.47,146.10 C193.02,147.05 193.57,148.00 194.13,148.94 C194.29,150.38 194.48,151.83 194.85,153.24 L194.98,153.84 C195.25,154.98 195.56,156.11 195.90,157.24 L196.06,157.82 C196.25,158.47 196.62,159.77 196.81,160.42 L196.94,160.94 C197.16,162.13 197.45,163.30 197.81,164.46 L197.96,164.98 C198.17,165.63 198.58,166.93 198.78,167.58 L198.96,168.10 C199.19,168.75 199.65,170.04 199.87,170.69 L200.02,171.10 L200.45,171.14 C202.88,171.44 205.32,171.37 207.76,171.24 L207.97,171.23 L207.43,172.09 C207.30,172.36 207.05,172.91 206.92,173.18 C206.80,173.27 206.56,173.43 206.44,173.52 C206.03,174.01 205.22,174.99 204.82,175.49 C203.30,177.21 201.79,178.94 200.27,180.66 C199.87,181.14 199.08,182.12 198.68,182.61 C196.77,184.53 195.07,186.64 193.29,188.66 C192.89,189.15 192.09,190.12 191.69,190.61 C190.08,192.25 188.50,193.93 187.19,195.82 L187.08,196.56 C187.37,196.98 187.93,197.82 188.21,198.23 C191.02,201.16 193.60,204.31 196.54,207.12 C197.77,208.43 198.97,209.78 200.19,211.11 C203.32,214.66 206.51,218.15 209.80,221.55 C210.70,222.54 211.57,223.65 212.83,224.21 C210.80,225.50 208.26,224.79 206.01,224.99 C203.80,224.83 201.33,225.45 199.41,224.05 C198.17,222.53 196.87,221.05 195.50,219.65 C195.42,219.58 195.27,219.42 195.19,219.34 C192.36,215.94 189.33,212.72 186.26,209.55 C185.45,208.58 184.63,207.62 183.76,206.71 C180.85,203.76 178.24,200.52 175.21,197.68 C175.11,206.78 175.21,215.88 175.16,224.98 C171.97,224.94 168.77,224.94 165.58,224.99 C165.53,198.93 165.57,172.86 165.56,146.80 C164.29,145.42 163.16,143.93 161.99,142.47 L161.74,142.05 C161.57,141.66 161.22,140.88 161.04,140.49 L160.85,140.02 C160.30,137.95 159.69,135.89 159.08,133.84 L159.00,133.25 C158.82,131.37 158.40,129.54 157.88,127.74 L157.83,127.30 C157.92,126.47 158.10,124.81 158.19,123.98 L158.28,123.24 L158.40,122.76 C158.42,122.67 158.46,122.49 158.49,122.41 L158.49,122.38 C158.73,120.38 159.45,118.50 160.01,116.58 L160.11,116.25 L159.61,116.03 C158.61,114.92 157.82,113.66 157.12,112.35 L156.89,111.92 C156.09,109.50 154.87,107.11 155.46,104.46 C155.47,104.31 155.48,104.02 155.49,103.87 L155.51,103.15 C155.51,103.01 155.52,102.72 155.52,102.58 C155.57,101.94 155.67,100.64 155.73,99.99 L155.98,99.56 C156.22,99.17 156.68,98.40 156.91,98.02 L157.13,97.50 C157.29,97.12 157.62,96.35 157.78,95.97 L157.99,95.52 C159.70,93.57 161.51,91.69 163.62,90.15 L164.34,89.73 M174.32,97.02 L174.01,97.80 L172.94,97.90 L172.07,97.67 L171.24,98.30 L171.28,99.16 L169.59,99.39 C169.50,99.40 169.32,99.42 169.23,99.44 L168.48,101.40 C168.46,101.46 168.42,101.59 168.40,101.66 L168.09,103.21 L167.22,103.21 L166.64,104.09 L166.93,104.95 L166.82,106.07 L166.00,106.35 L165.76,107.40 L166.36,108.12 C166.18,108.92 165.83,110.51 165.65,111.30 C165.64,111.40 165.64,111.59 165.64,111.69 L165.67,113.24 L166.20,113.96 C165.80,115.58 168.49,117.48 169.98,116.81 L171.00,117.37 L172.22,117.01 L172.22,117.79 L172.98,118.22 L173.75,117.79 L173.76,117.00 L174.81,117.27 L176.43,116.72 C176.52,116.69 176.69,116.63 176.78,116.60 C177.90,115.63 179.05,114.69 180.25,113.82 L180.16,112.97 L180.81,113.10 C181.09,112.72 181.67,111.94 181.96,111.56 L181.81,110.84 L181.90,109.64 L182.34,109.71 C183.62,107.92 183.46,105.12 182.66,103.15 L183.17,101.90 L182.97,100.59 L183.68,100.66 L184.08,99.84 L183.72,98.91 L183.83,98.39 L183.30,98.23 L181.69,98.20 C182.11,96.44 178.99,96.31 178.10,97.28 L176.96,96.43 L176.08,97.37 L175.36,96.79 L174.32,97.02 M159.95,123.33 L160.19,123.81 C159.40,125.24 159.39,126.69 160.16,128.16 L159.93,128.66 C160.87,132.25 160.70,136.42 163.09,139.44 L163.32,139.86 C163.45,140.29 163.70,141.16 163.83,141.59 L164.19,142.34 C166.43,145.89 171.26,144.30 174.75,144.77 C174.75,143.18 174.77,141.59 174.84,140.00 C176.63,139.90 178.49,140.29 180.24,139.73 L180.93,140.26 L181.86,140.02 L182.08,140.61 L182.66,140.60 L183.66,140.84 C186.49,141.00 183.17,137.81 182.00,139.27 L181.38,138.67 C179.88,138.00 178.36,137.35 176.82,136.79 L176.24,136.92 C174.75,135.48 172.36,135.51 170.65,134.36 C169.67,133.51 168.90,132.46 167.96,131.58 L167.97,131.01 C167.02,129.46 166.39,127.61 164.97,126.43 L164.71,126.03 L164.82,124.92 L163.93,124.59 L164.04,124.02 C163.50,123.01 162.78,122.17 161.87,121.52 L161.69,121.10 L161.99,120.02 C159.68,119.55 160.04,121.77 159.95,123.33 M218.30,120.11 L218.23,120.68 C217.42,121.83 215.80,123.28 216.30,124.80 L215.51,124.85 C214.97,126.25 213.39,127.51 213.52,129.06 L212.74,129.49 C212.64,129.91 212.44,130.74 212.33,131.16 C212.07,131.48 211.53,132.12 211.26,132.44 L211.38,133.20 L211.04,133.69 L210.27,134.12 L210.24,135.02 L209.96,135.60 C208.76,136.04 208.26,136.87 208.48,138.09 L208.18,138.64 C206.96,139.14 206.32,140.06 206.28,141.38 L206.25,141.93 L206.80,141.98 C207.98,141.64 208.97,140.11 208.73,138.90 L209.03,138.36 C210.20,137.93 210.69,137.12 210.51,135.90 L210.87,135.39 L211.64,134.95 L211.66,134.07 L211.96,133.54 C213.10,133.11 213.68,132.30 213.70,131.10 L214.21,130.40 C215.15,128.65 217.00,127.02 216.85,124.92 C218.10,124.10 219.03,122.26 218.75,120.76 L218.84,120.19 L218.30,120.11 M167.18,126.08 L167.09,126.61 L167.61,126.65 L167.71,126.15 L167.18,126.08 M167.61,126.65 C167.96,128.00 168.56,129.24 169.40,130.38 C169.44,130.44 169.53,130.57 169.57,130.63 C170.34,131.80 171.16,133.11 172.60,133.51 C175.07,134.41 177.45,135.75 180.13,135.91 C178.22,134.23 175.42,134.18 173.61,132.36 C171.43,130.64 170.06,128.04 167.61,126.65 M181.22,136.25 C181.11,137.81 183.81,138.60 185.07,138.12 C184.62,136.76 182.56,135.86 181.22,136.25 M185.07,138.12 L185.32,138.94 L186.12,139.34 L186.72,138.91 L186.54,138.09 L185.74,137.70 L185.07,138.12 M189.22,140.16 L189.23,140.78 L189.84,140.77 L189.84,140.16 L189.22,140.16 M175.15,147.77 C175.21,164.21 175.13,180.64 175.19,197.08 C176.61,195.90 177.95,194.60 178.88,193.00 C179.79,192.11 180.58,191.12 181.33,190.10 C183.14,188.71 184.52,186.83 185.87,185.01 C186.77,184.11 187.57,183.12 188.33,182.10 C189.85,180.83 191.66,178.94 192.39,177.40 C193.38,176.67 194.98,175.57 194.81,174.21 L195.71,174.19 C196.94,172.66 199.23,170.42 197.02,168.65 L197.13,168.07 C196.86,167.50 196.34,166.37 196.07,165.80 L196.19,165.24 C196.14,163.89 195.74,162.72 195.01,161.72 L195.18,161.15 C194.84,159.85 194.44,158.57 193.96,157.31 L193.87,156.83 L194.29,156.10 L193.91,155.35 L193.12,155.35 L192.75,156.14 L193.19,156.92 L193.32,157.52 C191.54,158.37 192.31,160.76 191.90,162.32 L192.09,162.88 C191.02,164.45 191.30,166.52 190.95,168.32 L191.11,168.84 C189.54,171.44 190.27,174.81 189.45,177.70 C189.09,177.93 188.35,178.41 187.98,178.64 C187.97,177.65 187.94,175.65 187.93,174.65 L187.83,174.18 C188.91,172.54 188.70,170.47 189.01,168.62 L188.91,168.21 C189.98,166.64 189.96,164.56 189.80,162.75 L189.87,162.28 L190.44,160.69 C190.46,160.62 190.50,160.49 190.51,160.43 C191.00,157.58 191.84,154.78 191.90,151.88 L192.42,151.12 L192.18,150.06 L191.45,149.75 C190.21,149.39 188.96,149.08 187.71,148.82 L187.14,148.95 C183.33,147.75 179.13,148.15 175.15,147.77  Z " fill="#000000" opacity="1.00"/>
    <path fill="#000000" opacity="1.00" d="M 99.54 107.30 C 100.72 107.41 101.87 107.72 103.03 107.94 L 103.51 108.11 C 104.13 108.33 105.37 108.77 105.98 108.99 L 106.48 109.18 C 108.26 110.00 110.14 110.63 112.09 110.91 L 112.57 111.03 C 113.64 111.47 114.71 111.92 115.79 112.36 C 115.90 112.77 116.12 113.58 116.23 113.99 L 116.01 114.44 C 115.28 115.65 114.92 116.98 114.92 118.41 L 114.87 118.83 L 115.26 119.03 C 115.68 119.25 116.53 119.68 116.96 119.90 L 117.47 120.13 C 118.18 120.43 119.60 121.05 120.31 121.36 C 119.94 122.76 118.98 123.25 117.44 122.83 L 116.84 122.84 L 116.83 123.41 C 116.81 125.38 116.75 127.35 116.53 129.31 C 116.51 129.40 116.49 129.60 116.48 129.69 C 116.39 130.29 116.23 131.49 116.15 132.09 L 115.99 132.56 C 115.01 134.33 114.07 136.11 113.12 137.89 L 112.85 138.38 C 111.86 139.50 110.89 140.65 109.94 141.80 C 110.41 142.25 111.36 143.13 111.84 143.58 L 112.34 144.29 C 113.15 145.41 114.00 146.49 114.86 147.57 L 115.12 148.05 C 115.70 149.15 116.30 150.25 116.92 151.33 L 117.15 151.86 C 117.33 152.28 117.69 153.10 117.87 153.51 L 118.08 154.02 C 118.27 154.41 118.64 155.19 118.82 155.58 L 119.07 156.09 C 119.28 156.47 119.68 157.22 119.88 157.60 L 120.12 158.07 C 120.30 158.57 120.65 159.56 120.83 160.06 C 120.59 161.02 120.35 161.98 120.12 162.95 L 119.89 163.41 C 119.68 163.81 119.25 164.61 119.03 165.01 L 118.79 165.52 C 118.61 165.90 118.26 166.65 118.09 167.03 L 117.86 167.58 C 117.64 168.23 117.19 169.52 116.97 170.17 L 116.81 170.76 C 116.46 171.91 116.17 173.07 115.95 174.25 L 116.01 174.87 L 116.13 176.20 L 116.11 176.81 L 115.87 178.19 L 115.77 178.79 C 116.43 179.77 117.11 180.74 117.80 181.71 L 118.27 182.38 C 119.09 183.48 119.92 184.55 120.76 185.64 L 121.25 186.33 C 122.18 187.61 123.17 188.83 124.29 189.95 C 124.37 190.03 124.52 190.20 124.60 190.29 L 124.70 190.16 C 125.74 188.94 126.74 187.67 127.73 186.40 C 128.10 185.91 128.84 184.94 129.21 184.45 C 130.02 183.39 130.86 182.35 131.67 181.30 L 132.18 180.61 C 133.03 179.52 133.89 178.43 134.71 177.32 L 135.20 176.63 C 135.76 175.90 136.33 175.18 136.90 174.47 C 137.26 173.91 137.97 172.80 138.33 172.24 C 138.63 172.04 139.23 171.64 139.52 171.45 C 142.22 171.27 144.93 171.36 147.63 171.33 C 147.86 171.33 148.31 171.33 148.53 171.33 C 147.74 172.55 146.95 173.77 146.13 174.96 L 145.81 175.41 C 144.93 176.48 144.08 177.56 143.21 178.64 C 142.85 179.17 142.13 180.22 141.76 180.75 C 141.12 181.49 140.47 182.23 139.82 182.97 C 139.68 183.16 139.40 183.53 139.26 183.72 L 138.84 184.49 C 137.93 185.63 137.04 186.78 136.18 187.96 L 135.81 188.45 C 134.87 189.60 133.98 190.79 133.12 192.00 L 132.83 192.39 C 131.76 193.63 130.73 194.91 129.81 196.28 L 129.37 196.97 L 129.89 197.74 C 130.83 199.08 131.83 200.37 132.82 201.68 L 133.31 202.35 C 134.13 203.45 134.97 204.53 135.82 205.62 L 136.31 206.31 C 137.12 207.43 137.97 208.52 138.82 209.61 L 139.31 210.31 C 140.13 211.42 140.96 212.51 141.81 213.60 L 142.31 214.29 C 143.12 215.38 143.97 216.45 144.83 217.51 L 145.25 218.29 C 145.39 218.48 145.66 218.85 145.80 219.04 C 146.44 219.79 147.08 220.54 147.72 221.29 C 148.09 221.83 148.82 222.90 149.19 223.44 C 149.46 223.82 150.00 224.60 150.27 224.98 C 146.54 224.96 142.81 224.92 139.08 224.99 C 138.13 223.78 137.18 222.58 136.23 221.38 L 135.89 220.93 C 135.02 219.73 134.14 218.54 133.23 217.38 L 132.90 216.93 C 132.03 215.73 131.14 214.55 130.22 213.39 L 129.89 212.94 C 129.01 211.74 128.12 210.55 127.21 209.38 L 126.88 208.93 C 125.87 207.54 124.82 206.17 123.70 204.87 L 123.61 204.76 C 123.53 204.84 123.39 205.01 123.31 205.09 C 122.14 206.27 121.10 207.58 120.12 208.92 L 119.78 209.36 C 118.86 210.53 117.97 211.73 117.09 212.93 L 116.76 213.39 C 115.89 214.46 115.06 215.55 114.20 216.63 C 113.83 217.15 113.09 218.17 112.72 218.69 C 111.87 219.75 111.03 220.83 110.23 221.94 L 109.91 222.37 C 109.19 223.22 108.49 224.08 107.79 224.95 C 104.57 224.96 101.35 224.96 98.13 224.93 C 99.14 223.58 100.16 222.24 101.21 220.92 C 101.33 220.76 101.58 220.42 101.70 220.26 L 102.09 219.67 C 102.95 218.54 103.84 217.44 104.70 216.31 L 105.21 215.63 C 106.06 214.55 106.91 213.46 107.74 212.35 L 108.24 211.67 C 109.41 210.22 110.57 208.77 111.68 207.28 L 112.18 206.59 C 113.03 205.50 113.89 204.42 114.72 203.32 L 115.23 202.63 C 116.23 201.37 117.22 200.11 118.14 198.79 L 118.64 198.05 L 118.17 197.35 C 117.23 196.00 116.22 194.70 115.18 193.44 L 114.82 192.95 C 113.97 191.75 113.09 190.58 112.17 189.44 L 111.81 188.95 C 110.96 187.75 110.08 186.59 109.16 185.45 L 108.81 184.97 C 107.96 183.76 107.07 182.59 106.15 181.45 L 105.80 180.97 C 104.95 179.79 104.07 178.64 103.18 177.50 L 102.78 176.72 C 102.64 176.52 102.36 176.14 102.22 175.94 C 101.40 175.00 100.51 174.12 99.57 173.31 C 99.42 173.18 99.10 172.93 98.95 172.81 C 98.82 172.74 98.56 172.60 98.44 172.52 C 97.20 172.46 95.96 172.59 94.73 172.90 L 94.23 172.96 C 92.37 172.97 90.51 173.19 88.76 173.88 L 88.18 174.03 L 86.76 174.37 C 88.10 176.51 89.55 178.73 91.94 179.81 L 92.40 180.08 C 92.79 180.36 93.57 180.94 93.96 181.22 C 94.15 181.35 94.54 181.60 94.73 181.73 L 95.53 182.14 C 99.07 184.84 102.09 188.13 105.03 191.46 C 105.15 191.59 105.39 191.86 105.51 192.00 C 106.32 192.93 108.11 194.96 105.83 195.55 C 104.78 194.67 104.03 193.51 103.21 192.43 L 102.88 191.98 C 100.73 189.09 98.17 186.50 95.32 184.30 L 94.61 183.82 C 93.76 183.22 92.89 182.64 92.01 182.08 L 91.54 181.78 C 90.79 181.30 90.06 180.80 89.32 180.30 C 88.43 179.45 87.53 178.60 86.62 177.77 C 85.47 176.44 84.65 174.88 83.99 173.26 C 89.00 171.57 94.29 171.06 99.54 170.69 L 99.72 169.76 C 94.71 169.73 89.66 168.99 84.66 169.67 C 84.31 169.89 83.59 170.35 83.23 170.57 C 82.87 171.12 82.14 172.22 81.77 172.77 C 80.62 174.85 79.66 177.03 78.73 179.22 C 78.67 179.34 78.53 179.58 78.47 179.70 C 78.11 180.26 77.38 181.39 77.02 181.96 L 76.75 182.45 C 76.55 182.82 76.16 183.57 75.96 183.94 L 75.73 184.46 C 75.56 184.84 75.24 185.61 75.07 185.99 L 74.86 186.50 C 74.67 186.85 74.29 187.55 74.10 187.90 L 73.82 188.38 C 72.75 189.90 71.76 191.49 71.10 193.24 L 70.93 193.66 C 70.67 194.38 70.14 195.82 69.87 196.54 L 69.71 197.05 C 68.90 196.95 68.31 196.59 67.93 195.99 C 68.16 195.45 68.61 194.37 68.83 193.83 L 69.05 193.32 C 69.69 192.20 70.29 191.08 70.86 189.93 L 71.12 189.40 C 71.31 189.06 71.68 188.38 71.87 188.04 L 72.12 187.56 C 72.32 187.18 72.71 186.42 72.90 186.04 L 73.13 185.53 C 73.29 185.14 73.63 184.35 73.79 183.95 L 74.00 183.51 C 74.22 183.16 74.66 182.46 74.88 182.10 L 75.17 181.63 C 75.72 180.86 76.26 180.07 76.78 179.28 L 77.12 178.51 C 77.36 177.92 77.82 176.73 78.06 176.14 L 78.27 175.61 C 78.43 175.20 78.74 174.39 78.90 173.98 L 79.10 173.49 C 79.30 173.11 79.68 172.34 79.87 171.95 L 80.13 171.42 C 80.33 171.03 80.74 170.25 80.94 169.86 C 79.96 167.89 80.82 166.28 82.43 165.02 L 82.94 164.91 C 84.40 164.88 85.61 164.08 86.75 163.26 L 87.41 162.81 C 88.51 161.98 89.57 161.10 90.63 160.23 L 91.33 159.75 C 92.09 159.23 92.84 158.71 93.59 158.18 L 94.30 157.70 C 95.27 157.01 96.21 156.27 97.11 155.49 C 97.70 154.99 98.88 154.00 99.47 153.50 C 99.59 153.40 99.81 153.20 99.92 153.10 C 100.11 152.90 100.48 152.51 100.67 152.31 C 100.84 152.13 101.17 151.76 101.34 151.57 L 102.50 150.22 C 103.59 148.98 104.67 147.74 105.73 146.47 C 106.10 145.95 106.83 144.91 107.20 144.38 C 107.51 143.92 108.15 142.98 108.46 142.51 C 106.04 143.44 103.49 143.79 100.94 143.20 L 100.50 142.97 C 99.36 142.33 98.17 141.77 96.97 141.26 L 96.55 141.01 C 95.41 139.84 94.25 138.69 93.10 137.54 L 92.70 136.75 C 92.58 136.55 92.34 136.16 92.22 135.97 C 91.96 135.54 91.44 134.69 91.18 134.26 L 90.96 133.85 C 90.71 132.80 90.41 131.77 90.08 130.75 L 90.00 130.29 C 89.63 127.81 89.68 125.30 89.79 122.81 L 89.93 122.34 C 90.15 121.88 90.59 120.94 90.81 120.48 C 91.17 119.93 91.88 118.84 92.24 118.29 C 92.52 118.02 93.07 117.48 93.35 117.22 C 94.60 116.82 95.24 116.03 95.30 114.86 L 94.49 114.67 C 94.08 114.58 93.27 114.42 92.86 114.34 L 92.42 114.10 C 92.36 113.65 92.22 112.73 92.15 112.28 C 92.58 112.18 93.45 111.97 93.89 111.87 L 94.31 112.07 C 94.99 112.40 96.34 113.06 97.02 113.39 C 97.32 112.24 97.60 111.09 97.87 109.94 L 98.04 109.45 C 98.42 108.91 99.17 107.84 99.54 107.30 M 95.20 118.72 L 93.76 118.86 L 93.83 120.12 C 92.50 119.62 91.36 122.01 92.05 123.05 L 92.06 124.14 C 90.57 124.31 90.90 126.85 91.54 127.78 L 92.05 127.78 L 91.42 129.12 L 92.41 129.90 L 91.86 130.65 L 92.13 131.66 L 92.96 131.90 L 93.22 132.91 C 92.66 133.95 93.44 136.27 94.74 136.18 C 95.29 137.06 96.02 137.66 96.94 137.98 L 96.76 138.71 C 97.20 139.02 98.07 139.63 98.50 139.93 L 99.27 139.67 L 100.38 140.46 C 100.44 140.48 100.56 140.53 100.62 140.56 L 102.18 141.12 C 102.97 142.65 107.05 142.04 107.17 140.19 L 108.45 139.76 C 108.53 139.73 108.68 139.67 108.76 139.65 L 110.17 139.05 L 110.07 137.86 L 110.77 138.02 C 111.06 137.62 111.63 136.82 111.92 136.42 L 111.64 135.67 L 112.50 134.78 C 112.54 134.71 112.64 134.55 112.69 134.47 L 113.32 133.21 C 114.08 131.57 114.96 129.91 114.81 128.04 C 114.72 125.75 115.36 123.11 113.85 121.14 C 112.94 120.65 111.98 120.29 110.97 120.06 L 109.78 120.17 L 109.79 119.44 L 108.96 118.83 C 108.48 118.96 107.52 119.23 107.03 119.36 L 105.39 118.71 L 105.40 118.26 L 104.90 118.23 L 104.51 118.40 C 103.80 118.15 102.37 117.66 101.65 117.41 C 101.58 117.39 101.44 117.34 101.36 117.31 L 99.78 116.74 C 98.92 114.50 95.12 117.11 95.20 118.72 M 105.05 149.95 L 105.05 150.52 C 103.72 150.96 103.28 152.46 102.34 153.38 C 101.00 155.18 98.91 156.23 97.53 157.99 L 96.95 157.98 C 95.82 158.40 95.02 159.11 94.55 160.11 L 93.99 160.06 C 92.86 160.48 92.17 161.18 91.90 162.15 L 91.08 162.08 C 90.72 162.42 90.01 163.12 89.65 163.47 C 88.46 163.62 87.88 164.18 87.90 165.15 L 87.08 165.08 C 86.75 165.46 86.09 166.21 85.76 166.58 C 84.72 166.01 83.70 167.12 82.86 167.61 C 90.04 167.51 97.20 168.23 104.38 168.02 L 104.84 167.80 C 106.41 168.43 108.11 168.60 109.77 168.82 C 111.14 163.54 111.03 158.01 110.53 152.63 C 110.52 152.55 110.51 152.40 110.50 152.32 C 110.34 150.72 110.02 149.15 109.54 147.60 C 109.53 147.54 109.51 147.42 109.50 147.36 L 109.27 145.50 C 107.57 146.67 106.34 148.37 105.05 149.95 M 112.19 148.35 C 112.20 148.75 112.21 149.55 112.22 149.95 L 112.92 150.40 L 113.23 150.83 L 112.28 151.34 C 112.49 156.01 113.00 160.69 112.51 165.37 C 112.50 165.42 112.49 165.53 112.48 165.58 C 112.33 166.25 112.04 167.58 111.89 168.25 L 112.00 168.82 C 111.32 169.69 110.67 170.58 110.05 171.50 C 110.51 172.43 111.19 173.09 112.10 173.47 L 112.33 173.90 L 112.23 174.92 C 113.84 174.85 113.56 172.93 114.16 171.94 L 114.10 171.36 C 115.34 170.33 115.34 168.39 116.05 166.99 L 116.15 166.43 C 116.29 166.04 116.56 165.26 116.70 164.87 L 116.92 164.44 C 118.11 162.94 119.88 160.28 117.91 158.67 L 117.93 158.14 C 116.55 155.60 115.42 152.92 113.83 150.51 L 113.53 150.11 C 113.95 148.76 113.50 148.17 112.19 148.35 Z"/>
    <path fill="#000000" opacity="1.00" d="M 283.36 117.13 C 282.59 115.95 284.71 113.65 285.86 114.26 C 285.72 114.69 285.43 115.56 285.29 116.00 C 285.15 116.26 284.86 116.77 284.71 117.02 L 284.06 117.28 L 283.36 117.13 Z"/>
    <path fill="#000000" opacity="1.00" d="M 215.00 116.47 L 215.88 116.57 L 216.21 117.21 L 215.84 118.05 L 215.05 117.98 L 214.66 117.07 L 215.00 116.47 Z"/>
    <path fill="#000000" opacity="1.00" d="M 211.40 119.75 C 209.97 116.01 216.15 120.48 213.28 121.28 C 212.81 120.90 211.87 120.13 211.40 119.75 Z"/>
    <path fill="#000000" opacity="1.00" d="M 284.89 118.77 C 285.96 117.43 288.03 118.66 286.47 120.02 L 285.89 120.30 C 285.71 120.41 285.35 120.65 285.17 120.77 C 284.84 120.61 284.18 120.28 283.85 120.12 C 284.11 119.78 284.63 119.10 284.89 118.77 Z"/>
    <path fill="#000000" opacity="1.00" d="M 286.06 123.43 C 286.72 122.19 290.19 121.92 288.47 123.90 L 287.78 124.21 L 286.60 124.28 L 285.93 124.08 L 286.06 123.43 Z"/>
    <path fill="#000000" opacity="1.00" d=" M 208.61 126.04 L 209.26 125.81 L 209.56 126.47 L 208.96 126.73 L 208.61 126.04 Z"/>
    <path fill="#000000" opacity="1.00" d="M 288.87 128.17 C 285.68 128.68 288.22 125.10 289.88 126.49 C 289.78 126.84 289.59 127.53 289.49 127.87 L 288.87 128.17 Z"/>
    <path fill="#000000" opacity="1.00" d="M 206.05 128.31 L 206.68 128.20 C 207.03 128.51 207.72 129.14 208.07 129.45 C 208.23 131.34 205.10 129.56 206.05 128.31 Z"/>
    <path fill="#000000" opacity="1.00" d="M 203.29 131.17 C 203.65 131.28 204.39 131.50 204.76 131.60 L 205.26 132.26 C 206.43 133.07 206.46 133.70 205.35 134.17 L 204.77 133.87 C 203.65 133.13 203.16 132.23 203.29 131.17 Z"/>
    <path fill="#000000" opacity="1.00" d="M 202.15 134.68 C 203.01 135.55 203.86 136.42 204.70 137.31 C 204.64 137.79 204.53 138.76 204.47 139.24 L 204.40 139.56 C 203.81 139.72 202.61 140.04 202.01 140.20 C 201.72 139.74 201.14 138.82 200.85 138.37 C 201.20 138.20 201.90 137.86 202.25 137.68 C 202.31 137.62 202.41 137.49 202.47 137.43 C 202.39 136.74 202.23 135.37 202.15 134.68 Z"/>
    <path fill="#000000" opacity="1.00" d="M 291.79 139.17 C 288.56 139.92 291.32 136.20 292.92 137.37 C 292.79 137.73 292.54 138.46 292.42 138.83 L 291.79 139.17 Z"/>
    <path fill="#000000" opacity="1.00" d="M 290.81 141.40 C 291.58 141.34 293.11 141.22 293.88 141.16 C 293.34 142.27 292.34 142.52 290.89 141.90 L 290.81 141.40 Z"/>
    <path fill="#000000" opacity="1.00" d="M 235.06 171.92 C 242.94 169.51 251.35 169.81 259.35 171.46 C 259.42 171.49 259.57 171.54 259.65 171.57 C 260.02 171.74 260.77 172.08 261.14 172.25 C 261.07 174.79 261.06 177.34 261.05 179.88 C 258.29 179.12 255.53 178.34 252.69 177.96 L 252.22 177.88 C 249.43 177.33 246.40 176.92 243.70 178.04 L 243.11 178.21 L 241.74 178.52 C 241.60 178.57 241.32 178.67 241.18 178.72 L 239.73 179.47 C 239.60 179.54 239.34 179.70 239.22 179.77 C 237.56 180.84 236.14 182.27 235.17 184.00 L 234.87 184.52 C 234.67 184.87 234.28 185.58 234.09 185.93 L 233.85 186.44 C 233.58 187.08 233.03 188.37 232.76 189.01 L 232.68 189.20 C 232.64 189.31 232.57 189.51 232.53 189.61 C 232.38 190.28 232.07 191.61 231.92 192.28 L 231.82 192.76 C 230.80 197.25 231.07 202.03 232.51 206.40 C 232.55 206.50 232.63 206.70 232.68 206.80 L 232.76 206.99 C 233.03 207.60 233.58 208.83 233.86 209.44 L 234.12 209.98 C 234.61 210.81 235.13 211.62 235.69 212.41 C 236.45 213.55 237.45 214.54 238.60 215.30 C 242.11 218.11 246.81 218.89 251.17 218.12 L 251.78 218.05 C 253.05 217.87 254.29 217.58 255.51 217.17 L 256.03 217.02 C 256.65 216.81 257.88 216.41 258.50 216.20 L 259.03 216.00 C 259.66 215.73 260.93 215.17 261.57 214.89 L 261.72 214.83 C 261.62 217.68 261.64 220.53 261.60 223.39 C 254.52 225.34 247.01 227.26 239.69 225.55 C 239.59 225.52 239.40 225.47 239.31 225.44 C 237.88 225.00 236.50 224.56 235.09 224.14 L 234.63 223.88 C 233.85 223.35 233.06 222.84 232.26 222.35 L 231.51 221.90 C 229.08 220.04 227.00 217.81 225.07 215.46 L 224.82 214.99 C 223.91 213.16 223.02 211.33 222.09 209.53 L 221.92 209.05 C 221.65 207.92 221.35 206.81 221.01 205.72 L 220.91 205.23 C 220.54 201.73 220.11 198.21 220.47 194.69 C 220.48 194.59 220.50 194.40 220.51 194.31 C 220.78 192.42 221.06 190.53 221.46 188.66 C 221.48 188.58 221.53 188.42 221.55 188.34 C 221.99 186.92 222.48 185.54 222.89 184.11 L 223.12 183.68 C 223.33 183.30 223.74 182.54 223.95 182.16 L 224.23 181.67 C 225.01 180.80 225.65 179.85 226.14 178.81 C 226.22 178.73 226.38 178.55 226.46 178.47 C 227.53 177.22 228.67 176.04 229.90 174.95 C 230.80 174.36 231.70 173.77 232.61 173.19 L 233.10 172.92 C 233.47 172.73 234.21 172.34 234.58 172.14 L 235.06 171.92 Z"/>
  </g>
</svg>