<?xml version="1.0" encoding="utf-8"?>
<svg width="421pt" height="104" viewBox="0 0 421 78" style="zoom:1" xmlns="http://www.w3.org/2000/svg">
  <path fill="#f16623" d="M8.11 8.05c20.62.01 41.23.02 61.84-.01-.03 20.61-.01 41.22 0 61.82-20.64.15-41.28-.01-61.92.09.12-20.63-.04-41.27.08-61.9m16.68 13.49c3.42 7.63 8.03 14.69 11.52 22.29.19 4.76-.09 9.54.12 14.31 1.46-.07 2.93-.15 4.39-.24.14-4.67-.21-9.35.13-14.01 3.67-7.54 7.93-14.8 11.72-22.28-1.61 0-3.21.01-4.82 0-3.18 5.79-6.17 11.69-8.89 17.71-3.17-5.74-6.05-11.64-8.82-17.58-1.78-.06-3.57-.13-5.35-.2z"/>
  <path d="M5.09 5.14c22.62-.16 45.25-.17 67.87.01-.06 22.57 0 45.14-.03 67.72-22.6.13-45.21.08-67.81.03-.13-22.59-.06-45.18-.03-67.76m3.02 2.91c-.12 20.63.04 41.27-.08 61.9 20.64-.1 41.28.06 61.92-.09-.01-20.6-.03-41.21 0-61.82-20.61.03-41.22.02-61.84.01z"/>
  <path d="M183.09 20.02c2.81-.02 5.63-.02 8.45.08-.12 7.43-.09 14.86 0 22.29 2.6-4.14 6.05-7.67 8.54-11.88 3.29-.36 6.61-.32 9.91-.21-2.68 3.74-5.56 7.36-8.79 10.64.22.96.24 2.03.95 2.81 2.98 4.33 5.81 8.77 8.82 13.09-3.41.25-6.84.29-10.23-.08-1.85-3.65-4.4-6.87-6.3-10.49-.42-.02-1.26-.08-1.67-.11-2.27 3.15-1.07 7.17-1.19 10.76-2.9.09-5.81.09-8.71-.01.36-12.29-.08-24.59.22-36.89z" style=""/>
  <path d="M24.79 21.54c1.78.07 3.57.14 5.35.2 2.77 5.94 5.65 11.84 8.82 17.58 2.72-6.02 5.71-11.92 8.89-17.71 1.61.01 3.21 0 4.82 0-3.79 7.48-8.05 14.74-11.72 22.28-.34 4.66.01 9.34-.13 14.01-1.46.09-2.93.17-4.39.24-.21-4.77.07-9.55-.12-14.31-3.49-7.6-8.1-14.66-11.52-22.29z"/>
  <path d="M90.51 21.52c3-.01 6.01.01 9.01-.01-.08 4.33-.05 8.67-.04 13.01 4.48-.02 8.96.03 13.44.04.12-4.35.06-8.7.17-13.05 2.94.01 5.88.01 8.82 0 .13 11.81.16 23.63-.01 35.45-2.94.04-5.88.04-8.81 0-.11-5.19-.16-10.37 0-15.56-4.54-.26-9.09-.12-13.63-.07.04 5.22-.04 10.43.06 15.65-3.01-.01-6.01.02-9.02-.01.08-11.82.09-23.63.01-35.45zM279.53 21.5c3.54.02 7.09 0 10.64.01 4.21 6.96 9 13.57 13.08 20.62.08-6.89-.05-13.77.07-20.65 2.66.04 5.33.04 7.99.08-.05 11.78-.1 23.56.03 35.35-2.85.07-5.68.09-8.52.09-3.43-5.48-6.86-10.96-10.29-16.43-1.75-2.66-3.63-5.26-4.94-8.18-.22 8.18-.12 16.36-.06 24.55-2.67.05-5.34.05-8.01 0-.01-11.82.01-23.63.01-35.44z" style=""/>
  <g fill="#fff">
    <path d="M128.35 30.64c5.81-.91 11.83-1.87 17.63-.34 2.13.48 4.13 1.72 5.34 3.57 1.31 2.17 1.13 4.79 1.18 7.23-.08 5.28.01 10.56-.02 15.84-2.77.06-5.53.07-8.3.04l-.76-2.72c-3.38 3.75-9.51 4.6-13.84 2.04-4.71-2.87-4.87-10.83-.15-13.79 4.36-2.68 9.7-2.52 14.63-3.02-.2-.94-.4-1.88-.6-2.81-4.84-2.78-10.25-.72-15.21.43.01-2.16.04-4.32.1-6.47m7.63 15.13l-1.6 1.96c.24 1.31.01 3.09 1.49 3.74 2.73 1.2 5.8.3 8.21-1.2-.06-1.96-.1-3.91-.15-5.87-2.67.34-5.32.78-7.95 1.37zM214.67 33.64c4.72-4.64 12.45-5.23 18.36-2.77 5.52 2.37 6.35 9.17 5.93 14.44-6.56-.01-13.12-.15-19.68.08.62 2.17 1.56 4.51 3.8 5.45 5.09 2.06 10.74.39 15.23-2.35.2 2.35.2 4.71.21 7.07-5.81 2.34-12.41 2.98-18.46 1.18-3.66-1.12-7.12-3.77-8.23-7.56-1.62-5.18-1.07-11.5 2.84-15.54m6.37 2.38c-.89 1.26-1.36 2.74-1.72 4.22 3.79.01 7.58.02 11.38.02-.44-1.5-.89-2.98-1.34-4.47-2.67-1.16-5.82-1.56-8.32.23zM316.56 36.6c2.5-5.2 8.62-7.4 14.08-7.11 4.23-.01 9.15 1.66 10.9 5.86 1.56 3.09 1.56 6.61 1.41 9.98-6.56-.09-13.12-.14-19.67.06.62 2.17 1.56 4.51 3.8 5.45 5.08 2.02 10.77.49 15.19-2.39.19 2.37.24 4.74.28 7.11-6.9 2.63-15.19 3.43-21.82-.34-6.29-3.66-7.03-12.54-4.17-18.62m8.48-.58c-.89 1.26-1.36 2.74-1.72 4.22 3.79.01 7.58.02 11.38.02-.44-1.5-.89-2.98-1.34-4.47-2.67-1.16-5.82-1.56-8.32.23zM161.52 31.6c5.67-3.02 12.59-2.45 18.44-.2.02 2.53.02 5.06.1 7.59l-2.05-.44c-2.9-2.67-7.61-3.85-11.16-1.79-4.11 3.1-3.8 9.4-1.1 13.33 2.32.87 4.79 1.85 7.3 1.3 2.61-.4 4.63-2.2 6.81-3.54.15 2.65.17 5.3.16 7.96-5.66 2.41-12.32 2.74-18 .21-9.36-4.26-9.42-19.67-.5-24.42zM344.04 30.24c2.84-.01 5.69.01 8.54.02 1.64 6.09 3.02 12.25 4.57 18.37 1.9-6.1 4.18-12.09 5.82-18.28 2.56-.07 5.11-.07 7.67-.06 1.89 6.15 3.77 12.3 5.48 18.51 1.37-6.18 3.16-12.25 4.34-18.46 2.93-.06 5.86-.09 8.8-.07-2.76 8.86-5.49 17.74-8.12 26.64-3.04.11-6.08.11-9.12.05-1.61-6.07-3.81-11.97-5.3-18.07-2 5.94-3.92 11.93-5.51 18-3.06.14-6.13.14-9.19 0-2.49-8.93-5.45-17.73-7.98-26.65z" style="fill: rgb(0, 0, 0);"/>
  </g>
  <path d="M243.03 30.28c2.84-.02 5.69-.01 8.54.01-.03 1.32-.05 2.64-.06 3.96 2.73-3.04 6.82-4.24 10.81-4.07-.05 2.81-.04 5.63.01 8.45-3.58-.52-7.19-.37-10.74.25-.23 6.03-.11 12.06-.07 18.08-2.81 0-5.61.06-8.41.15-.21-8.94-.07-17.89-.08-26.83zM390.27 38.94c-.48-4.57 3.89-7.97 7.97-8.81 5.06-1.08 10.63-.78 15.42 1.19.75 2.27.19 4.77.28 7.13-4.2-2.23-9.29-4.47-14.01-2.46-1.29.52-.45 2.14-.52 3.15 3.42.8 6.94 1.24 10.32 2.24 2.27.7 4.66 2.14 5.16 4.67 1.55 4.05-1.08 8.55-4.91 10.11-6.28 2.59-13.38 1.74-19.67-.35-.06-2.56-.04-5.12.13-7.67 3.87 2.81 8.78 4.51 13.58 3.66 1.66.02 2.75-1.51 2.7-3.11-3.15-1.24-6.53-1.55-9.79-2.36-3.38-.83-6.69-3.67-6.66-7.39z" style=""/>
</svg>