<?xml version="1.0" encoding="UTF-8" ?>
<!DOCTYPE svg PUBLIC "-//W3C//DTD SVG 1.1//EN" "http://www.w3.org/Graphics/SVG/1.1/DTD/svg11.dtd">
<svg width="930pt" height="930pt" viewBox="0 0 930 930" version="1.1" xmlns="http://www.w3.org/2000/svg">
<g id="#ffffffff">
</g>
<g id="#b3434aff">
<path fill="#b3434a" opacity="1.00" d=" M 460.57 0.00 L 469.43 0.00 C 475.93 0.49 482.44 0.66 488.96 0.71 C 499.03 0.83 509.02 2.10 519.02 3.12 C 533.17 4.33 547.05 7.47 561.01 9.97 C 629.02 24.03 693.59 54.05 748.55 96.46 C 810.98 144.47 861.01 208.52 892.13 280.90 C 901.52 302.52 909.15 324.89 915.16 347.68 C 920.52 369.87 925.30 392.28 927.29 415.05 C 928.41 424.67 929.31 434.33 929.34 444.03 C 929.33 449.55 929.62 455.06 930.00 460.57 L 930.00 469.42 C 929.12 479.63 929.59 489.89 928.76 500.11 C 928.32 506.43 927.45 512.71 926.88 519.03 C 925.63 533.48 922.40 547.65 919.87 561.91 C 909.81 609.54 892.12 655.54 867.69 697.66 C 822.80 775.30 755.06 839.66 674.91 879.98 C 647.15 894.24 617.83 905.33 587.79 913.71 C 561.90 920.45 535.54 925.49 508.88 927.95 C 495.79 929.66 482.56 929.00 469.43 930.00 L 460.57 930.00 C 455.06 929.62 449.55 929.33 444.03 929.35 C 430.87 929.30 417.80 927.62 404.76 926.12 C 378.95 922.69 353.38 917.30 328.50 909.62 C 261.61 889.24 199.59 853.24 148.42 805.59 C 94.55 755.49 52.60 692.55 27.67 623.31 C 21.29 606.25 16.46 588.65 12.10 570.98 C 10.17 563.20 8.99 555.26 7.40 547.42 C 4.48 532.74 2.93 517.83 1.49 502.95 C 0.33 491.81 0.95 480.58 0.00 469.43 L 0.00 460.57 C 0.20 456.73 0.55 452.89 0.59 449.04 C 0.67 426.73 3.22 404.47 7.37 382.57 C 14.03 344.37 25.79 307.09 41.86 271.80 C 50.31 254.01 59.22 236.39 69.83 219.77 C 118.90 140.69 192.19 76.87 277.41 39.41 C 315.13 22.65 355.18 11.22 395.99 5.11 C 411.63 3.29 427.24 0.76 443.03 0.67 C 448.88 0.67 454.73 0.41 460.57 0.00 M 258.07 161.06 C 257.87 168.71 258.05 176.35 258.00 184.00 C 258.01 301.33 257.99 418.67 258.01 536.00 C 257.88 540.64 258.01 545.29 258.06 549.94 C 262.04 549.96 266.02 550.11 270.00 550.02 C 330.65 549.93 391.29 550.10 451.94 549.94 C 451.99 545.29 452.11 540.64 451.99 536.00 C 452.01 415.33 451.99 294.67 452.00 174.00 C 452.12 169.69 451.97 165.37 451.94 161.06 C 387.32 160.96 322.69 160.96 258.07 161.06 M 478.07 161.06 C 478.04 165.04 477.89 169.02 477.98 173.00 C 478.07 233.65 477.90 294.29 478.06 354.94 C 542.68 355.05 607.32 355.03 671.94 354.94 C 672.04 290.32 672.04 225.69 671.94 161.06 C 607.32 160.96 542.69 160.95 478.07 161.06 M 478.07 380.06 C 478.01 384.71 477.88 389.35 478.00 394.00 C 477.99 514.66 478.01 635.33 478.00 756.00 C 477.88 760.31 478.03 764.62 478.06 768.94 C 542.69 769.04 607.32 769.04 671.94 768.94 C 671.96 764.95 672.10 760.97 672.02 757.00 C 671.94 631.35 672.09 505.70 671.94 380.06 C 607.32 379.97 542.69 379.95 478.07 380.06 M 258.06 575.06 C 257.96 639.69 257.95 704.32 258.06 768.94 C 322.69 769.04 387.32 769.05 451.94 768.94 C 452.04 704.31 452.04 639.68 451.94 575.06 C 447.96 575.04 443.98 574.89 440.00 574.98 C 379.36 575.07 318.70 574.90 258.06 575.06 Z" />
</g>
<g id="#ff6c37ff">
<path fill="#ff6c37" opacity="1.00" d=" M 258.07 161.06 C 322.69 160.96 387.32 160.96 451.94 161.06 C 451.97 165.37 452.12 169.69 452.00 174.00 C 451.99 294.67 452.01 415.33 451.99 536.00 C 452.11 540.64 451.99 545.29 451.94 549.94 C 391.29 550.10 330.65 549.93 270.00 550.02 C 266.02 550.11 262.04 549.96 258.06 549.94 C 258.01 545.29 257.88 540.64 258.01 536.00 C 257.99 418.67 258.01 301.33 258.00 184.00 C 258.05 176.35 257.87 168.71 258.07 161.06 Z" />
<path fill="#ff6c37" opacity="1.00" d=" M 478.07 161.06 C 542.69 160.95 607.32 160.96 671.94 161.06 C 672.04 225.69 672.04 290.32 671.94 354.94 C 607.32 355.03 542.68 355.05 478.06 354.94 C 477.90 294.29 478.07 233.65 477.98 173.00 C 477.89 169.02 478.04 165.04 478.07 161.06 Z" />
<path fill="#ff6c37" opacity="1.00" d=" M 478.07 380.06 C 542.69 379.95 607.32 379.97 671.94 380.06 C 672.09 505.70 671.94 631.35 672.02 757.00 C 672.10 760.97 671.96 764.95 671.94 768.94 C 607.32 769.04 542.69 769.04 478.06 768.94 C 478.03 764.62 477.88 760.31 478.00 756.00 C 478.01 635.33 477.99 514.66 478.00 394.00 C 477.88 389.35 478.01 384.71 478.07 380.06 Z" />
<path fill="#ff6c37" opacity="1.00" d=" M 258.06 575.06 C 318.70 574.90 379.36 575.07 440.00 574.98 C 443.98 574.89 447.96 575.04 451.94 575.06 C 452.04 639.68 452.04 704.31 451.94 768.94 C 387.32 769.05 322.69 769.04 258.06 768.94 C 257.95 704.32 257.96 639.69 258.06 575.06 Z" />
</g>
</svg>
